<svg width="30" height="30" fill="none" xmlns="http://www.w3.org/2000/svg"><path fill-rule="evenodd" clip-rule="evenodd" d="M15 0l8.968 5.178-8.967 5.178-8.968-5.178 4.18-2.413L15 0zm12.36 18.832a.61.61 0 11.688-1.008c.607.414 1.087.866 1.419 1.35.348.508.533 1.047.533 1.61 0 1.368-1.089 2.588-2.944 3.545-1.752.905-4.232 1.603-7.12 1.98a.609.609 0 11-.156-1.208c2.745-.357 5.085-1.013 6.718-1.855 1.437-.742 2.28-1.595 2.28-2.462 0-.31-.11-.62-.319-.924-.242-.354-.615-.7-1.098-1.029zm-14.897 4.487a.609.609 0 011.012-.678l2.003 2.989a.606.606 0 01-.001.76l-2.003 2.988a.608.608 0 11-1.011-.677l1.405-2.097c-3.593-.1-6.833-.675-9.25-1.553C1.764 24.015 0 22.511 0 20.783c0-.563.185-1.103.533-1.61.331-.483.812-.935 1.42-1.35a.61.61 0 11.686 1.008c-.483.329-.855.674-1.098 1.028-.208.303-.319.613-.319.924 0 1.16 1.457 2.268 3.811 3.123 2.286.831 5.37 1.376 8.814 1.476l-1.384-2.064zM24.578 6.233v10.354l-8.967 5.176V11.41l8.967-5.177zM14.39 21.764L5.423 16.59V6.233l8.967 5.177v10.354z" fill="#C40E38"/></svg>