<svg width="51" height="43" fill="none" xmlns="http://www.w3.org/2000/svg"><path d="M25.378 10.085c-7.721 0-14.003 6.281-14.003 14.003 0 7.721 6.281 13.996 14.003 13.996 7.72 0 13.995-6.275 13.995-13.996 0-7.72-6.274-14.003-13.995-14.003zm0 1.75c6.775 0 12.245 5.477 12.245 12.253a12.23 12.23 0 01-12.245 12.245c-6.775 0-12.252-5.47-12.252-12.245a12.241 12.241 0 0112.252-12.252z" fill="#fff"/><path d="M25.377 13.586c-5.788 0-10.502 4.714-10.502 10.502S19.589 34.59 25.377 34.59 35.88 29.877 35.88 24.088c0-5.788-4.714-10.502-10.502-10.502zm0 1.75a8.74 8.74 0 018.752 8.752 8.74 8.74 0 01-8.752 8.752 8.74 8.74 0 01-8.752-8.752 8.74 8.74 0 018.752-8.752zm17.497-3.501a2.639 2.639 0 00-2.622 2.63 2.634 2.634 0 002.622 2.621 2.64 2.64 0 002.629-2.622c0-1.44-1.19-2.629-2.629-2.629zm0 1.75c.494 0 .878.385.878.88a.862.862 0 01-.878.87.857.857 0 01-.872-.87c0-.495.379-.88.872-.88z" fill="#fff"/><path d="M18.375.464c-1.402 0-2.687.8-3.314 2.054l-2.473 4.947H6.129s-1.495-.011-3.016.75C1.593 8.974 0 10.557 0 13.587v22.747c0 3.044 1.592 4.62 3.113 5.38 1.521.76 3.016.749 3.016.749h38.493s1.495.012 3.016-.749c1.52-.76 3.107-2.317 3.107-5.38V13.588c0-3.05-1.586-4.613-3.107-5.373-1.521-.76-3.016-.75-3.016-.75h-6.459L35.69 2.518A3.713 3.713 0 0032.376.464H18.375zm0 1.75h14.002c.743 0 1.419.421 1.75 1.086l2.713 5.43c.148.297.45.484.782.485h7s1.132.01 2.235.562c1.104.551 2.145 1.62 2.145 3.81v22.747c0 2.203-1.04 3.265-2.145 3.817-1.103.552-2.234.562-2.234.562H6.13s-1.13-.01-2.234-.562-2.145-1.614-2.145-3.817V13.588c0-2.201 1.04-3.258 2.145-3.81 1.103-.552 2.234-.562 2.234-.562h6.995a.875.875 0 00.788-.484L16.625 3.3a1.956 1.956 0 011.75-1.085z" fill="#fff"/></svg>