<svg width="44" height="44" fill="none" xmlns="http://www.w3.org/2000/svg"><g clip-path="url(#clip0_1450_3885)"><path fill="#F4F4F4" d="M0 0h44v44H0z"/><path fill="#F4F4F4" d="M0 0h44v44H0z"/><path d="M14.02 19.9a5.38 5.38 0 005.38-5.23v-.3a5.38 5.38 0 10-5.38 5.53zm3-2.39a4.22 4.22 0 11-5.96-5.977 4.22 4.22 0 015.96 5.977zm14.57-8.37h-4.53a5.363 5.363 0 00-.34 10.72h4.88a5.38 5.38 0 100-10.76l-.01.04zm-7.52 8.37a4.25 4.25 0 113 1.23h-.05a4.16 4.16 0 01-2.95-1.23zm8.37-2.84v-.3a5.4 5.4 0 00-2.09-4.11h1.25a4.23 4.23 0 010 8.46h-1.25a5.399 5.399 0 002.09-4.05zm-3.02 8.8A5.38 5.38 0 1034.8 29v-.3a5.38 5.38 0 00-5.38-5.23zm3 8.37a4.22 4.22 0 11.918-1.374 4.2 4.2 0 01-.927 1.374h.01zm-18.4-7.47a4.481 4.481 0 00-.975 8.854A4.48 4.48 0 0018.49 29v-.3a4.47 4.47 0 00-4.47-4.33zm0 7.8a3.33 3.33 0 113.32-3.32 3.32 3.32 0 01-3.32 3.32z" fill="#C40E38"/><path d="M14.08 22.31A6.54 6.54 0 1020.61 29v-.3a6.54 6.54 0 00-6.53-6.39zm3.8 10.34a5.37 5.37 0 11-7.58-7.609 5.37 5.37 0 017.58 7.61z" fill="#C40E38"/><path d="M37.38 5H7.14a2.14 2.14 0 00-2.12 2.14v30.24a2.14 2.14 0 002.14 2.14H37.4a2.14 2.14 0 002.14-2.14V7.14A2.14 2.14 0 0037.38 5zm.94 32.38a.94.94 0 01-.94.94H7.14a.94.94 0 01-.94-.94V7.14a.94.94 0 01.94-.94h30.24a.94.94 0 01.94.94v30.24z" fill="#C40E38"/></g><defs><clipPath id="clip0_1450_3885"><path fill="#fff" d="M0 0h44v44H0z"/></clipPath></defs></svg>