<svg width="44" height="44" fill="none" xmlns="http://www.w3.org/2000/svg"><g clip-path="url(#clip0_1450_3870)"><path fill="#F4F4F4" d="M0 0h44v44H0z"/><path fill="#F4F4F4" d="M0 0h44v44H0z"/><path d="M14.47 20.24a2.5 2.5 0 100 5 2.5 2.5 0 000-5zm-.53 1.24v2.51a1.36 1.36 0 010-2.51zm1.12 0a1.35 1.35 0 01.78 1.22 1.37 1.37 0 01-.78 1.23v-2.45zm14.64-1.24a2.5 2.5 0 100 5 2.5 2.5 0 000-5zm-.56 1.25v2.48a1.36 1.36 0 010-2.48zm1.13 0a1.36 1.36 0 010 2.48v-2.48z" fill="#C40E38"/><path d="M39.71 19.52a2.24 2.24 0 00-2.16-2.09H35.4V15h-3.66v1.22h2.39v1.17h-4v-1.87h-1.25v1.87h-4v-1.15h2.41V15h-3.66v2.4h-3.41V15h-3.66v1.22h2.39v1.17h-4v-1.87h-1.11v1.87h-4v-1.15h2.41V15H8.59v2.43H7.17a2 2 0 00-1.85 1.14A3.33 3.33 0 005 20.02v7.88h1.36v1.66h3.4v-1.74h25.28v1.66h3.4v-1.66h1.27V20.1c.02-.2.02-.37 0-.58zm-33.48 7v-6.68a1.05 1.05 0 011.18-1.18h29.88a1.07 1.07 0 011.18 1.18v6.67l-32.24.01zm2.43 1.87h-1.2v-.56h1.2v.56zm28.68 0h-1.2v-.56h1.2v.56z" fill="#C40E38"/></g><defs><clipPath id="clip0_1450_3870"><path fill="#fff" d="M0 0h44v44H0z"/></clipPath></defs></svg>