<svg width="44" height="44" fill="none" xmlns="http://www.w3.org/2000/svg"><g clip-path="url(#clip0_1450_3847)"><path fill="#F4F4F4" d="M0 0h44v44H0z"/><path fill="#F4F4F4" d="M0 0h44v44H0z"/><path d="M20.118 31.639a.682.682 0 00.386.138c0-.257-.109-1.57 1.551-3.952 0-.06.089-.128.148-.198 1.74 2.372 1.68 3.735 1.62 4.1a.602.602 0 00.277 0 3.497 3.497 0 001.64-4.09 18.249 18.249 0 00-3.132-5.128.483.483 0 00-.82 0c-.395.484-.77.988-1.126 1.502a16.56 16.56 0 00-1.897 3.33 3.557 3.557 0 001.353 4.298zm-.543-3.686a13.676 13.676 0 011.818-3.28c.237-.346.494-.682.78-1.077a15.314 15.314 0 012.649 4.703c.1.546-.017 1.11-.326 1.571a11.562 11.562 0 00-1.828-3.083c-.346-.444-.662-.444-.988 0a11.566 11.566 0 00-1.868 3.143 2.332 2.332 0 01-.237-1.977zm-.039-19.821h5.217V5.227h-5.257l.04 2.905zm4.14-1.808v.692h-3.024v-.692h3.024zM10.92 5.227a2.47 2.47 0 100 4.94 2.47 2.47 0 000-4.94zm1.353 2.47a1.354 1.354 0 11-1.354-1.403 1.343 1.343 0 011.394 1.354l-.04.05zm4.18-2.47a2.47 2.47 0 100 4.94 2.47 2.47 0 000-4.94zm1.353 2.47a1.353 1.353 0 11-1.353-1.353 1.353 1.353 0 011.383 1.304l-.03.05zm10.069-2.47a2.47 2.47 0 100 4.94 2.47 2.47 0 000-4.94zm1.353 2.47a1.354 1.354 0 110-.05v.05zm4.141-2.47a2.47 2.47 0 10-.02 4.94 2.47 2.47 0 00.02-4.94zm1.344 2.47a1.344 1.344 0 110-.05v.05z" fill="#C40E38"/><path d="M9.18 33.625h25.453V18.99H9.18v14.634zm24.287-13.497v12.35H10.316v-12.35h23.151zm2.688-6.315H7.687v3.42h28.468v-3.42zM8.804 16.096V14.91h26.234v1.186H8.804z" fill="#C40E38"/><path d="M39.326 36.609V4.476a2.213 2.213 0 00-2.134-2.075h-2.125V1.117h-11.58V2.37h-3.37V0h-3.616v1.205h2.322v1.157h-3.952V.514h-1.236v1.848H9.684V1.275h2.372V0H8.438v2.401H7.035a1.976 1.976 0 00-1.828 1.127 3.33 3.33 0 00-.306 1.442v36.935a2.134 2.134 0 002.134 2.134h30.038a2.135 2.135 0 002.135-2.134v-4.94c.118-.119.118-.237.118-.356zm-1.294.939v4.318a.86.86 0 01-.85.85H7.144a.86.86 0 01-.85-.85v-4.318h31.738zM6.254 36.332V12.677h31.827v23.655H6.254zm31.847-27.3v2.35H6.235v-6.6A1.047 1.047 0 017.4 3.616h29.524A1.057 1.057 0 0138.1 4.782v4.25z" fill="#C40E38"/></g><defs><clipPath id="clip0_1450_3847"><path fill="#fff" d="M0 0h44v44H0z"/></clipPath></defs></svg>