<svg width="44" height="44" fill="none" xmlns="http://www.w3.org/2000/svg"><g clip-path="url(#clip0_1450_3877)"><path fill="#F4F4F4" d="M0 0h44v44H0z"/><path fill="#F4F4F4" d="M0 0h44v44H0z"/><path d="M40.97 33.34L29.32 26h-.07V5.45A2.45 2.45 0 0026.8 3h-10a2.45 2.45 0 00-2.45 2.45v20.52L3.09 33.31h-.06v6.87h38v-6.84h-.06zM16.81 4.2h10a1.26 1.26 0 011.25 1.25v20.41h-12.5V5.45a1.26 1.26 0 011.25-1.25zM5.4 33.2l9.42-6.14h14l9.44 6 .31.19.17.11H5.28l.12-.16zm34.41 5.78H4.2v-4.44h35.61v4.44z" fill="#C40E38"/><path d="M10.07 37.29a.869.869 0 00-.84-1.37.88.88 0 00-.57.35.87.87 0 001.41 1v.02zm3.39 0a.88.88 0 00-.2-1.22.87.87 0 00-1 1.41.88.88 0 001.2-.19zm3.38 0a.88.88 0 00-.2-1.22.87.87 0 00-1 1.41.88.88 0 001.2-.19z" fill="#C40E38"/></g><defs><clipPath id="clip0_1450_3877"><path fill="#fff" d="M0 0h44v44H0z"/></clipPath></defs></svg>