<svg width="44" height="44" fill="none" xmlns="http://www.w3.org/2000/svg"><g clip-path="url(#clip0_1450_3905)"><path fill="#F4F4F4" d="M0 0h44v44H0z"/><path fill="#F4F4F4" d="M0 0h44v44H0z"/><path fill-rule="evenodd" clip-rule="evenodd" d="M41.441 21.668c0-.04-.01-.077-.02-.114a1.397 1.397 0 01-.01-.038.094.094 0 01-.002-.026c0-.01 0-.02-.002-.03l-.973-2.986a.668.668 0 00-.635-.462h-1.942V5.738a.115.115 0 00-.006-.032.14.14 0 01-.006-.026c-.002-.02-.006-.037-.01-.055l-.005-.017-.001-.007a.656.656 0 00-.114-.256.052.052 0 01-.009-.02.056.056 0 00-.01-.02l-2.61-3.068a.668.668 0 00-.51-.237H9.198a.672.672 0 00-.51.235L6.076 5.304c-.006.007-.008.015-.011.024a.055.055 0 01-.01.022.653.653 0 00-.11.246l-.005.022a.428.428 0 00-.012.065c0 .009-.003.017-.005.025a.105.105 0 00-.006.03v12.274H3.502a.67.67 0 00-.644.49l-.834 2.986a.11.11 0 00-.001.037v.032l-.01.04a.26.26 0 00-.013.07c0 .017.004.032.009.048a.227.227 0 01.007.034c.002.01 0 .018 0 .027a.088.088 0 00-.001.03L5.95 40.248c0 .966.786 1.753 1.752 1.753h28.4c.966 0 1.753-.787 1.74-1.626l3.586-18.58a.067.067 0 00-.002-.025.078.078 0 01-.001-.022.2.2 0 01.007-.034.145.145 0 00.009-.046v.001zM7.254 6.407h29.264v2.572H7.254V6.407zm2.253-3.069h24.76l1.474 1.73H8.033l1.474-1.73zm-2.253 6.98h29.264v7.694h-.208c-.343-3.528-3.29-6.306-6.906-6.306-1.348 0-2.629.4-3.752 1.122a6.918 6.918 0 00-3.765-1.122c-1.389 0-2.678.42-3.766 1.123a6.888 6.888 0 00-3.75-1.123c-3.617 0-6.564 2.777-6.907 6.306h-.21v-7.694zm19.19 7.694c-.328-2.231-2.237-3.955-4.557-3.955-2.32 0-4.23 1.724-4.557 3.955h-1.012c.336-2.79 2.69-4.967 5.57-4.967 2.878 0 5.233 2.177 5.568 4.967h-1.013zm-1.339 0h-6.437a3.293 3.293 0 013.219-2.617 3.292 3.292 0 013.218 2.617zm-13.954 0a3.293 3.293 0 013.219-2.617c.437 0 .854.115 1.251.28a6.878 6.878 0 00-.64 2.337h-3.83zm-2.35 0c.335-2.79 2.69-4.967 5.569-4.967.935 0 1.834.229 2.644.661a7.033 7.033 0 00-.674.794 4.613 4.613 0 00-1.97-.443c-2.321 0-4.23 1.724-4.558 3.955H8.801zm19.992 0a6.89 6.89 0 00-.641-2.337c.397-.165.814-.28 1.252-.28a3.293 3.293 0 013.219 2.617h-3.83zm5.168 0c-.327-2.231-2.236-3.955-4.557-3.955-.688 0-1.358.153-1.97.442a6.997 6.997 0 00-.673-.793 5.587 5.587 0 012.643-.661c2.879 0 5.233 2.177 5.569 4.967H33.96zm5.353 1.338l.537 1.65H3.55l.46-1.649h35.304zm-2.797 20.898a.415.415 0 01-.415.414h-28.4c-.23 0-.415-.186-.43-.553L3.494 22.337h36.468l-3.445 17.91zM26.922 24.78a.667.667 0 00-.864.384l-.584 1.51h-7.619l-.583-1.51a.667.667 0 10-1.247.48l.748 1.939c.1.257.347.429.624.429h8.536a.669.669 0 00.623-.43l.748-1.938a.666.666 0 00-.382-.864zm5.33-17.657h1.58a.67.67 0 010 1.338h-1.58a.67.67 0 010-1.338zm-2.613 0a.67.67 0 000 1.338h.088c.368 0 .624-.3.624-.669 0-.369-.344-.67-.712-.67zm-2.69.67c0-.37.3-.67.668-.67.37 0 .718.3.718.67 0 .368-.25.668-.62.668h-.098a.67.67 0 01-.668-.669z" fill="#C40E38"/><path d="M41.42 21.553l-.096.027.096-.026zm.021.115l-.091.04.191-.04h-.1zm-.03-.152l-.098.023.097-.023zm-.002-.026l.1.004-.1-.004zm-.002-.03l-.095.032.095-.031zm-.973-2.986l-.095.03.095-.03zm-2.577-.462h-.1v.1h.1v-.1zM37.85 5.706l-.096.028.096-.028zm-.006-.026l-.1.009.1-.01zm-.01-.055l-.098.023.097-.023zm-.005-.017l-.097.022v.002l.098-.024zm-.001-.007l-.098.021.098-.021zm-.114-.256l-.08.06.08-.06zm-.009-.02l.096-.028-.096.029zm-.01-.02l.078-.063-.001-.002-.076.065zm-2.61-3.068l-.077.064.076-.064zM8.687 2.235l-.075-.065.075.065zM6.076 5.304L6 5.239l.076.065zm-.011.024L5.969 5.3l.096.03zm-.01.022l.081.06v-.001l-.08-.059zm-.11.246l.098.023v-.001l-.097-.022zm-.005.022l.097.025v-.001l-.097-.024zm0 0l-.097-.024.097.024zm-.012.065l-.1-.01v.002l.1.008zm-.005.025l-.097-.028-.001.008.098.02zm0 0l.096.028.002-.008-.098-.02zm-.006 12.304v.1h.1v-.1h-.1zm-3.059.49l-.096-.027.096.027zm-.834 2.986l-.096-.026.096.026zm-.001.037l-.1.007.1-.007zm0 .032l-.1-.017.1.017zm-.01.04l-.097-.026.096.027zm-.004.118l.096-.027-.096.027zm.007.034l-.099.012v.001l.1-.013zm0 .027l.098.014-.099-.014zm-.001.03l-.098.021.098-.02zM5.95 40.248h.1v-.01l-.003-.01-.097.02zm31.892.127l-.098-.019-.002.01v.011l.1-.002zm3.586-18.58l.098.02-.098-.02zm-.002-.025l.099-.017-.099.017zm-.001-.022l.1.011-.1-.011zm.007-.034l.096.028-.096-.028zm.009-.046l.091-.04-.191.04h.1zm-4.923-15.26h.1v-.1h-.1v.1zm-29.264 0v-.1h-.1v.1h.1zM36.518 8.98v.1h.1v-.1h-.1zm-29.264 0h-.1v.1h.1v-.1zm27.013-5.64l.076-.065-.03-.036h-.046v.1zm-24.76 0v-.1H9.46l-.03.035.076.064zm26.234 1.73v.1h.217l-.14-.165-.077.064zm-27.708 0l-.076-.065-.14.164h.216v-.1zm28.485 5.249h.1v-.1h-.1v.1zm-29.264 0v-.1h-.1v.1h.1zm29.264 7.694v.1h.1v-.1h-.1zm-.208 0l-.1.01.01.09h.09v-.1zm-10.658-5.184l-.054.084.054.034.054-.034-.054-.085zm-7.53 0l-.055.085.054.034.054-.034-.054-.085zM7.463 18.012v.1h.09l.01-.09-.1-.01zm-.21 0h-.1v.1h.1v-.1zm19.19 0l-.1.014.013.086h.086v-.1zm-9.114 0v.1h.087l.012-.086-.099-.014zm-1.012 0l-.1-.012-.013.112h.113v-.1zm11.138 0v.1h.113L27.556 18l-.1.012zm-8.788 0l-.098-.02-.025.12h.123v-.1zm6.437 0v.1h.123l-.025-.12-.098.02zm-13.954 0l-.098-.02-.025.12h.123v-.1zm4.47-2.336l.09.043.046-.095-.097-.04-.039.092zm-.64 2.336v.1h.09l.01-.09-.1-.01zm-6.18 0L8.7 18l-.013.112H8.8v-.1zm8.213-4.306l.07.071.097-.095-.12-.064-.047.088zm-.674.794l-.042.09.073.035.05-.065-.08-.06zm-6.528 3.512v.1H9.9l.012-.085-.099-.015zm18.34-2.337l-.038-.092-.098.04.046.096.09-.044zm.641 2.337l-.1.01.01.09h.09v-.1zm3.83 0v.1h.123l-.025-.12-.098.02zm1.338 0l-.099.014.013.086h.086v-.1zm-6.528-3.513l-.08.06.05.066.073-.035-.043-.09zm-.672-.793l-.047-.088-.12.064.097.095.07-.07zm8.212 4.306v.1h.112L35.072 18l-.1.012zm4.878 2.987v.1h.138l-.043-.131-.095.03zm-.537-1.649l.095-.03-.022-.07h-.073v.1zM3.55 21l-.097-.027-.035.127h.132V21zm.46-1.649v-.1h-.076l-.02.073.096.027zm32.507 20.898l-.099-.019-.001.01v.009h.1zM7.272 40.11l.1-.004v-.008l-.002-.009-.098.021zM3.494 22.337v-.1H3.37l.026.12.098-.02zm36.468 0l.098.019.023-.119h-.12v.1zm-13.904 2.828l.093.036-.093-.036zm.864-.384l-.037.093.018.007h.019v-.1zm-1.448 1.893v.1h.069l.024-.063-.093-.037zm-7.619 0l-.093.037.025.064h.069v-.1zm-.583-1.51l-.093.037.093-.036zm-.864-.383l.035.094h.001l-.036-.094zm-.383.864l.093-.036-.093.036zm.748 1.939l-.093.036.093-.036zm9.783 0l-.093-.036.093.036zm.748-1.94l-.093-.036.093.037zm-.382-.863l.036-.093-.017-.007h-.019v.1zm3.429-16.988h.1-.1zm-2.016 0h.1-.1zM41.324 21.58a.33.33 0 01.017.088h.2a.507.507 0 00-.024-.141l-.193.053zm-.011-.04l.011.04.193-.053a.908.908 0 01-.01-.035l-.194.047zm-.004-.055c0 .006-.002.03.004.054l.194-.047a.041.041 0 01.002.008v-.006l-.2-.01zm.003.007a.048.048 0 01-.003-.013v.006l.2.01c0-.007.003-.036-.007-.066l-.19.063zm-.973-2.987l.973 2.987.19-.062-.973-2.987-.19.062zm-.54-.393c.246 0 .465.16.54.392l.19-.06a.768.768 0 00-.73-.532v.2zm-1.942 0h1.942v-.2h-1.942v.2zm-.1-12.374v12.274h.2V5.738h-.2zm-.002-.004l.002.008v-.004h.2c0-.028-.008-.052-.01-.06l-.192.056zm-.01-.045c.002.02.008.038.01.045l.192-.056-.003-.008c0-.001 0 0 0 0l-.199.02zm-.008-.04a.23.23 0 01.008.04l.2-.018c-.003-.028-.01-.053-.013-.07l-.195.048zm-.004-.017l.004.016.195-.046-.004-.017-.195.047zm-.002-.01l.002.008.195-.043-.002-.008-.195.044zm-.097-.217a.553.553 0 01.097.217l.196-.042a.754.754 0 00-.132-.295l-.16.12zm-.024-.05c.002.003.008.027.024.05l.16-.12a.063.063 0 01.008.014v-.002l-.192.057zm.01.013a.059.059 0 01-.01-.015v-.002.003l.192-.057a.147.147 0 00-.028-.055l-.155.126zm-2.61-3.066l2.61 3.068.153-.13-2.612-3.068-.152.13zm-.434-.202c.166 0 .325.073.433.201l.152-.129a.768.768 0 00-.585-.272v.2zm-25.378 0h25.378v-.2H9.198v.2zm-.434.2a.572.572 0 01.434-.2v-.2a.77.77 0 00-.585.27l.151.13zM6.152 5.369l2.613-3.07-.153-.129L6 5.24l.152.13zm.009-.012l.001-.004a.056.056 0 01-.01.015L6 5.24a.133.133 0 00-.03.06l.19.058zm-.024.052c.016-.023.022-.047.024-.052l-.192-.058v.004c0-.001.001-.006.005-.01l.163.116zm-.094.209a.553.553 0 01.093-.209l-.161-.118a.753.753 0 00-.127.283l.195.044zm-.005.024l.005-.023-.195-.046-.005.022.195.047zm0 0l-.195-.048.194.049zm-.01.05a.336.336 0 01.01-.05l-.195-.047c-.005.02-.012.048-.014.079l.199.018zm-.01.044a.169.169 0 00.01-.045l-.2-.016v-.002l-.001.007.192.056zm.003-.008l-.196-.04.196.04zm-.004.01v.006l.002-.008-.192-.056a.172.172 0 00-.01.058h.2zm0 12.274V5.738h-.2v12.274h.2zm-2.515.1h2.415v-.2H3.502v.2zm-.547.417a.57.57 0 01.547-.417v-.2a.77.77 0 00-.74.563l.193.053zm-.834 2.986l.834-2.986-.193-.054-.834 2.986.193.054zm.001.004v-.01l-.001.006-.193-.053c-.009.031-.006.06-.005.07l.2-.013zm-.001.055a.205.205 0 00.001-.055l-.2.013.001.01v-.002l.198.034zm-.012.05l.012-.05-.197-.034a.346.346 0 01-.008.031l.193.053zm-.009.044c0-.01.002-.02.009-.044l-.193-.053c-.006.021-.016.056-.016.097h.2zm.005.02a.232.232 0 01-.004-.016l-.001-.004h-.2c0 .032.009.06.012.074l.193-.055zm.01.05a.253.253 0 00-.01-.05l-.193.054a.145.145 0 01.005.02l.199-.025zm0 .052c0-.007.004-.03 0-.053l-.198.025v-.006l-.001.007.198.026zm-.003-.004c.002.006.001.01.001.01v-.001l.001-.006-.198-.026c0 .007-.006.034 0 .064l.196-.041zm3.935 18.44l-3.935-18.44-.195.041 3.935 18.441.195-.042zM7.702 41.9a1.655 1.655 0 01-1.652-1.653h-.2c0 1.022.83 1.853 1.852 1.853v-.2zm28.4 0h-28.4v.2h28.4v-.2zm1.64-1.524c.012.777-.724 1.524-1.64 1.524v.2c1.016 0 1.854-.827 1.84-1.727l-.2.003zm3.588-18.6l-3.586 18.58.196.037 3.586-18.58-.196-.037zm-.002.01v.005c0-.003 0-.008.002-.015l.196.037c.006-.03 0-.056-.001-.061l-.197.035zm-.003-.05a.183.183 0 00.003.05l.197-.034v-.004.01l-.2-.023zm.011-.05c-.002.01-.008.028-.01.05l.198.022.005-.017-.193-.055zm.005-.018v.002a.194.194 0 01-.005.015l.193.056c.003-.013.012-.041.012-.073h-.2zm.191-.04v-.001l-.182.081.182-.08zM36.518 6.306H7.254v.2h29.264v-.2zm.1 2.672V6.407h-.2v2.572h.2zm-29.364.1h29.264v-.2H7.254v.2zm-.1-2.672v2.572h.2V6.407h-.2zm27.113-3.169H9.507v.2h24.76v-.2zm1.55 1.766l-1.474-1.73-.152.13 1.474 1.73.153-.13zm-27.784.164h27.708v-.2H8.033v.2zm1.398-1.894l-1.474 1.73.152.13 1.474-1.73-.152-.13zm27.087 6.944H7.254v.2h29.264v-.2zm.1 7.794v-7.694h-.2v7.694h.2zm-.308.1h.208v-.2h-.208v.2zm-6.906-6.306c3.563 0 6.469 2.737 6.807 6.216l.199-.02c-.348-3.578-3.337-6.396-7.006-6.396v.2zm-3.698 1.106a6.809 6.809 0 013.698-1.106v-.2a7.008 7.008 0 00-3.806 1.137l.108.169zm-3.819-1.106c1.368 0 2.638.413 3.71 1.106l.109-.169a7.018 7.018 0 00-3.819-1.137v.2zm-3.712 1.107a6.817 6.817 0 013.712-1.107v-.2c-1.41 0-2.717.426-3.82 1.139l.108.168zm-3.805-1.107a6.79 6.79 0 013.697 1.107l.108-.169a6.989 6.989 0 00-3.805-1.138v.2zm-6.806 6.216c.337-3.48 3.242-6.216 6.806-6.216v-.2c-3.67 0-6.658 2.818-7.005 6.396l.199.02zm-.31.09h.21v-.2h-.21v.2zm-.1-7.794v7.694h.2v-7.694h-.2zm14.733 3.839c2.27 0 4.137 1.686 4.457 3.87l.198-.03c-.334-2.278-2.284-4.04-4.655-4.04v.2zm-4.458 3.87c.32-2.184 2.188-3.87 4.458-3.87v-.2c-2.372 0-4.321 1.762-4.656 4.04l.198.03zm-1.11.085h1.011v-.2h-1.012v.2zm5.568-5.167c-2.93 0-5.327 2.216-5.668 5.055l.198.024c.33-2.741 2.644-4.879 5.47-4.879v-.2zM27.556 18c-.342-2.839-2.738-5.055-5.669-5.055v.2c2.827 0 5.14 2.138 5.47 4.879l.199-.024zm-1.113.112h1.013v-.2h-1.013v.2zm-7.775 0h6.437v-.2h-6.437v.2zm3.219-2.817a3.393 3.393 0 00-3.317 2.696l.196.041a3.193 3.193 0 013.12-2.537v-.2zm3.316 2.696a3.392 3.392 0 00-3.316-2.696v.2a3.19 3.19 0 013.12 2.537l.196-.04zM14.37 15.295a3.393 3.393 0 00-3.317 2.696l.196.041a3.193 3.193 0 013.12-2.537v-.2zm1.29.288c-.405-.168-.835-.288-1.29-.288v.2c.42 0 .823.11 1.213.273l.077-.185zm-.58 2.438c.08-.82.29-1.593.631-2.302l-.18-.087a6.98 6.98 0 00-.65 2.37l.2.02zm-3.929.09h3.83v-.2h-3.83v.2zm3.219-5.166c-2.93 0-5.327 2.216-5.669 5.055l.199.024c.33-2.741 2.643-4.879 5.47-4.879v-.2zm2.69.673a5.689 5.689 0 00-2.69-.673v.2c.919 0 1.801.225 2.597.65l.094-.177zm-.64.942c.21-.277.421-.545.664-.783l-.14-.142a7.123 7.123 0 00-.683.805l.16.12zm-2.05-.403a4.5 4.5 0 011.928.434l.085-.181a4.712 4.712 0 00-2.013-.453v.2zm-4.459 3.87c.321-2.184 2.189-3.87 4.459-3.87v-.2c-2.373 0-4.322 1.762-4.657 4.04l.198.03zm-1.11.085h1.011v-.2H8.801v.2zm19.26-2.393a6.79 6.79 0 01.633 2.303l.199-.02a6.992 6.992 0 00-.651-2.37l-.18.087zm1.343-.424c-.456 0-.886.12-1.29.288l.076.184c.39-.161.793-.272 1.214-.272v-.2zm3.317 2.696a3.393 3.393 0 00-3.317-2.696v.2a3.19 3.19 0 013.12 2.537l.197-.04zm-3.928.12h3.83v-.2h-3.83v.2zm.611-3.954c2.27 0 4.138 1.686 4.458 3.87l.198-.03c-.335-2.278-2.284-4.04-4.656-4.04v.2zm-1.928.433a4.507 4.507 0 011.928-.433v-.2a4.71 4.71 0 00-2.013.452l.085.181zm-.785-.813a6.9 6.9 0 01.663.783l.16-.12a7.098 7.098 0 00-.683-.805l-.14.143zm2.713-.832c-.95 0-1.866.233-2.69.673l.094.176a5.488 5.488 0 012.596-.65v-.2zM35.072 18c-.342-2.839-2.737-5.055-5.668-5.055v.2c2.827 0 5.14 2.138 5.47 4.879l.198-.024zm-1.11.112h1.01v-.2h-1.01v.2zm5.984 2.856l-.537-1.649-.19.062.537 1.649.19-.062zm-36.396.13h36.3v-.2H3.55v.2zm.364-1.775l-.46 1.649.192.054.46-1.649-.192-.054zm35.4-.073H4.01v.2h35.304v-.2zm-3.212 21.512c.284 0 .515-.23.515-.514h-.2a.315.315 0 01-.315.314v.2zm-28.4 0h28.4v-.2h-28.4v.2zm-.53-.649c.008.199.063.36.158.474a.475.475 0 00.372.175v-.2a.275.275 0 01-.219-.103c-.059-.07-.104-.186-.11-.354l-.2.008zM3.396 22.358L7.174 40.13l.196-.042-3.778-17.772-.196.042zm36.566-.12H3.494v.2h36.468v-.2zm-3.347 18.029l3.445-17.911-.196-.038-3.446 17.911.197.038zM26.15 25.2a.567.567 0 01.734-.327l.074-.186a.767.767 0 00-.995.44l.187.073zm-.584 1.51l.584-1.51-.187-.072-.583 1.51.186.072zm-7.712.064h7.619v-.2h-7.619v.2zM17.18 25.2l.583 1.51.187-.072-.584-1.51-.186.072zm-.735-.327a.566.566 0 01.735.327l.186-.072a.766.766 0 00-.994-.44l.073.185zm-.326.735a.567.567 0 01.326-.734l-.072-.187a.767.767 0 00-.44.993l.186-.073zm.749 1.939l-.749-1.94-.186.073.748 1.939.187-.072zm.53.365a.57.57 0 01-.53-.365l-.187.072a.77.77 0 00.717.493v-.2zm8.536 0h-8.536v.2h8.536v-.2zm.53-.365a.569.569 0 01-.53.365v.2a.769.769 0 00.716-.493l-.186-.072zm.748-1.94l-.748 1.94.186.072.749-1.94-.187-.071zm-.325-.733a.566.566 0 01.325.733l.187.073a.766.766 0 00-.44-.993l-.072.187zm.036.006v-.2.2zm6.91-17.857h-1.58v.2h1.58v-.2zm.768.77a.77.77 0 00-.768-.77v.2a.57.57 0 01.568.57h.2zm-.768.768a.77.77 0 00.768-.769h-.2a.57.57 0 01-.568.57v.2zm-1.58 0h1.58v-.2h-1.58v.2zm-.77-.769c0 .424.345.77.77.77v-.2a.57.57 0 01-.57-.57h-.2zm.77-.77a.77.77 0 00-.77.77h.2a.57.57 0 01.57-.57v-.2zm-3.182.77a.57.57 0 01.569-.57v-.2a.77.77 0 00-.769.77h.2zm.569.57a.57.57 0 01-.569-.57h-.2c0 .424.344.77.769.77v-.2zm.088 0h-.088v.2h.088v-.2zm.524-.57c0 .323-.22.57-.524.57v.2c.433 0 .724-.355.724-.77h-.2zm-.612-.57c.321 0 .612.264.612.57h.2c0-.432-.397-.77-.812-.77v.2zm-2.021-.2a.77.77 0 00-.769.77h.2a.57.57 0 01.569-.57v-.2zm.817.77c0-.433-.402-.77-.817-.77v.2c.322 0 .617.265.617.57h.2zm-.72.77c.434 0 .72-.356.72-.77h-.2c0 .324-.216.57-.52.57v.2zm-.098 0h.098v-.2h-.098v.2zm-.768-.77c0 .424.344.77.768.77v-.2a.57.57 0 01-.568-.57h-.2z" fill="#F4F4F4"/></g><defs><clipPath id="clip0_1450_3905"><path fill="#fff" d="M0 0h44v44H0z"/></clipPath></defs></svg>