<svg width="44" height="44" fill="none" xmlns="http://www.w3.org/2000/svg"><g clip-path="url(#clip0_1450_3834)"><path fill="#F4F4F4" d="M0 0h44v44H0z"/><path fill="#F4F4F4" d="M0 0h44v44H0z"/><path d="M7.559 8.132h5.256V5.227H7.56v2.905zm1.116-1.808H11.7v.692H8.675v-.692zm.505 27.301h25.413V18.99H9.18v14.634zm1.136-13.497h23.141v12.35H10.316v-12.35zm25.829-6.315H7.678v3.42h28.467v-3.42zm-1.117 2.283H8.794V14.91h26.234v1.186zM16.66 5.227a2.47 2.47 0 100 4.94 2.47 2.47 0 000-4.94zm0 3.814a1.354 1.354 0 111.353-1.344 1.344 1.344 0 01-1.353 1.295v.05zm5.494-3.814a2.47 2.47 0 10-.02 4.94 2.47 2.47 0 00.02-4.94zm0 3.814a1.353 1.353 0 111.354-1.344 1.344 1.344 0 01-1.354 1.295v.05zm5.494-3.814a2.47 2.47 0 102.46 2.47 2.46 2.46 0 00-2.46-2.47zm0 3.814a1.354 1.354 0 111.344-1.344 1.344 1.344 0 01-1.344 1.295v.05zm5.492-3.814a2.47 2.47 0 102.46 2.47 2.46 2.46 0 00-2.46-2.47zm0 3.814a1.354 1.354 0 111.344-1.344 1.353 1.353 0 01-1.344 1.295v.05z" fill="#C40E38"/><path d="M39.316 36.57V4.476a2.233 2.233 0 00-2.144-2.075h-2.124V0H31.43v1.205h2.372v1.157H29.85V.514h-1.235v1.848h-3.952V1.275h2.371V0h-3.616v2.371h-3.36V0h-3.616v1.205h2.361v1.157h-3.952V.514h-1.225v1.848H9.673V1.275h2.382V0H8.438v2.401H7.035a2.045 2.045 0 00-1.838 1.127 3.32 3.32 0 00-.306 1.432v36.906A2.144 2.144 0 007.035 44h30.028a2.144 2.144 0 002.145-2.134v-5.297h.108zm-1.294 5.296a.85.85 0 01-.85.85H7.144a.86.86 0 01-.86-.85v-4.318h31.738v4.318zm.05-5.534H6.253V12.677H38.07v23.655zm0-24.95H6.224v-6.6A1.047 1.047 0 017.39 3.616h29.524a1.057 1.057 0 011.176 1.166v6.6h-.02z" fill="#C40E38"/><path d="M22.55 22.509a.473.473 0 00-.811 0c-.395.484-.77.988-1.137 1.502a17.016 17.016 0 00-1.887 3.33 3.548 3.548 0 001.403 4.258.681.681 0 00.386.139c0-.257-.119-1.571 1.541-3.953.05-.059.09-.128.138-.197 1.74 2.371 1.68 3.735 1.621 4.1.09.023.186.023.277 0a3.488 3.488 0 001.58-4.041 18.508 18.508 0 00-3.112-5.138zm1.975 7.381a11.59 11.59 0 00-1.838-3.083c-.335-.444-.652-.444-.988 0a11.446 11.446 0 00-1.877 3.123 2.362 2.362 0 01-.247-1.917 13.676 13.676 0 011.818-3.28c.227-.347.494-.683.77-1.078a15.147 15.147 0 012.688 4.664 2.184 2.184 0 01-.355 1.61l.03-.039z" fill="#C40E38"/></g><defs><clipPath id="clip0_1450_3834"><path fill="#fff" d="M0 0h44v44H0z"/></clipPath></defs></svg>