<svg width="44" height="44" fill="none" xmlns="http://www.w3.org/2000/svg"><g clip-path="url(#clip0_1450_3895)"><path fill="#F4F4F4" d="M0 0h44v44H0z"/><path fill="#F4F4F4" d="M0 0h44v44H0z"/><path d="M14.7 13.2a2.5 2.5 0 10.021-4.999 2.5 2.5 0 00-.02 5zm-1.32-2.49a1.37 1.37 0 111.36 1.36 1.36 1.36 0 01-1.36-1.36zm8.88 2.49a2.5 2.5 0 10.02-4.998 2.5 2.5 0 00-.02 4.998zm-1.36-2.49a1.37 1.37 0 111.36 1.36 1.36 1.36 0 01-1.36-1.36zm8.92 2.49a2.5 2.5 0 10.12-4.999 2.5 2.5 0 00-.12 4.999zm-1.36-2.49a1.37 1.37 0 111.36 1.36 1.36 1.36 0 01-1.36-1.36zM9.81 35.13h24.91v-13H9.81v13zm23.78-12v10.95H10.94V23.16l22.65-.03zM7.86 20.8h28.81v-3.46H7.86v3.46zm27.68-2.34v1.21H8.99v-1.21h26.55z" fill="#C40E38"/><path d="M37.38 5H7.14A2.14 2.14 0 005 7.14v30.24a2.14 2.14 0 002.14 2.14h30.24a2.14 2.14 0 002.14-2.14V7.14A2.14 2.14 0 0037.38 5zM7.14 6.2h30.24a1 1 0 011 .94v7.28H6.2V7.14a.94.94 0 01.94-.94zm30.24 32.12H7.14a.94.94 0 01-.94-.94V15.73h32.18v21.65a1 1 0 01-1 .94z" fill="#C40E38"/></g><defs><clipPath id="clip0_1450_3895"><path fill="#fff" d="M0 0h44v44H0z"/></clipPath></defs></svg>