<svg width="44" height="44" fill="none" xmlns="http://www.w3.org/2000/svg"><g clip-path="url(#clip0_1450_3860)"><path fill="#F4F4F4" d="M0 0h44v44H0z"/><path fill="#F4F4F4" d="M0 0h44v44H0z"/><path d="M8.57 33.36h26.074V18.352H8.57V33.36zm24.898-13.843v12.667H9.736V19.517h23.732zM18.906 7.215h5.402v-2.98h-5.402v2.98zm4.256-1.854v.709h-3.07v-.71h3.07zm-8.998-1.125a2.533 2.533 0 100 5.067 2.533 2.533 0 000-5.067zm1.389 2.533a1.389 1.389 0 11-1.389-1.388 1.378 1.378 0 011.389 1.338v.05zM29.04 4.236a2.533 2.533 0 100 5.066 2.533 2.533 0 000-5.066zm1.388 2.533a1.389 1.389 0 110-.05v.05zm5.522 6.273H6.757v3.506H35.95v-3.506zm-28.019 2.34v-1.215h26.905v1.216H7.931z" fill="#C40E38"/><path d="M39.203 36.42V3.466a2.27 2.27 0 00-2.189-2.128h-2.178V0H22.959v1.297h-3.486V0H7.637v1.338H6.218a2.027 2.027 0 00-1.884 1.155 3.417 3.417 0 00-.315 1.48V36.51a2.472 2.472 0 000 .274v5.067a2.189 2.189 0 002.19 2.189h30.805a2.199 2.199 0 002.2-2.19v-5.066c-.01-.122-.01-.243-.01-.365zm-1.327.963v4.428a.882.882 0 01-.872.872H6.198a.882.882 0 01-.871-.872v-4.428h32.549zm-32.58-1.247v-24.26h32.63v24.26H5.296zm32.65-27.685v2.098H5.267V3.78a1.074 1.074 0 011.196-1.195H36.74a1.084 1.084 0 011.206 1.196V8.45z" fill="#C40E38"/></g><defs><clipPath id="clip0_1450_3860"><path fill="#fff" d="M0 0h44v44H0z"/></clipPath></defs></svg>