<svg width="40" height="40" fill="none" xmlns="http://www.w3.org/2000/svg"><path d="M0 19.2C0 10.149 0 5.624 2.812 2.812 5.624 0 10.149 0 19.2 0h1.6c9.051 0 13.576 0 16.388 2.812C40 5.624 40 10.149 40 19.2v1.6c0 9.051 0 13.576-2.812 16.388C34.376 40 29.851 40 20.8 40h-1.6c-9.051 0-13.576 0-16.388-2.812C0 34.376 0 29.851 0 20.8v-1.6z" fill="#fff"/><path d="M14.582 20l5.417 3.792L25.415 20" stroke="#232323" stroke-width="2" stroke-linecap="round" stroke-linejoin="round"/><path d="M9.168 28.833V16.8a2 2 0 01.971-1.715l8.833-5.3a2 2 0 012.058 0l8.834 5.3a2 2 0 01.97 1.715v12.034a2 2 0 01-2 2H11.169a2 2 0 01-2-2z" stroke="#232323" stroke-width="2"/></svg>