<svg width="608" height="196" fill="none" xmlns="http://www.w3.org/2000/svg"><path d="M229.629 154.011h5.306v28.57h-5.306v-28.57zm-14.774 28.57h-5.306v-28.57h5.306v28.57zm15.182-12.244h-15.631v-4.53h15.631v4.53zm22.503 12.53c-2.421 0-4.543-.476-6.366-1.429-1.796-.979-3.198-2.313-4.204-4-.98-1.686-1.47-3.605-1.47-5.754 0-2.177.477-4.095 1.429-5.755a10.538 10.538 0 014-3.959c1.714-.952 3.659-1.428 5.836-1.428 2.122 0 4.013.462 5.673 1.387 1.66.925 2.966 2.231 3.918 3.918.953 1.687 1.429 3.674 1.429 5.959 0 .218-.014.463-.041.735 0 .272-.014.53-.041.775h-18.162v-3.387h15.468l-1.999 1.061c.027-1.252-.232-2.354-.776-3.306a5.924 5.924 0 00-2.245-2.245c-.925-.544-2-.816-3.224-.816-1.252 0-2.354.272-3.306.816-.925.544-1.66 1.306-2.204 2.286-.517.952-.775 2.081-.775 3.387v.817c0 1.306.299 2.462.898 3.469.598 1.007 1.442 1.782 2.53 2.326 1.088.544 2.34.816 3.755.816 1.224 0 2.326-.19 3.306-.571.979-.381 1.85-.979 2.612-1.796l2.734 3.143c-.979 1.143-2.217 2.027-3.714 2.653-1.469.598-3.156.898-5.061.898zm19.558-.286v-18.693l1.184 1.225h-8.857v-4.327h20.407v4.327h-8.816l1.184-1.225v18.693h-5.102zm41.55.408h-1.265c-4.598-.054-8.163-1.047-10.693-2.979-2.531-1.959-3.796-4.748-3.796-8.367 0-3.592 1.265-6.34 3.796-8.245 2.53-1.904 6.135-2.884 10.815-2.938h1.184c4.707 0 8.367.966 10.979 2.898 2.639 1.904 3.959 4.666 3.959 8.285 0 3.646-1.32 6.449-3.959 8.408-2.612 1.959-6.285 2.938-11.02 2.938zm-.163-4.244c2.313 0 4.217-.259 5.714-.776 1.496-.544 2.612-1.333 3.347-2.367.734-1.061 1.102-2.381 1.102-3.959 0-1.551-.368-2.83-1.102-3.837-.735-1.034-1.851-1.795-3.347-2.285-1.497-.517-3.401-.776-5.714-.776h-.776c-2.258 0-4.108.272-5.55.817-1.442.517-2.517 1.278-3.225 2.285-.68 1.007-1.02 2.272-1.02 3.796 0 1.551.34 2.843 1.02 3.877.708 1.034 1.783 1.823 3.225 2.367 1.469.545 3.319.83 5.55.858h.776zm-2.653 11.754v-38.202h4.816v38.202h-4.816zm32.453-7.632c-2.231 0-4.217-.476-5.959-1.429a10.98 10.98 0 01-4.122-4c-1.007-1.686-1.51-3.605-1.51-5.754 0-2.177.503-4.095 1.51-5.755a10.679 10.679 0 014.122-3.959c1.742-.952 3.728-1.428 5.959-1.428 2.259 0 4.258.476 6 1.428 1.768.952 3.143 2.258 4.122 3.918 1.007 1.66 1.51 3.592 1.51 5.796 0 2.149-.503 4.068-1.51 5.754-.979 1.687-2.354 3.021-4.122 4-1.742.953-3.741 1.429-6 1.429zm0-4.367c1.252 0 2.367-.272 3.347-.817.979-.544 1.741-1.333 2.286-2.367.571-1.034.857-2.245.857-3.632 0-1.415-.286-2.626-.857-3.633-.545-1.034-1.307-1.823-2.286-2.367-.98-.544-2.082-.816-3.306-.816-1.252 0-2.367.272-3.347.816-.952.544-1.714 1.333-2.285 2.367-.572 1.007-.857 2.218-.857 3.633 0 1.387.285 2.598.857 3.632.571 1.034 1.333 1.823 2.285 2.367.98.545 2.082.817 3.306.817zm20.405 4.081v-18.693l1.184 1.225h-8.857v-4.327h20.407v4.327h-8.816l1.184-1.225v18.693h-5.102zm25.192.286c-2.231 0-4.217-.476-5.959-1.429a10.98 10.98 0 01-4.122-4c-1.007-1.686-1.51-3.605-1.51-5.754 0-2.177.503-4.095 1.51-5.755a10.679 10.679 0 014.122-3.959c1.742-.952 3.728-1.428 5.959-1.428 2.258 0 4.258.476 6 1.428 1.768.952 3.142 2.258 4.122 3.918 1.007 1.66 1.51 3.592 1.51 5.796 0 2.149-.503 4.068-1.51 5.754-.98 1.687-2.354 3.021-4.122 4-1.742.953-3.742 1.429-6 1.429zm0-4.367c1.252 0 2.367-.272 3.347-.817.979-.544 1.741-1.333 2.285-2.367.572-1.034.857-2.245.857-3.632 0-1.415-.285-2.626-.857-3.633-.544-1.034-1.306-1.823-2.285-2.367-.98-.544-2.082-.816-3.306-.816-1.252 0-2.367.272-3.347.816-.952.544-1.714 1.333-2.285 2.367-.572 1.007-.858 2.218-.858 3.633 0 1.387.286 2.598.858 3.632.571 1.034 1.333 1.823 2.285 2.367.98.545 2.082.817 3.306.817zM302.556 34.9c-16.316 0-29.576 13.259-29.576 29.575s13.26 29.575 29.576 29.575c16.316 0 29.575-13.26 29.575-29.575 0-16.316-13.259-29.576-29.575-29.576zm0 49.292c-10.894 0-19.717-8.823-19.717-19.717 0-10.894 8.823-19.717 19.717-19.717 10.894 0 19.717 8.823 19.717 19.717 0 10.894-8.823 19.717-19.717 19.717z" fill="#DCDCDC"/><path d="M356.777 19.717h-21.589L329.42 8.183C326.856 3.154 321.78 0 316.111 0H289c-5.668 0-10.745 3.154-13.259 8.183l-5.817 11.534h-21.589c-8.134 0-14.788 6.654-14.788 14.788v64.08c0 8.133 6.654 14.787 14.788 14.787h108.442c8.134 0 14.788-6.654 14.788-14.788v-64.08c0-8.133-6.655-14.787-14.788-14.787zm4.929 78.867a4.944 4.944 0 01-4.929 4.93H248.334a4.944 4.944 0 01-4.929-4.93v-64.08a4.944 4.944 0 014.929-4.929h24.646c.247 0 .444-.099.69-.147.346-.05.69-.1 1.036-.197.296-.1.542-.296.838-.444.246-.147.542-.295.789-.542.246-.246.443-.542.64-.838.148-.197.346-.346.444-.543l7.147-14.245c.838-1.725 2.514-2.76 4.436-2.76h27.111c1.922 0 3.598 1.035 4.486 2.76l7.147 14.245c.247.444.543.887.887 1.232.05.05.148.1.247.198.345.345.739.591 1.182.788.148.05.296.148.444.197.494.149 1.035.296 1.627.296h24.646a4.944 4.944 0 014.929 4.93v64.08z" fill="#DCDCDC"/></svg>