<svg width="34" height="34" fill="none" xmlns="http://www.w3.org/2000/svg"><g clip-path="url(#clip0_963_2634)"><path fill="#232323" d="M0 0h34v34H0z"/><path fill="#232323" d="M0 0h44v44H0z"/><path d="M31.66 25.763l-9.003-5.672h-.054V4.211a1.893 1.893 0 00-1.894-1.893h-7.727a1.893 1.893 0 00-1.893 1.893v15.857l-8.7 5.672h-.047v5.308h29.363v-5.285h-.046zM12.99 3.246h7.727a.974.974 0 01.966.965v15.772h-9.659V4.21a.974.974 0 01.966-.965zM4.173 25.655l7.28-4.745H22.27l7.295 4.636.24.147.13.085H4.08l.093-.123zm26.59 4.466H3.246v-3.43h27.517v3.43z" fill="#7A7A7A"/><path d="M7.782 28.815a.672.672 0 00-.147-.943.68.68 0 00-.943.155.672.672 0 001.09.773v.015zm2.618 0a.68.68 0 00-.154-.943.672.672 0 00-.773 1.09.68.68 0 00.928-.147zm2.612 0a.68.68 0 00-.155-.943.672.672 0 00-.772 1.09.68.68 0 00.927-.147z" fill="#7A7A7A"/></g><defs><clipPath id="clip0_963_2634"><path fill="#fff" d="M0 0h34v34H0z"/></clipPath></defs></svg>