<svg width="34" height="34" fill="none" xmlns="http://www.w3.org/2000/svg"><g clip-path="url(#clip0_1036_3736)"><path fill="#232323" d="M0 0h34v34H0z"/><path fill="#232323" d="M0 0h44v44H0z"/><path d="M11.358 10.2a1.932 1.932 0 10.015-3.864 1.932 1.932 0 00-.015 3.864zm-1.02-1.924a1.06 1.06 0 111.05 1.05 1.051 1.051 0 01-1.05-1.05zm6.863 1.924a1.932 1.932 0 10.016-3.864A1.932 1.932 0 0017.2 10.2zm-1.05-1.924a1.06 1.06 0 111.05 1.05 1.051 1.051 0 01-1.05-1.05zm6.891 1.924a1.932 1.932 0 10.092-3.863 1.932 1.932 0 00-.092 3.863zM21.99 8.276a1.06 1.06 0 111.05 1.05 1.051 1.051 0 01-1.05-1.05zM7.582 27.146h19.249V17.1H7.582v10.046zm18.375-9.273v8.462H8.456v-8.439l17.502-.023zm-19.883-1.8h22.263v-2.674H6.073v2.674zm21.39-1.809v.936H6.946v-.935h20.516z" fill="#fff"/><path d="M28.884 3.864H5.517a1.654 1.654 0 00-1.654 1.653v23.368a1.654 1.654 0 001.654 1.653h23.367a1.653 1.653 0 001.654-1.653V5.517a1.654 1.654 0 00-1.654-1.653zM5.517 4.79h23.367a.773.773 0 01.773.726v5.626H4.79V5.517a.726.726 0 01.726-.726zm23.367 24.82H5.517a.726.726 0 01-.726-.726v-16.73h24.866v16.73a.772.772 0 01-.773.726z" fill="#fff"/></g><defs><clipPath id="clip0_1036_3736"><path fill="#fff" d="M0 0h34v34H0z"/></clipPath></defs></svg>