<svg width="34" height="34" fill="none" xmlns="http://www.w3.org/2000/svg"><g clip-path="url(#clip0_1036_3711)"><path fill="#232323" d="M0 0h34v34H0z"/><path fill="#232323" d="M0 0h44v44H0z"/><path d="M11.182 15.64a1.932 1.932 0 100 3.864 1.932 1.932 0 000-3.864zm-.41.958v1.94a1.05 1.05 0 010-1.94zm.866 0a1.044 1.044 0 01.602.943 1.058 1.058 0 01-.602.95v-1.893zm11.313-.958a1.932 1.932 0 100 3.863 1.932 1.932 0 000-3.863zm-.432.966v1.916a1.051 1.051 0 010-1.916zm.873 0a1.051 1.051 0 010 1.916v-1.916z" fill="#fff"/><path d="M30.685 15.084a1.73 1.73 0 00-1.67-1.615h-1.66V11.59h-2.829v.943h1.847v.904h-3.091v-1.445h-.966v1.445h-3.09v-.889h1.861v-.958H18.26v1.854h-2.635V11.59h-2.828v.943h1.847v.904h-3.091v-1.445h-.858v1.445h-3.09v-.889h1.862v-.958h-2.83v1.878H5.54a1.546 1.546 0 00-1.43.88c-.165.35-.25.734-.247 1.121v6.09h1.051v1.282h2.628v-1.345h19.534v1.283h2.627v-1.283h.982v-5.965a2.165 2.165 0 000-.448zM4.814 20.493v-5.162a.811.811 0 01.912-.912h23.089a.827.827 0 01.912.912v5.154l-24.913.008zm1.878 1.445h-.928v-.433h.928v.433zm22.161 0h-.927v-.433h.927v.433z" fill="#fff"/></g><defs><clipPath id="clip0_1036_3711"><path fill="#fff" d="M0 0h34v34H0z"/></clipPath></defs></svg>