<svg width="34" height="34" fill="none" xmlns="http://www.w3.org/2000/svg"><g clip-path="url(#clip0_963_2591)"><path fill="#232323" d="M0 0h34v34H0z"/><path fill="#232323" d="M0 0h44v44H0z"/><path d="M5.842 6.284h4.062V4.039H5.842v2.245zm.863-1.397H9.04v.534H6.705v-.534zm.389 21.096h19.638V14.675H7.094v11.308zm.878-10.43h17.882v9.544H7.972v-9.544zm19.958-4.879H5.935v2.642H27.93v-2.642zm-.862 1.764H6.796v-.916h20.272v.916zM12.874 4.04a1.909 1.909 0 100 3.816 1.909 1.909 0 000-3.817zm0 2.946a1.046 1.046 0 111.046-1.038 1.038 1.038 0 01-1.046 1v.038zm4.244-2.946a1.909 1.909 0 10-.016 3.817 1.909 1.909 0 00.016-3.818zm0 2.946a1.046 1.046 0 111.046-1.038 1.038 1.038 0 01-1.046 1v.038zm4.246-2.946a1.909 1.909 0 101.758 1.178 1.902 1.902 0 00-1.758-1.179zm0 2.946a1.046 1.046 0 111.038-1.038 1.038 1.038 0 01-1.038 1v.038zM25.61 4.04a1.909 1.909 0 101.759 1.178 1.902 1.902 0 00-1.76-1.179zm0 2.946a1.046 1.046 0 111.038-1.038 1.046 1.046 0 01-1.038 1v.038z" fill="#7A7A7A"/><path d="M30.38 28.258V3.459a1.725 1.725 0 00-1.656-1.604h-1.642V0h-2.794v.932h1.832v.893h-3.054V.397h-.954v1.428h-3.054v-.84h1.832V0h-2.794v1.832H15.5V0h-2.795v.932h1.825v.893h-3.054V.397h-.947v1.428H7.475v-.84h1.84V0H6.521v1.855H5.436a1.58 1.58 0 00-1.42.87c-.16.348-.241.726-.237 1.108V32.35A1.657 1.657 0 005.436 34H28.64a1.657 1.657 0 001.657-1.65v-4.092h.084zm-1 4.093a.657.657 0 01-.656.656H5.52a.664.664 0 01-.664-.656v-3.337h24.525v3.337zm.039-4.276H4.833V9.796H29.42v18.279zm0-19.28H4.81v-5.1a.81.81 0 01.901-.9h22.814a.817.817 0 01.91.9v5.1h-.016z" fill="#7A7A7A"/><path d="M17.423 17.393a.367.367 0 00-.626 0c-.305.374-.595.764-.878 1.16-.581.8-1.07 1.664-1.458 2.574a2.74 2.74 0 001.084 3.29c.086.066.19.103.298.108 0-.199-.092-1.214 1.19-3.054.039-.046.07-.1.108-.153 1.344 1.832 1.298 2.886 1.252 3.168a.45.45 0 00.214 0 2.695 2.695 0 001.221-3.122 14.302 14.302 0 00-2.405-3.97zm1.527 5.704a8.956 8.956 0 00-1.42-2.382c-.26-.344-.504-.344-.763 0a8.841 8.841 0 00-1.451 2.412 1.825 1.825 0 01-.191-1.48 10.57 10.57 0 011.405-2.536c.175-.267.382-.527.595-.832a11.707 11.707 0 012.077 3.604c.075.435-.024.881-.275 1.244l.023-.03z" fill="#7A7A7A"/></g><defs><clipPath id="clip0_963_2591"><path fill="#fff" d="M0 0h34v34H0z"/></clipPath></defs></svg>