<svg width="34" height="34" fill="none" xmlns="http://www.w3.org/2000/svg"><g clip-path="url(#clip0_1036_3675)"><path fill="#232323" d="M0 0h34v34H0z"/><path fill="#232323" d="M0 0h44v44H0z"/><path d="M5.84 6.284h4.062V4.039H5.84v2.245zm.863-1.397h2.336v.534H6.703v-.534zm.391 21.096h19.638V14.675H7.094v11.308zm.878-10.43h17.882v9.544H7.972v-9.544zm19.958-4.879H5.935v2.642H27.93v-2.642zm-.862 1.764H6.796v-.916h20.272v.916zM12.874 4.04a1.909 1.909 0 100 3.816 1.909 1.909 0 000-3.817zm0 2.946a1.046 1.046 0 111.046-1.038 1.038 1.038 0 01-1.046 1v.038zM17.12 4.04a1.909 1.909 0 10-.016 3.817 1.909 1.909 0 00.016-3.818zm0 2.946a1.046 1.046 0 111.046-1.038 1.038 1.038 0 01-1.046 1v.038zm4.246-2.946a1.909 1.909 0 101.758 1.178 1.899 1.899 0 00-1.758-1.179zm0 2.946a1.046 1.046 0 111.038-1.038 1.039 1.039 0 01-1.038 1v.038zm4.242-2.946a1.909 1.909 0 101.758 1.178 1.9 1.9 0 00-1.758-1.179zm0 2.946a1.046 1.046 0 111.038-1.038 1.046 1.046 0 01-1.038 1v.038z" fill="#fff"/><path d="M30.383 28.258V3.459a1.726 1.726 0 00-1.657-1.604h-1.642V0H24.29v.932h1.832v.893h-3.054V.397h-.954v1.428H19.06v-.84h1.832V0h-2.794v1.832h-2.596V0h-2.795v.932h1.825v.893h-3.054V.397h-.947v1.428H7.477v-.84h1.84V0H6.523v1.855H5.438a1.58 1.58 0 00-1.42.87c-.16.348-.241.726-.237 1.108V32.35A1.657 1.657 0 005.438 34h23.204a1.657 1.657 0 001.657-1.65v-4.092h.084zm-1 4.093a.657.657 0 01-.657.656H5.522a.664.664 0 01-.664-.656v-3.337h24.525v3.337zm.038-4.276H4.835V9.796h24.586v18.279zm0-19.28H4.812v-5.1a.81.81 0 01.901-.9h22.814a.817.817 0 01.909.9v5.1h-.015z" fill="#fff"/><path d="M17.425 17.393a.367.367 0 00-.626 0 22.32 22.32 0 00-.878 1.16c-.581.8-1.07 1.664-1.458 2.574a2.74 2.74 0 001.084 3.29c.086.066.19.103.298.108 0-.199-.092-1.214 1.19-3.054.039-.046.07-.1.108-.153 1.343 1.832 1.298 2.886 1.252 3.168a.45.45 0 00.214 0 2.695 2.695 0 001.221-3.122 14.3 14.3 0 00-2.405-3.97zm1.527 5.704a8.958 8.958 0 00-1.42-2.382c-.26-.344-.504-.344-.764 0a8.841 8.841 0 00-1.45 2.412 1.826 1.826 0 01-.191-1.48c.35-.906.822-1.76 1.405-2.536.175-.267.382-.527.595-.832a11.705 11.705 0 012.077 3.604c.075.435-.024.881-.275 1.244l.023-.03z" fill="#fff"/></g><defs><clipPath id="clip0_1036_3675"><path fill="#fff" d="M0 0h34v34H0z"/></clipPath></defs></svg>