<svg width="34" height="34" fill="none" xmlns="http://www.w3.org/2000/svg"><g clip-path="url(#clip0_963_2662)"><path fill="#232323" d="M0 0h34v34H0z"/><path fill="#232323" d="M0 0h44v44H0z"/><path fill-rule="evenodd" clip-rule="evenodd" d="M32.022 16.743c0-.03-.008-.06-.016-.088l-.004-.014-.004-.015a.075.075 0 010-.02c0-.008 0-.016-.002-.023l-.752-2.308a.516.516 0 00-.49-.357h-1.502V4.434a.1.1 0 00-.004-.025l-.005-.02a.204.204 0 00-.008-.043.506.506 0 00-.093-.216c-.003-.004-.004-.01-.006-.015-.002-.005-.003-.01-.007-.016L27.11 1.73a.516.516 0 00-.394-.184H7.107a.52.52 0 00-.394.182l-2.018 2.37a.046.046 0 00-.009.02.056.056 0 01-.007.016.505.505 0 00-.085.19l-.004.017c-.004.017-.008.033-.01.05 0 .007-.002.013-.004.02a.081.081 0 00-.004.023v9.484H2.706a.517.517 0 00-.498.379l-.644 2.308a.085.085 0 00-.002.028.07.07 0 010 .025l-.007.031c-.005.018-.01.035-.01.054 0 .013.003.025.007.037a.177.177 0 01.006.026l-.001.021a.068.068 0 000 .023l3.04 14.25c0 .747.607 1.355 1.354 1.355h21.946c.746 0 1.354-.608 1.344-1.257l2.77-14.357c.002-.006.001-.013 0-.02a.057.057 0 01-.002-.017l.006-.026a.123.123 0 00.007-.035zM5.605 4.951h22.613v1.987H5.605V4.951zm1.74-2.371h19.133l1.14 1.336H6.207L7.346 2.58zm-1.74 5.393h22.613v5.945h-.16c-.265-2.726-2.543-4.872-5.337-4.872a5.338 5.338 0 00-2.9.866 5.345 5.345 0 00-2.909-.866 5.347 5.347 0 00-2.91.867 5.323 5.323 0 00-2.898-.867c-2.795 0-5.072 2.146-5.337 4.872h-.162V7.973zm14.828 5.945c-.253-1.724-1.728-3.056-3.52-3.056-1.794 0-3.269 1.332-3.522 3.056h-.782c.26-2.155 2.079-3.838 4.303-3.838 2.225 0 4.044 1.682 4.304 3.838h-.783zm-1.034 0h-4.974a2.545 2.545 0 012.487-2.022c1.224 0 2.247.87 2.487 2.022zm-10.783 0a2.545 2.545 0 012.487-2.022c.338 0 .66.09.967.217a5.317 5.317 0 00-.494 1.805h-2.96zm-1.816 0c.26-2.155 2.079-3.838 4.303-3.838.723 0 1.418.177 2.043.511a5.424 5.424 0 00-.52.614 3.563 3.563 0 00-1.523-.343c-1.793 0-3.268 1.332-3.521 3.056H6.8zm15.449 0a5.324 5.324 0 00-.496-1.805c.307-.128.63-.217.968-.217 1.223 0 2.247.87 2.487 2.022h-2.96zm3.993 0c-.253-1.724-1.728-3.056-3.521-3.056-.532 0-1.05.119-1.523.342a5.408 5.408 0 00-.52-.613 4.318 4.318 0 012.043-.51c2.224 0 4.043 1.681 4.303 3.837h-.782zm4.136 1.034l.415 1.274H2.743l.355-1.274h27.28zm-2.161 16.149a.32.32 0 01-.32.32H5.95c-.177 0-.32-.144-.332-.428l-2.92-13.732h28.18L28.217 31.1zm-7.414-11.952a.516.516 0 00-.668.296l-.451 1.167h-5.887l-.451-1.166a.515.515 0 10-.964.37l.579 1.498c.077.2.268.332.482.332h6.595a.517.517 0 00.482-.332l.578-1.498a.515.515 0 00-.295-.667zM24.92 5.505h1.221a.517.517 0 010 1.034H24.92a.517.517 0 010-1.034zm-2.019 0a.517.517 0 000 1.034h.068c.285 0 .483-.232.483-.517 0-.285-.266-.517-.551-.517zm-2.078.517c0-.285.231-.517.516-.517.285 0 .554.232.555.517 0 .285-.194.517-.479.517h-.076a.517.517 0 01-.516-.517z" fill="#7A7A7A"/><path d="M32.006 16.655l-.096.027.096-.027zm.016.088l-.091.042.191-.042h-.1zm-.02-.102l-.097.025v.002l.097-.027zm-.004-.015l-.097.023v.002l.097-.025zm0-.02l.1.004-.1-.004zm-.002-.023l-.095.031.095-.03zm-.752-2.308l-.095.03v.001l.095-.03zm-1.992-.357h-.1v.1h.1v-.1zm-.004-9.509l-.096.028.096-.028zm-.005-.02l-.1.009.1-.01zm-.008-.043l.097-.023V4.32l-.097.025zm0 0l-.097.024v.002l.097-.026zm-.004-.018l.098-.021-.098.021zm-.089-.198l-.08.06.08-.06zm-.006-.015l-.096.029.096-.029zm-.007-.016l.077-.063-.001-.001-.076.064zM27.11 1.73l-.076.064.076-.065zM6.713 1.726l-.076-.065.076.065zM4.695 4.098l-.076-.065.076.065zm-.009.02l.095.03v-.002l-.095-.029zm0 0l-.095-.033v.003l.095.03zm-.007.016l.08.06v-.001l-.08-.059zm-.085.19l.097.023v-.001l-.097-.022zm-.004.017l.097.024-.097-.024zm-.01.05l-.1-.009v.001l.1.008zm-.004.02l.096.028-.096-.028zm-.004 9.507v.1h.1v-.1h-.1zm-2.364.379l-.096-.027.096.027zm-.644 2.308l-.097-.027.097.027zm-.002.028l.1-.006-.1.006zm0 .025l-.098-.018.098.018zm-.007.031l-.097-.026.097.026zm0 0l.096.027v-.002l-.096-.025zm-.003.09l.096-.027-.096.027zm.006.027l-.1.012v.001l.1-.013zm-.001.021l-.1-.013.1.013zm0 .023l-.099.021.098-.02zm3.04 14.25h.1v-.01l-.002-.01-.098.02zm24.644.098l-.098-.019-.002.01v.01h.1zm2.77-14.357l.1.02-.1-.02zm0-.02l-.099.018.099-.017zm-.002-.017l.1.012-.1-.012zm.006-.026l.097.028.002-.008-.099-.02zm0 0l-.096-.027-.002.008.098.02zm.007-.035l.091-.041-.191.041h.1zM28.218 4.951h.1v-.1h-.1v.1zm-22.613 0v-.1h-.1v.1h.1zm22.613 1.987v.1h.1v-.1h-.1zm-22.613 0h-.1v.1h.1v-.1zM26.478 2.58l.076-.065-.03-.035h-.046v.1zm-19.132 0v-.1h-.047l-.03.035.077.065zm20.272 1.336v.1h.216l-.14-.164-.076.064zm-21.411 0l-.076-.064-.14.164h.216v-.1zm22.011 4.057h.1v-.1h-.1v.1zm-22.613 0v-.1h-.1v.1h.1zm22.613 5.945v.1h.1v-.1h-.1zm-.16 0l-.1.01.009.09h.09v-.1zM19.82 9.912l-.054.084.054.035.054-.035-.054-.084zm-5.819 0l-.054.085.054.035.054-.035-.054-.084zm-8.235 4.006v.1h.091l.009-.09-.1-.01zm-.162 0h-.1v.1h.1v-.1zm14.828 0l-.099.015.013.085h.086v-.1zm-7.042 0v.1h.086l.013-.085-.1-.015zm-.782 0l-.1-.012-.013.112h.113v-.1zm8.607 0v.1h.112l-.013-.112-.1.012zm-6.791 0l-.098-.02-.025.12h.123v-.1zm4.974 0v.1h.123l-.025-.12-.098.02zm-10.783 0l-.098-.02-.025.12h.123v-.1zm3.454-1.805l.09.043.046-.095-.097-.04-.039.092zm-.494 1.805v.1h.09l.01-.09-.1-.01zm-4.776 0l-.1-.012-.013.112H6.8v-.1zm6.346-3.327l.07.071.098-.095-.12-.064-.048.088zm-.52.614l-.043.09.074.035.049-.065-.08-.06zm-5.044 2.713v.1h.086l.013-.085-.1-.015zm14.171-1.805l-.038-.093-.098.04.046.096.09-.043zm.496 1.805l-.1.01.009.09h.09v-.1zm2.959 0v.1h.123l-.025-.12-.098.02zm1.034 0l-.099.015.013.085h.086v-.1zm-5.044-2.714l-.08.06.05.065.073-.034-.043-.09zm-.52-.613l-.047-.088-.12.064.097.095.07-.071zm6.346 3.327v.1h.113l-.014-.112-.1.012zm3.77 2.308v.1h.137l-.043-.13-.095.03zm-.416-1.274l.096-.03-.023-.07h-.073v.1zM2.742 16.226l-.096-.027-.035.127h.131v-.1zm.356-1.274v-.1h-.076l-.02.073.096.027zm25.119 16.149l-.098-.02-.002.01v.01h.1zm-22.598-.108l.1-.004v-.008l-.002-.009-.098.021zm-2.92-13.732v-.1h-.123l.026.12.097-.02zm28.18 0l.098.018.023-.119h-.12v.1zm-10.744 2.184l.093.037-.093-.037zm.668-.296l-.037.093.018.007h.019v-.1zm-1.12 1.463v.1h.07l.024-.064-.093-.036zm-5.886 0l-.093.036.024.064h.069v-.1zm-.451-1.166l-.093.035.093-.036zm-.668-.297l.036.093-.036-.093zm-.296.667l.094-.036-.094.036zm.579 1.498l-.094.037.094-.037zm7.56 0l-.094-.035.093.035zm.577-1.498l-.093-.036.093.036zm-.295-.667l.036-.093-.018-.007h-.018v.1zm2.65-13.127h.1-.1zm-1.558 0h.1-.1zm10.015 10.66c.008.03.012.046.012.061h.2a.398.398 0 00-.02-.115l-.192.054zm-.004-.014l.004.014.192-.054-.003-.014-.193.054zm-.005-.017l.005.015.193-.05-.004-.015-.194.05zm-.004-.05c0 .004-.001.025.004.048l.195-.046.001.01v-.003l-.2-.01zm.004.014a.06.06 0 01-.003-.016v-.002.004l.2.01c0-.005.002-.032-.008-.06l-.19.064zm-.752-2.309l.752 2.308.19-.062-.752-2.308-.19.062zm-.396-.288c.18 0 .341.117.396.288l.19-.061a.616.616 0 00-.586-.427v.2zm-1.5 0h1.5v-.2h-1.5v.2zm-.1-9.584v9.484h.2V4.434h-.2zm-.001.003l.001.005v-.008h.2c0-.025-.008-.047-.01-.053l-.191.056zm-.008-.039a.14.14 0 00.008.039l.192-.056-.002-.005v.004l-.198.018zm-.006-.028a.199.199 0 01.006.028l.199-.018c-.002-.024-.008-.044-.01-.057l-.195.047zm0 .002l.194-.051-.193.051zm-.005-.023l.005.021.194-.047-.003-.016-.196.042zm-.07-.159a.405.405 0 01.07.16l.196-.043a.605.605 0 00-.106-.237l-.16.12zm-.023-.046c0 .002.007.025.022.046l.16-.12a.071.071 0 01.01.016c0 .002 0 .004 0 0l-.192.058zm.011.019a.069.069 0 01-.01-.018c-.001-.003-.002-.005 0-.001l.19-.057a.11.11 0 00-.025-.05l-.155.126zm-2.016-2.37l2.018 2.371.152-.13-2.018-2.37-.152.13zm-.318-.148c.122 0 .238.054.318.148l.152-.13a.616.616 0 00-.47-.218v.2zm-19.61 0h19.61v-.2H7.107v.2zm-.318.147a.42.42 0 01.318-.147v-.2a.62.62 0 00-.47.217l.152.13zM4.771 4.163l2.018-2.371-.152-.13L4.62 4.033l.152.13zm.01-.017l.002-.003-.001.003a.066.066 0 01-.01.017l-.154-.13c-.02.025-.027.052-.028.055l.192.058zm0 .003l-.19-.063.19.063zm-.021.044c.015-.021.02-.044.022-.047l-.192-.058v.001l.007-.013.163.117zm-.069.153a.405.405 0 01.069-.153l-.162-.118a.605.605 0 00-.102.227l.195.044zm-.004.019l.004-.018-.194-.046-.004.017.194.047zM4.68 4.4c0-.009.003-.017.007-.035l-.194-.047a.35.35 0 00-.012.064l.199.018zm-.008.039c.001-.005.006-.021.008-.04l-.2-.016.192.056zm0-.005l-.001.009.001-.004-.192-.056a.16.16 0 00-.008.05h.2zm0 9.484V4.434h-.2v9.484h.2zm-1.966.1h1.866v-.2H2.706v.2zm-.401.305a.417.417 0 01.4-.305v-.2a.617.617 0 00-.593.452l.193.053zm-.645 2.308l.645-2.308-.193-.053-.645 2.308.193.053zm.002-.004v-.006l-.002.01-.193-.053a.183.183 0 00-.004.062l.2-.013zm-.001.048a.197.197 0 00.001-.048l-.2.013a.13.13 0 01.001.006v-.006l.198.035zm-.01.04l.01-.04-.197-.034a.244.244 0 01-.006.022l.193.053zm0 0l-.193-.051.193.05zm-.006.028l.001-.008a.295.295 0 01.005-.02l-.193-.052c-.004.015-.013.046-.013.08h.2zm.003.01a.175.175 0 01-.003-.011v.001h-.2c0 .029.007.054.01.064l.193-.055zm.009.041a.184.184 0 00-.01-.042l-.192.055a.293.293 0 01.003.009v.002l.199-.024zm-.001.046c0-.004.004-.024 0-.047l-.198.026v-.01.005l.198.026zm-.002-.01a.055.055 0 01.001.014v-.004l-.197-.026a.142.142 0 000 .057l.196-.041zm3.04 14.25l-3.04-14.25-.196.041L4.5 31.121l.196-.042zm1.257 1.275A1.256 1.256 0 014.697 31.1h-.2c0 .802.652 1.454 1.454 1.454v-.2zm21.946 0H5.95v.2h21.945v-.2zM29.14 31.2c.01.587-.548 1.155-1.244 1.155v.2c.796 0 1.455-.648 1.444-1.358l-.2.003zm2.773-14.378l-2.77 14.358.196.038L32.11 16.86l-.196-.038zm-.002.017v.001c0-.003 0-.01.002-.018l.196.038c.005-.027 0-.052 0-.056l-.198.035zm-.002-.046c-.003.022.002.043.002.046l.197-.035v-.001.013l-.199-.023zm.01-.042a.16.16 0 00-.01.042l.199.023v-.001a.3.3 0 01.002-.01l-.192-.054zm-.003.008l.197.039-.197-.04zm0 0l.197.039-.197-.04zm.005-.016v-.002l-.003.01.192.055a.219.219 0 00.01-.063h-.2zm.191-.04v-.001l-.182.082.182-.082zM28.218 4.85H5.605v.2h22.613v-.2zm.1 2.087V4.951h-.2v1.987h.2zm-22.713.1h22.613v-.2H5.605v.2zm-.1-2.087v1.987h.2V4.951h-.2zm20.973-2.47H7.346v.2h19.132v-.2zm1.216 1.372l-1.14-1.337-.152.13 1.14 1.336.152-.13zm-21.487.164h21.41v-.2H6.208v.2zm1.062-1.501L6.131 3.852l.152.13 1.139-1.338-.153-.13zm20.95 5.358H5.604v.2h22.613v-.2zm.1 6.045V7.973h-.2v5.945h.2zm-.262.1h.161v-.2h-.16v.2zm-5.336-4.872c2.741 0 4.977 2.105 5.237 4.782l.199-.02c-.27-2.776-2.59-4.962-5.436-4.962v.2zm-2.846.85a5.238 5.238 0 012.846-.85v-.2c-1.062 0-2.07.315-2.954.882l.108.168zm-2.963-.85c1.053 0 2.03.317 2.855.85l.108-.168a5.445 5.445 0 00-2.963-.882v.2zm-2.856.85a5.245 5.245 0 012.856-.85v-.2c-1.094 0-2.108.33-2.964.883l.108.168zm-2.952-.85c1.021 0 1.993.302 2.844.85l.108-.167a5.423 5.423 0 00-2.952-.883v.2zm-5.237 4.782c.26-2.677 2.495-4.782 5.237-4.782v-.2c-2.848 0-5.167 2.186-5.436 4.963l.199.019zm-.262.09h.162v-.2h-.162v.2zm-.1-6.045v5.945h.2V7.973h-.2zm11.407 2.99a3.467 3.467 0 013.422 2.97l.198-.03c-.26-1.771-1.776-3.14-3.62-3.14v.2zm-3.422 2.97a3.467 3.467 0 013.422-2.97v-.2c-1.844 0-3.36 1.369-3.62 3.14l.198.03zm-.881.085h.782v-.2h-.782v.2zm4.303-4.038c-2.276 0-4.137 1.722-4.402 3.926l.198.024c.254-2.107 2.032-3.75 4.204-3.75v-.2zm4.403 3.926c-.265-2.204-2.126-3.926-4.403-3.926v.2c2.173 0 3.951 1.643 4.204 3.75l.199-.024zm-.882.112h.783v-.2h-.783v.2zm-6.008 0h4.974v-.2h-4.974v.2zm2.487-2.222a2.645 2.645 0 00-2.585 2.102l.196.04a2.445 2.445 0 012.39-1.942v-.2zm2.585 2.102a2.644 2.644 0 00-2.585-2.102v.2c1.175 0 2.159.835 2.389 1.943l.196-.041zm-8.394-2.102a2.645 2.645 0 00-2.585 2.102l.196.04a2.445 2.445 0 012.39-1.942v-.2zm1.006.225a2.616 2.616 0 00-1.006-.225v.2c.32 0 .629.085.93.21l.076-.185zm-.434 1.907a5.213 5.213 0 01.486-1.772l-.18-.087a5.415 5.415 0 00-.505 1.84l.2.019zm-3.059.09h2.96v-.2h-2.96v.2zm2.487-4.038c-2.276 0-4.137 1.722-4.402 3.926l.198.024c.254-2.107 2.032-3.75 4.204-3.75v-.2zm2.09.523a4.418 4.418 0 00-2.09-.523v.2c.707 0 1.385.173 1.996.5l.094-.177zm-.487.762c.162-.214.324-.42.51-.603l-.14-.143a5.55 5.55 0 00-.53.625l.16.12zm-1.603-.303c.516 0 1.02.116 1.48.333l.086-.18a3.665 3.665 0 00-1.566-.353v.2zm-3.422 2.97c.246-1.675 1.68-2.97 3.422-2.97v-.2c-1.844 0-3.36 1.37-3.62 3.142l.198.029zm-.881.086h.782v-.2H6.8v.2zm14.863-1.862c.263.545.425 1.14.486 1.772l.2-.02a5.424 5.424 0 00-.506-1.839l-.18.087zm1.058-.36c-.356 0-.692.094-1.006.224l.076.185c.3-.124.609-.209.93-.209v-.2zm2.585 2.102a2.645 2.645 0 00-2.585-2.102v.2c1.175 0 2.159.835 2.39 1.943l.195-.041zm-3.057.12h2.959v-.2h-2.96v.2zm.472-3.056c1.742 0 3.176 1.294 3.422 2.97l.198-.028c-.26-1.772-1.776-3.142-3.62-3.142v.2zm-1.48.333a3.46 3.46 0 011.48-.333v-.2a3.66 3.66 0 00-1.566.352l.086.18zm-.633-.633c.186.183.349.388.51.602l.16-.12a5.5 5.5 0 00-.53-.624l-.14.143zm2.113-.682c-.739 0-1.45.181-2.09.523l.095.176a4.221 4.221 0 011.995-.499v-.2zm4.402 3.926c-.265-2.204-2.126-3.926-4.402-3.926v.2c2.172 0 3.95 1.643 4.203 3.75l.199-.024zm-.88.112h.78v-.2h-.78v.2zm4.646 2.177l-.415-1.274-.19.062.414 1.274.19-.062zm-28.147.131h28.051v-.2H2.743v.2zm.26-1.4l-.356 1.273.193.054.356-1.274-.193-.053zm27.377-.074H3.098v.2h27.28v-.2zm-2.483 16.669a.42.42 0 00.42-.42h-.2a.22.22 0 01-.22.22v.2zm-21.945 0h21.945v-.2H5.951v.2zm-.432-.524c.006.157.05.288.127.38a.39.39 0 00.305.144v-.2a.19.19 0 01-.151-.072.427.427 0 01-.081-.26l-.2.008zM2.602 17.281L5.52 31.014l.196-.041-2.92-13.733-.195.041zm28.277-.12H2.7v.2h28.18v-.2zm-2.564 13.958l2.662-13.84-.196-.037-2.662 13.84.196.037zm-8.087-11.637a.416.416 0 01.538-.24l.073-.186a.616.616 0 00-.797.354l.186.072zm-.45 1.166l.45-1.166-.186-.072-.451 1.166.186.072zm-5.981.064h5.887v-.2h-5.887v.2zm-.544-1.23l.45 1.166.187-.072-.45-1.166-.187.072zm-.538-.24a.415.415 0 01.538.24l.186-.072a.615.615 0 00-.797-.354l.073.186zm-.24.538a.415.415 0 01.239-.538l-.072-.186a.615.615 0 00-.353.796l.187-.072zm.579 1.498l-.578-1.498-.187.072.578 1.498.187-.072zm.389.268a.417.417 0 01-.389-.267l-.187.072c.092.237.32.395.575.395v-.2zm6.595 0h-6.595v.2h6.595v-.2zm.389-.267a.417.417 0 01-.389.267v.2a.617.617 0 00.575-.395l-.186-.072zm.578-1.499l-.578 1.498.186.073.579-1.499-.187-.072zm-.238-.538a.415.415 0 01.238.538l.187.072a.615.615 0 00-.353-.796l-.072.186zm.036.007v-.2.2zm5.34-13.844H24.92v.2h1.221v-.2zm.616.617a.617.617 0 00-.617-.617v.2c.23 0 .417.187.417.417h.2zm-.617.617c.34 0 .617-.277.617-.617h-.2c0 .23-.187.417-.417.417v.2zm-1.221 0h1.221v-.2h-1.221v.2zm-.616-.617c0 .34.276.617.616.617v-.2a.417.417 0 01-.416-.417h-.2zm.616-.617a.617.617 0 00-.616.617h.2c0-.23.186-.417.416-.417v-.2zm-2.435.617c0-.23.186-.417.416-.417v-.2a.617.617 0 00-.616.617h.2zm.416.417a.417.417 0 01-.416-.417h-.2c0 .34.276.617.616.617v-.2zm.068 0h-.068v.2h.068v-.2zm.383-.417c0 .239-.162.417-.383.417v.2c.35 0 .582-.286.582-.617h-.2zm-.451-.417c.238 0 .45.195.45.417h.2c0-.348-.318-.617-.65-.617v.2zm-1.562-.2a.617.617 0 00-.616.617h.2c0-.23.187-.417.416-.417v-.2zm.655.617c0-.349-.324-.617-.655-.617v.2c.24 0 .454.196.455.417h.2zm-.579.617c.35 0 .579-.287.579-.617h-.2c0 .24-.16.417-.379.417v.2zm-.076 0h.076v-.2h-.076v.2zm-.616-.617c0 .34.276.617.616.617v-.2a.417.417 0 01-.416-.417h-.2z" fill="#232323"/></g><defs><clipPath id="clip0_963_2662"><path fill="#fff" d="M0 0h34v34H0z"/></clipPath></defs></svg>