<svg width="34" height="34" fill="none" xmlns="http://www.w3.org/2000/svg"><g clip-path="url(#clip0_963_2604)"><path fill="#232323" d="M0 0h34v34H0z"/><path fill="#232323" d="M0 0h44v44H0z"/><path d="M15.546 24.448a.52.52 0 00.298.107c0-.198-.085-1.214 1.198-3.054 0-.046.069-.1.115-.153 1.344 1.833 1.298 2.887 1.252 3.169.07.017.143.017.214 0a2.703 2.703 0 001.267-3.161 14.104 14.104 0 00-2.42-3.963.375.375 0 00-.634 0c-.305.374-.595.764-.87 1.16a12.794 12.794 0 00-1.466 2.574 2.748 2.748 0 001.046 3.321zm-.42-2.848c.35-.905.822-1.758 1.405-2.535.183-.267.382-.527.603-.832a11.836 11.836 0 012.046 3.634 1.65 1.65 0 01-.252 1.214 8.934 8.934 0 00-1.412-2.382c-.268-.343-.512-.343-.764 0a8.934 8.934 0 00-1.443 2.428 1.802 1.802 0 01-.183-1.527zm-.031-15.316h4.031V4.039h-4.062l.031 2.245zm3.2-1.397v.534h-2.337v-.534h2.336zM8.438 4.04a1.909 1.909 0 100 3.817 1.909 1.909 0 000-3.818zm1.046 1.908a1.046 1.046 0 11-1.046-1.084A1.038 1.038 0 019.515 5.91l-.03.038zm3.229-1.908a1.909 1.909 0 100 3.817 1.909 1.909 0 000-3.818zm1.046 1.908a1.046 1.046 0 11-1.046-1.046 1.046 1.046 0 011.07 1.008l-.024.038zM21.54 4.04a1.909 1.909 0 100 3.817 1.909 1.909 0 000-3.818zm1.046 1.908a1.046 1.046 0 110-.038v.038zm3.198-1.908a1.909 1.909 0 10-.016 3.817 1.909 1.909 0 00.016-3.818zm1.038 1.908a1.038 1.038 0 110-.038v.038z" fill="#7A7A7A"/><path d="M7.094 25.983h19.668V14.675H7.094v11.308zm18.767-10.43v9.544H7.971v-9.544h17.89zm2.078-4.879H5.94v2.642h22v-2.642zM6.804 12.438v-.916h20.272v.916H6.804z" fill="#7A7A7A"/><path d="M30.389 28.289V3.459a1.71 1.71 0 00-1.65-1.604h-1.641V.863h-8.949v.97h-2.603V0H12.75v.932h1.795v.893H11.49V.397h-.954v1.428H7.483v-.84h1.832V0H6.521v1.855H5.437a1.527 1.527 0 00-1.413.87 2.59 2.59 0 00-.237 1.116v28.54a1.65 1.65 0 001.65 1.65h23.21a1.649 1.649 0 001.65-1.65v-3.817c.092-.092.092-.184.092-.275zm-1 .725v3.337a.664.664 0 01-.657.656H5.52a.664.664 0 01-.657-.656v-3.337h24.525zm-24.556-.939V9.796h24.594v18.279H4.833zM29.442 6.979v1.817H4.818V3.695a.81.81 0 01.901-.9h22.814a.817.817 0 01.909.9V6.98z" fill="#7A7A7A"/></g><defs><clipPath id="clip0_963_2604"><path fill="#fff" d="M0 0h34v34H0z"/></clipPath></defs></svg>