<svg width="34" height="34" fill="none" xmlns="http://www.w3.org/2000/svg"><g clip-path="url(#clip0_1036_3746)"><path fill="#232323" d="M0 0h34v34H0z"/><path fill="#232323" d="M0 0h44v44H0z"/><path fill-rule="evenodd" clip-rule="evenodd" d="M32.024 16.743a.321.321 0 00-.016-.088l-.004-.014-.004-.015a.071.071 0 010-.02c0-.008 0-.016-.003-.023l-.751-2.308a.516.516 0 00-.49-.357h-1.502V4.434a.1.1 0 00-.004-.025l-.005-.02a.184.184 0 00-.008-.042l-.004-.019a.505.505 0 00-.089-.198.046.046 0 01-.006-.015.045.045 0 00-.007-.016l-2.018-2.37a.516.516 0 00-.394-.184H7.11a.52.52 0 00-.394.182L4.697 4.098a.046.046 0 00-.009.02l-.007.016a.505.505 0 00-.085.19l-.004.017a.329.329 0 00-.01.05.097.097 0 01-.004.02.085.085 0 00-.004.023v9.484H2.708a.517.517 0 00-.498.379l-.644 2.308a.086.086 0 00-.002.028v.025a.327.327 0 01-.008.031.201.201 0 00-.01.054c0 .013.004.025.007.037a.174.174 0 01.007.026l-.001.021c-.001.008-.003.016 0 .023l3.04 14.25c0 .747.607 1.355 1.354 1.355h21.945c.747 0 1.355-.608 1.345-1.257l2.77-14.357a.052.052 0 000-.02l-.002-.017a.152.152 0 01.006-.026.1.1 0 00.007-.035zM5.607 4.951H28.22v1.987H5.607V4.951zm1.74-2.371H26.48l1.14 1.337H6.209L7.348 2.58zm-1.74 5.393H28.22v5.945h-.16c-.265-2.726-2.543-4.872-5.337-4.872a5.338 5.338 0 00-2.9.866 5.346 5.346 0 00-2.909-.866 5.347 5.347 0 00-2.91.867 5.323 5.323 0 00-2.898-.867c-2.795 0-5.072 2.146-5.337 4.872h-.162V7.973zm14.828 5.945c-.253-1.724-1.728-3.056-3.52-3.056-1.794 0-3.269 1.332-3.522 3.056h-.782c.26-2.155 2.079-3.838 4.303-3.838 2.225 0 4.044 1.683 4.304 3.838h-.783zm-1.034 0h-4.974a2.545 2.545 0 012.487-2.022c1.223 0 2.247.87 2.487 2.022zm-10.783 0a2.545 2.545 0 012.487-2.022c.338 0 .66.09.967.217a5.314 5.314 0 00-.494 1.805h-2.96zm-1.816 0c.26-2.155 2.079-3.838 4.303-3.838.723 0 1.418.177 2.043.511a5.442 5.442 0 00-.52.614 3.564 3.564 0 00-1.523-.343c-1.793 0-3.268 1.332-3.521 3.056h-.782zm15.449 0a5.324 5.324 0 00-.496-1.805c.307-.128.63-.217.968-.217 1.223 0 2.247.87 2.487 2.022h-2.96zm3.993 0c-.253-1.724-1.728-3.056-3.521-3.056a3.56 3.56 0 00-1.523.342 5.402 5.402 0 00-.52-.613 4.317 4.317 0 012.043-.51c2.224 0 4.043 1.681 4.303 3.837h-.782zm4.136 1.035l.415 1.273H2.745l.355-1.273h27.28zM28.22 31.1a.32.32 0 01-.32.32H5.952c-.177 0-.321-.144-.332-.428L2.7 17.261h28.18L28.22 31.1zm-7.414-11.952a.516.516 0 00-.668.297l-.451 1.166H13.8l-.451-1.166a.515.515 0 10-.963.37l.578 1.499a.517.517 0 00.481.331h6.596a.517.517 0 00.482-.331l.578-1.499a.515.515 0 00-.295-.667zm4.118-13.644h1.221a.517.517 0 010 1.034h-1.221a.517.517 0 010-1.034zm-2.02 0a.517.517 0 000 1.034h.069c.285 0 .482-.232.482-.517 0-.285-.265-.517-.55-.517zm-2.077.517c0-.285.231-.517.516-.517.285 0 .554.232.555.517 0 .285-.194.517-.479.517h-.076a.517.517 0 01-.516-.517z" fill="#fff"/><path d="M32.008 16.655l-.096.027.096-.027zm.016.088l-.091.042.191-.042h-.1zm-.02-.102l-.097.025v.002l.097-.027zM32 16.626l-.097.023v.002l.097-.025zm0-.02l.1.004-.1-.004zm-.003-.023l-.095.031.095-.03zm-.751-2.308l-.095.03v.001l.095-.03zm-1.992-.357h-.1v.1h.1v-.1zM29.25 4.41l-.096.028.096-.028zm-.005-.02l-.1.009.1-.009zm-.008-.042l.097-.024V4.32l-.097.026zm0 0l-.097.023v.002l.097-.026zm-.004-.019l.098-.021-.098.021zm-.089-.198l-.08.06.08-.06zm-.006-.015l-.096.029.096-.029zm-.007-.016l.077-.063-.001-.001-.076.064zm-2.018-2.37l-.076.064.076-.065zM6.715 1.726l-.076-.065.076.065zM4.697 4.098l-.077-.065.077.065zm-.009.02l.095.03v-.002l-.095-.029zm0 0l-.095-.032v.002l.095.03zm-.007.016l.08.06v-.001l-.08-.059zm-.085.19l.097.023-.097-.023zm-.004.017l.097.024-.097-.024zm-.01.05l-.1-.009v.001l.1.008zm-.004.02l.096.028-.096-.028zm-.004 9.507v.1h.1v-.1h-.1zm-2.364.379l-.096-.027.096.027zm-.644 2.308l-.097-.027.097.027zm-.002.028l.1-.006-.1.006zm0 .025l-.098-.018.098.018zm-.008.031l-.096-.026.096.026zm0 0l.097.027v-.001l-.097-.026zm-.003.09l.097-.027-.097.027zm.007.027l-.1.012v.001l.1-.013zm-.001.021l-.1-.013.1.013zm0 .023l-.099.021.098-.02zm3.04 14.25h.1v-.01l-.002-.01-.098.02zm24.644.098l-.098-.019-.002.01v.01h.1zm2.77-14.357l.099.02-.098-.02zm0-.02l-.099.018.099-.017zm-.002-.017l.1.012-.1-.012zm.006-.026l.097.028.001-.008-.098-.02zm0 0l-.096-.027-.002.008.098.02zm.007-.035l.091-.041-.191.041h.1zM28.22 4.951h.1v-.1h-.1v.1zm-22.613 0v-.1h-.1v.1h.1zM28.22 6.938v.1h.1v-.1h-.1zm-22.613 0h-.1v.1h.1v-.1zM26.48 2.58l.076-.065-.03-.035h-.046v.1zm-19.133 0v-.1h-.046l-.03.035.077.065zM27.62 3.917v.1h.216l-.14-.165-.076.065zm-21.411 0l-.076-.065-.14.165h.216v-.1zM28.22 7.973h.1v-.1h-.1v.1zm-22.613 0v-.1h-.1v.1h.1zm22.613 5.945v.1h.1v-.1h-.1zm-.16 0l-.1.01.009.09h.09v-.1zm-8.237-4.006l-.054.084.054.035.054-.035-.054-.084zm-5.819 0l-.054.085.054.035.054-.035-.054-.084zM5.77 13.919v.1h.091l.009-.09-.1-.01zm-.162 0h-.1v.1h.1v-.1zm14.828 0l-.099.015.013.085h.086v-.1zm-7.042 0v.1h.086l.013-.085-.1-.015zm-.782 0l-.1-.012-.013.112h.113v-.1zm8.607 0v.1h.113l-.014-.112-.1.012zm-6.791 0l-.098-.02-.025.12h.123v-.1zm4.974 0v.1h.123l-.025-.12-.098.02zm-10.783 0l-.098-.02-.025.12h.123v-.1zm3.454-1.805l.09.043.046-.095-.097-.04-.039.092zm-.494 1.805v.1h.09l.01-.09-.1-.01zm-4.776 0l-.1-.012-.013.112h.113v-.1zm6.346-3.327l.07.071.098-.095-.12-.064-.048.088zm-.52.614l-.043.09.074.035.049-.065-.08-.06zm-5.044 2.713v.1h.086l.013-.085-.1-.015zm14.171-1.805l-.038-.093-.098.04.046.096.09-.043zm.496 1.805l-.1.01.009.09h.09v-.1zm2.959 0v.1h.123l-.025-.12-.098.02zm1.034 0l-.099.015.013.085h.086v-.1zM21.2 11.204l-.08.06.049.065.074-.034-.043-.09zm-.52-.613l-.047-.088-.12.064.097.095.07-.07zm6.346 3.327v.1h.112l-.013-.112-.1.012zm3.77 2.308v.1h.137l-.043-.13-.095.03zm-.416-1.273l.096-.031-.023-.07h-.073v.1zM2.744 16.226l-.096-.027-.035.127h.131v-.1zm.356-1.273v-.1h-.076l-.02.073.096.027zM28.22 31.1l-.098-.02-.002.01v.01h.1zm-22.6-.107l.1-.004v-.008l-.002-.008-.098.02zM2.7 17.261v-.1h-.123l.025.12.098-.02zm28.18 0l.098.018.023-.119h-.12v.1zm-10.744 2.185l.093.036-.093-.036zm.668-.297l-.037.093.018.007h.019v-.1zm-1.12 1.463v.1h.07l.024-.064-.093-.036zm-5.886 0l-.093.036.024.064h.069v-.1zm-.451-1.166l-.093.035.093-.035zm-.668-.297l.036.093-.036-.093zm-.296.667l.094-.036-.094.036zm.579 1.499l-.094.036.094-.036zm7.559 0l-.093-.036.093.036zm.578-1.499l-.093-.036.093.036zm-.295-.667l.036-.093-.018-.007h-.018v.1zm2.65-13.127h.1-.1zm-1.558 0h.1-.1zm10.015 10.66c.008.03.012.046.012.061h.2a.398.398 0 00-.02-.115l-.192.054zm-.004-.014l.004.014.192-.054-.003-.014-.193.054zm-.005-.017l.004.015.194-.05-.004-.015-.194.05zm-.004-.05c0 .004-.002.025.004.048l.194-.046.002.01v-.003l-.2-.01zm.004.014a.06.06 0 01-.003-.016v-.002.004l.2.01c0-.005.002-.032-.008-.06l-.19.064zm-.752-2.309l.752 2.308.19-.062-.752-2.308-.19.062zm-.396-.288c.18 0 .34.117.396.288l.19-.061a.616.616 0 00-.586-.427v.2zm-1.5 0h1.5v-.2h-1.5v.2zm-.1-9.584v9.484h.2V4.434h-.2zm-.001.003l.001.005v-.008h.2c0-.025-.008-.047-.01-.053l-.191.056zm-.008-.039a.14.14 0 00.008.039l.192-.056-.002-.005v.004l-.198.018zm-.006-.028a.172.172 0 01.006.028l.199-.018c-.002-.024-.008-.044-.01-.057l-.195.047zm0 .002l.194-.051-.194.051zm-.005-.023l.005.021.194-.047a.353.353 0 01-.003-.016l-.196.042zm-.07-.159a.405.405 0 01.07.16l.195-.043a.605.605 0 00-.105-.237l-.16.12zm-.023-.046c0 .002.007.025.022.046l.16-.12a.066.066 0 01.01.016c0 .002 0 .004 0 0l-.192.058zm.011.019a.072.072 0 01-.01-.018c-.001-.003-.002-.005 0-.001l.19-.057a.11.11 0 00-.025-.05l-.155.126zm-2.016-2.37l2.018 2.371.152-.13-2.018-2.37-.152.13zm-.318-.148c.122 0 .238.054.317.148l.153-.13a.616.616 0 00-.47-.218v.2zm-19.61 0h19.61v-.2H7.11v.2zm-.318.147a.42.42 0 01.318-.147v-.2a.62.62 0 00-.47.217l.152.13zM4.773 4.163L6.79 1.792l-.152-.13L4.62 4.033l.153.13zm.01-.017l.002-.003-.001.003a.066.066 0 01-.01.017l-.154-.13c-.02.025-.027.052-.028.055l.192.058zm0 .003l-.19-.063.19.063zm-.021.044c.015-.021.02-.044.022-.047l-.192-.058v.001l.007-.013.163.117zm-.069.153a.405.405 0 01.068-.153L4.6 4.075a.605.605 0 00-.102.227l.195.044zm-.004.019l.004-.018-.194-.046-.005.017.195.047zm-.007.035c0-.009.003-.017.007-.035l-.194-.047a.35.35 0 00-.012.064l.199.018zm-.008.039c.001-.005.006-.021.008-.04l-.2-.016.192.056zm0-.005l-.001.009.001-.004-.192-.056a.16.16 0 00-.008.05h.2zm0 9.484V4.434h-.2v9.484h.2zm-1.966.1h1.866v-.2H2.708v.2zm-.402.306a.417.417 0 01.402-.306v-.2a.617.617 0 00-.594.452l.192.054zm-.644 2.308l.644-2.309-.192-.053-.645 2.308.193.054zm.002-.005v-.006l-.002.01-.193-.053a.183.183 0 00-.004.062l.2-.013zm-.001.048a.197.197 0 00.001-.048l-.2.013.001.006v-.006l.198.035zm-.01.04l.01-.04-.197-.034a.248.248 0 01-.006.022l.193.053zm0 0l-.193-.051.193.05zm-.006.028v-.008a.32.32 0 01.006-.02l-.193-.052c-.004.015-.013.046-.013.08h.2zm.003.01a.201.201 0 01-.003-.011v.001h-.2c0 .029.007.054.01.064l.193-.055zm.009.041a.184.184 0 00-.01-.042l-.192.055a.225.225 0 01.003.009v.002l.199-.024zm-.001.046c0-.004.004-.024 0-.046l-.198.025a.05.05 0 010-.01v.005l.198.026zm-.002-.01a.056.056 0 01.001.014v-.004l-.198-.026c0 .004-.005.03.001.057l.196-.041zm3.04 14.25l-3.04-14.25-.196.041 3.041 14.25.196-.042zm1.257 1.275A1.256 1.256 0 014.699 31.1h-.2c0 .802.652 1.454 1.454 1.454v-.2zm21.945 0H5.953v.2h21.945v-.2zm1.245-1.155c.009.587-.548 1.155-1.245 1.155v.2c.797 0 1.456-.648 1.445-1.358l-.2.003zm2.773-14.378L29.145 31.18l.196.038 2.771-14.357-.196-.038zm-.002.017v.001c0-.003 0-.01.002-.018l.196.038c.005-.027 0-.052 0-.056l-.198.035zm-.002-.046c-.002.022.002.043.002.046l.197-.035v-.001.013l-.199-.023zm.01-.042a.16.16 0 00-.01.042l.199.023v-.001l.003-.01-.193-.054zm-.003.008l.196.039-.196-.04zm0 0l.196.039-.196-.04zm.005-.016v-.002a.345.345 0 01-.003.01l.193.055c.002-.01.01-.034.01-.063h-.2zm.191-.04v-.001l-.182.082.182-.082zM28.22 4.85H5.607v.2H28.22v-.2zm.1 2.087V4.951h-.2v1.987h.2zm-22.713.1H28.22v-.2H5.607v.2zm-.1-2.087v1.987h.2V4.951h-.2zM26.48 2.48H7.347v.2H26.48v-.2zm1.216 1.372l-1.14-1.337-.152.13 1.14 1.336.152-.13zm-21.487.165h21.41v-.2H6.21v.2zM7.27 2.515L6.133 3.852l.152.13 1.139-1.337-.153-.13zm20.95 5.358H5.606v.2H28.22v-.2zm.1 6.045V7.973h-.2v5.945h.2zm-.262.1h.161v-.2h-.16v.2zm-5.336-4.872c2.74 0 4.977 2.105 5.237 4.782l.199-.02c-.27-2.776-2.59-4.962-5.436-4.962v.2zm-2.846.85a5.238 5.238 0 012.846-.85v-.2c-1.062 0-2.07.315-2.954.882l.108.168zm-2.963-.85c1.053 0 2.03.317 2.855.85l.109-.168a5.446 5.446 0 00-2.964-.882v.2zm-2.856.85a5.246 5.246 0 012.856-.85v-.2c-1.094 0-2.108.33-2.964.883l.108.168zm-2.952-.85a5.22 5.22 0 012.844.851l.108-.168a5.423 5.423 0 00-2.952-.883v.2zm-5.237 4.782c.26-2.677 2.495-4.782 5.237-4.782v-.2c-2.848 0-5.167 2.186-5.436 4.963l.199.019zm-.262.09h.162v-.2h-.162v.2zm-.1-6.045v5.945h.2V7.973h-.2zm11.407 2.99a3.467 3.467 0 013.422 2.97l.198-.03c-.26-1.771-1.776-3.14-3.62-3.14v.2zm-3.422 2.97a3.467 3.467 0 013.422-2.97v-.2c-1.844 0-3.36 1.369-3.62 3.14l.198.03zm-.881.085h.782v-.2h-.782v.2zm4.303-4.038c-2.276 0-4.137 1.722-4.402 3.926l.198.024c.254-2.107 2.032-3.75 4.204-3.75v-.2zm4.403 3.926c-.265-2.204-2.126-3.926-4.403-3.926v.2c2.173 0 3.95 1.643 4.204 3.75l.199-.024zm-.882.112h.783v-.2h-.783v.2zm-6.008 0H19.4v-.2h-4.974v.2zm2.487-2.222a2.645 2.645 0 00-2.585 2.102l.196.04a2.444 2.444 0 012.389-1.942v-.2zm2.585 2.102a2.644 2.644 0 00-2.585-2.102v.2c1.175 0 2.159.835 2.389 1.943l.196-.041zm-8.394-2.102a2.645 2.645 0 00-2.585 2.102l.196.04a2.444 2.444 0 012.39-1.942v-.2zm1.006.225a2.616 2.616 0 00-1.006-.225v.2c.32 0 .629.085.93.21l.076-.185zm-.434 1.907a5.213 5.213 0 01.486-1.772l-.18-.086a5.417 5.417 0 00-.505 1.839l.2.019zm-3.059.09h2.96v-.2h-2.96v.2zm2.487-4.038c-2.276 0-4.137 1.722-4.402 3.926l.198.024c.254-2.107 2.032-3.75 4.204-3.75v-.2zm2.09.523a4.418 4.418 0 00-2.09-.523v.2c.707 0 1.385.173 1.996.5l.094-.177zm-.487.762c.162-.214.324-.42.51-.603l-.14-.142c-.197.193-.367.41-.53.624l.16.12zm-1.603-.303c.516 0 1.02.116 1.48.333l.086-.18a3.663 3.663 0 00-1.566-.353v.2zm-3.422 2.97c.246-1.675 1.68-2.97 3.422-2.97v-.2c-1.844 0-3.36 1.37-3.62 3.142l.198.029zm-.881.086h.782v-.2h-.782v.2zm14.863-1.862c.263.545.425 1.14.486 1.772l.2-.02a5.424 5.424 0 00-.506-1.839l-.18.087zm1.058-.36c-.357 0-.692.094-1.006.224l.077.185c.3-.124.608-.209.929-.209v-.2zm2.585 2.102a2.645 2.645 0 00-2.585-2.102v.2c1.175 0 2.159.835 2.39 1.943l.195-.041zm-3.057.12h2.959v-.2h-2.96v.2zm.472-3.056c1.742 0 3.176 1.294 3.422 2.97l.198-.028c-.26-1.772-1.776-3.142-3.62-3.142v.2zm-1.48.333a3.46 3.46 0 011.48-.333v-.2a3.66 3.66 0 00-1.566.352l.086.18zm-.633-.633c.186.183.349.388.51.602l.16-.12a5.501 5.501 0 00-.53-.624l-.14.143zm2.113-.682c-.739 0-1.45.181-2.09.523l.094.176a4.225 4.225 0 011.996-.499v-.2zm4.402 3.926c-.265-2.204-2.126-3.926-4.402-3.926v.2c2.172 0 3.95 1.643 4.203 3.75l.199-.024zm-.88.112h.78v-.2h-.78v.2zm4.645 2.177l-.415-1.274-.19.062.415 1.274.19-.062zm-28.146.131h28.051v-.2H2.745v.2zm.26-1.4l-.356 1.273.193.054.356-1.274-.193-.053zm27.376-.074H3.1v.2h27.28v-.2zm-2.482 16.669a.42.42 0 00.42-.42h-.2a.22.22 0 01-.22.22v.2zm-21.945 0h21.945v-.2H5.953v.2zm-.432-.524c.006.157.05.288.127.38a.39.39 0 00.305.144v-.2a.19.19 0 01-.152-.072.427.427 0 01-.08-.26l-.2.008zM2.603 17.281l2.92 13.733.196-.041-2.92-13.733-.196.041zm28.278-.12H2.701v.2h28.18v-.2zm-2.564 13.958l2.662-13.84-.196-.037-2.662 13.84.196.037zM20.23 19.482a.416.416 0 01.538-.24l.073-.186a.616.616 0 00-.797.354l.186.072zm-.45 1.166l.45-1.166-.186-.072-.451 1.166.186.072zm-5.981.064h5.887v-.2h-5.887v.2zm-.544-1.23l.45 1.166.187-.072-.45-1.166-.187.072zm-.539-.24a.415.415 0 01.539.24l.186-.072a.615.615 0 00-.797-.354l.072.186zm-.238.538a.415.415 0 01.238-.538l-.072-.186a.615.615 0 00-.353.796l.187-.072zm.578 1.499l-.578-1.499-.187.072.578 1.499.187-.072zm.388.267a.417.417 0 01-.388-.267l-.187.072c.092.237.32.395.575.395v-.2zm6.596 0h-6.596v.2h6.596v-.2zm.389-.267a.417.417 0 01-.389.267v.2a.617.617 0 00.575-.395l-.186-.072zm.578-1.499l-.578 1.499.186.072.579-1.499-.187-.072zm-.238-.538a.415.415 0 01.238.538l.186.072a.615.615 0 00-.352-.796l-.072.186zm.036.007v-.2.2zm5.34-13.844h-1.222v.2h1.221v-.2zm.616.617a.617.617 0 00-.617-.617v.2c.23 0 .417.187.417.417h.2zm-.617.617c.34 0 .617-.277.617-.617h-.2c0 .23-.187.417-.417.417v.2zm-1.221 0h1.221v-.2h-1.221v.2zm-.617-.617c0 .34.276.617.617.617v-.2a.417.417 0 01-.417-.417h-.2zm.617-.617a.617.617 0 00-.617.617h.2c0-.23.187-.417.417-.417v-.2zm-2.435.617c0-.23.186-.417.416-.417v-.2a.617.617 0 00-.616.617h.2zm.416.417a.417.417 0 01-.416-.417h-.2c0 .34.276.617.616.617v-.2zm.068 0h-.068v.2h.068v-.2zm.383-.417c0 .239-.162.417-.383.417v.2c.35 0 .582-.286.582-.617h-.2zm-.451-.417c.238 0 .45.195.45.417h.2c0-.348-.318-.617-.65-.617v.2zm-1.562-.2a.617.617 0 00-.616.617h.2c0-.23.187-.417.416-.417v-.2zm.655.617c0-.349-.324-.617-.655-.617v.2c.239 0 .454.196.455.417h.2zm-.579.617c.35 0 .579-.287.579-.617h-.2c0 .24-.16.417-.379.417v.2zm-.076 0h.076v-.2h-.076v.2zm-.616-.617c0 .34.276.617.616.617v-.2a.417.417 0 01-.416-.417h-.2z" fill="#232323"/></g><defs><clipPath id="clip0_1036_3746"><path fill="#fff" d="M0 0h34v34H0z"/></clipPath></defs></svg>