<svg width="34" height="34" fill="none" xmlns="http://www.w3.org/2000/svg"><g clip-path="url(#clip0_963_2617)"><path fill="#232323" d="M0 0h34v34H0z"/><path fill="#232323" d="M0 0h44v44H0z"/><path d="M6.623 25.778h20.148V14.181H6.623v11.597zm19.24-10.696v9.788H7.523v-9.79h18.34zM14.61 5.575h4.173V3.273h-4.174v2.302zm3.288-1.433v.549h-2.372v-.549h2.372zm-6.954-.869a1.958 1.958 0 100 3.916 1.958 1.958 0 000-3.916zm1.073 1.958a1.073 1.073 0 11-1.073-1.073 1.065 1.065 0 011.073 1.034v.039zM22.44 3.273a1.958 1.958 0 100 3.916 1.958 1.958 0 000-3.916zm1.073 1.958a1.073 1.073 0 110-.04v.04zm4.267 4.847H5.22v2.71h22.56v-2.71zM6.13 11.887v-.94h20.79v.94H6.129z" fill="#7A7A7A"/><path d="M30.294 28.143V2.678a1.754 1.754 0 00-1.692-1.644H26.92V0h-9.177v1.002h-2.694V0H5.902v1.034H4.806a1.566 1.566 0 00-1.457.892 2.639 2.639 0 00-.243 1.144v25.143c-.003.07-.003.141 0 .212v3.915a1.691 1.691 0 001.692 1.691h23.805a1.7 1.7 0 001.699-1.691v-3.915c-.008-.094-.008-.188-.008-.282zm-1.026.744v3.422a.68.68 0 01-.673.673H4.79a.68.68 0 01-.673-.673v-3.422h25.151zm-25.175-.963V9.177h25.214v18.747H4.093zM29.323 6.53v1.62H4.07V2.92a.83.83 0 01.924-.924H28.39a.838.838 0 01.932.924v3.61z" fill="#7A7A7A"/></g><defs><clipPath id="clip0_963_2617"><path fill="#fff" d="M0 0h34v34H0z"/></clipPath></defs></svg>