<svg width="34" height="34" fill="none" xmlns="http://www.w3.org/2000/svg"><g clip-path="url(#clip0_1036_3701)"><path fill="#232323" d="M0 0h34v34H0z"/><path fill="#232323" d="M0 0h44v44H0z"/><path d="M6.621 25.778H26.77V14.181H6.62v11.597zm19.24-10.696v9.788H7.52v-9.79h18.34zM14.61 5.575h4.173V3.273h-4.174v2.302zm3.288-1.433v.548h-2.372v-.548h2.372zm-6.952-.869a1.957 1.957 0 100 3.915 1.957 1.957 0 000-3.915zm1.073 1.958a1.073 1.073 0 11-1.073-1.073 1.065 1.065 0 011.073 1.034v.039zm10.423-1.958a1.957 1.957 0 100 3.915 1.957 1.957 0 000-3.915zm1.073 1.958a1.073 1.073 0 110-.04v.04zm4.267 4.847H5.222v2.71h22.56v-2.71zM6.131 11.887v-.94h20.79v.94H6.131z" fill="#fff"/><path d="M30.296 28.143V2.678a1.754 1.754 0 00-1.691-1.644H26.92V0h-9.177v1.002H15.05V0H5.904v1.034H4.808a1.566 1.566 0 00-1.457.892 2.639 2.639 0 00-.243 1.144v25.143c-.004.07-.004.141 0 .212v3.915A1.691 1.691 0 004.8 34.03h23.805a1.699 1.699 0 001.699-1.691v-3.915c-.008-.094-.008-.188-.008-.282zm-1.026.744v3.422a.681.681 0 01-.673.673H4.792a.68.68 0 01-.673-.673v-3.422H29.27zm-25.175-.963V9.177h25.214v18.747H4.095zM29.325 6.53v1.62H4.072V2.92a.83.83 0 01.924-.924h23.397a.838.838 0 01.932.924v3.61z" fill="#fff"/></g><defs><clipPath id="clip0_1036_3701"><path fill="#fff" d="M0 0h34v34H0z"/></clipPath></defs></svg>