<svg width="34" height="34" fill="none" xmlns="http://www.w3.org/2000/svg"><g clip-path="url(#clip0_1036_3718)"><path fill="#232323" d="M0 0h34v34H0z"/><path fill="#232323" d="M0 0h44v44H0z"/><path d="M31.657 25.763l-9.002-5.672H22.6V4.21a1.893 1.893 0 00-1.893-1.893H12.98a1.893 1.893 0 00-1.893 1.893v15.857l-8.7 5.671H2.34v5.31h29.363v-5.286h-.046zM12.988 3.245h7.727a.974.974 0 01.966.966v15.772h-9.659V4.21a.973.973 0 01.966-.966zm-8.817 22.41l7.28-4.745h10.817l7.295 4.636.24.147.13.085H4.079l.093-.123zm26.59 4.466H3.244V26.69H30.76v3.43z" fill="#fff"/><path d="M7.782 28.815a.672.672 0 10-1.09-.788.672.672 0 001.09.773v.015zm2.618 0a.68.68 0 00-.154-.943.672.672 0 00-.773 1.09.68.68 0 00.928-.147zm2.614 0a.68.68 0 00-.155-.943.672.672 0 00-.772 1.09.68.68 0 00.927-.147z" fill="#fff"/></g><defs><clipPath id="clip0_1036_3718"><path fill="#fff" d="M0 0h34v34H0z"/></clipPath></defs></svg>