<svg width="34" height="34" fill="none" xmlns="http://www.w3.org/2000/svg"><path d="M31.66 25.763l-9.003-5.672h-.054V4.211a1.893 1.893 0 00-1.894-1.893h-7.727a1.893 1.893 0 00-1.893 1.894v15.856l-8.7 5.672h-.047v5.308h29.363v-5.285h-.046zM12.99 3.246h7.727a.974.974 0 01.966.966v15.77h-9.659V4.213a.974.974 0 01.966-.966zM4.173 25.655l7.28-4.745H22.27l7.295 4.637.24.146.13.085H4.08l.093-.123zm26.59 4.466H3.246v-3.43h27.517v3.43z" fill="#fff"/><path d="M7.782 28.815a.672.672 0 10-1.09-.788.672.672 0 001.09.772v.016zm2.618 0a.68.68 0 00-.154-.943.673.673 0 00-.773 1.09.68.68 0 00.928-.147zm2.612 0a.68.68 0 00-.155-.943.673.673 0 00-.772 1.09.68.68 0 00.927-.147z" fill="#fff"/></svg>