<svg width="34" height="34" fill="none" xmlns="http://www.w3.org/2000/svg"><path fill-rule="evenodd" clip-rule="evenodd" d="M32.022 16.744a.319.319 0 00-.016-.088l-.004-.014-.004-.016v-.02c0-.008 0-.015-.002-.022l-.752-2.308a.516.516 0 00-.49-.357h-1.502V4.434a.109.109 0 00-.004-.025l-.005-.02a.195.195 0 00-.008-.042.506.506 0 00-.093-.216l-.006-.015c-.002-.006-.003-.011-.007-.016L27.11 1.729a.516.516 0 00-.394-.183H7.107a.52.52 0 00-.394.181L4.695 4.1c-.005.005-.007.012-.009.019a.056.056 0 01-.007.017.505.505 0 00-.085.19l-.004.017c-.004.016-.008.032-.01.05 0 .007-.002.013-.004.02a.081.081 0 00-.004.022v9.485H2.706a.517.517 0 00-.498.378l-.644 2.308c-.003.01-.002.02-.002.029.001.008.002.016 0 .024l-.007.032a.191.191 0 00-.01.054c0 .012.003.024.007.036a.177.177 0 01.006.027.08.08 0 01-.001.02.068.068 0 000 .024l3.04 14.25c0 .746.607 1.354 1.354 1.354h21.946c.746 0 1.354-.608 1.344-1.256l2.77-14.357c.002-.007.001-.013 0-.02a.057.057 0 01-.002-.017l.006-.026a.124.124 0 00.007-.035zM5.605 4.95h22.613v1.99H5.605V4.951zm1.74-2.37h19.133l1.14 1.336H6.207L7.346 2.58zm-1.74 5.392h22.613v5.946h-.16c-.265-2.727-2.543-4.873-5.337-4.873a5.338 5.338 0 00-2.9.867 5.345 5.345 0 00-2.909-.867 5.347 5.347 0 00-2.91.867 5.323 5.323 0 00-2.898-.867c-2.795 0-5.072 2.146-5.337 4.873h-.162V7.973zm14.828 5.946c-.253-1.724-1.728-3.056-3.52-3.056-1.794 0-3.269 1.332-3.522 3.056h-.782c.26-2.156 2.079-3.838 4.303-3.838 2.225 0 4.044 1.682 4.304 3.838h-.783zm-1.034 0h-4.974a2.545 2.545 0 012.487-2.022c1.224 0 2.247.869 2.487 2.022zm-10.783 0a2.545 2.545 0 012.487-2.022c.338 0 .66.089.967.216a5.317 5.317 0 00-.494 1.806h-2.96zm-1.816 0c.26-2.156 2.079-3.838 4.303-3.838.723 0 1.418.177 2.043.51a5.442 5.442 0 00-.52.614 3.565 3.565 0 00-1.523-.342c-1.793 0-3.268 1.332-3.521 3.056H6.8zm15.449 0a5.324 5.324 0 00-.496-1.806c.307-.127.63-.216.968-.216 1.223 0 2.247.869 2.487 2.022h-2.96zm3.993 0c-.253-1.724-1.728-3.056-3.521-3.056-.532 0-1.05.118-1.523.342a5.391 5.391 0 00-.52-.614 4.318 4.318 0 012.043-.51c2.224 0 4.043 1.682 4.303 3.838h-.782zm4.136 1.034l.415 1.274H2.743l.355-1.274h27.28zM28.217 31.1a.32.32 0 01-.32.32H5.95c-.177 0-.32-.143-.332-.427L2.699 17.26h28.18L28.217 31.1zm-7.414-11.95a.516.516 0 00-.668.296l-.451 1.167h-5.887l-.451-1.167a.515.515 0 10-.964.37l.579 1.499c.077.2.268.332.482.332h6.595a.517.517 0 00.482-.332l.578-1.498a.515.515 0 00-.295-.667zM24.92 5.505h1.221a.517.517 0 010 1.034H24.92a.517.517 0 010-1.034zm-2.019 0a.517.517 0 000 1.034h.068c.285 0 .483-.232.483-.517 0-.285-.266-.517-.551-.517zm-2.078.517c0-.285.231-.517.516-.517.285 0 .554.232.555.517 0 .285-.194.517-.479.517h-.076a.517.517 0 01-.516-.517z" fill="#fff"/><path d="M32.006 16.655l-.096.027.096-.026zm.016.089l-.091.041.191-.041h-.1zm-.02-.102l-.097.025v.001l.097-.026zm-.004-.016l-.097.023v.002l.097-.025zm0-.02l.1.005-.1-.005zm-.002-.022l-.095.03v.001l.095-.031zm-.752-2.308l-.095.03.095-.03zm-1.992-.357h-.1v.1h.1v-.1zm-.004-9.51l-.096.028.096-.028zm-.005-.02l-.1.01.1-.01zm-.008-.042l.097-.024v-.002l-.097.026zm0 0l-.097.024v.002l.097-.026zm-.004-.018l.098-.022-.098.022zm-.089-.198l-.08.06.08-.06zm-.006-.015l-.096.028.096-.028zm-.007-.016l.077-.063-.001-.002-.076.065zM27.11 1.729l-.076.065.076-.065zM6.713 1.727l-.076-.065.076.065zM4.695 4.1l-.076-.065.076.065zm-.009.019l.095.031v-.003l-.095-.028zm0 0l-.095-.032v.003l.095.029zm-.007.017l.08.059-.08-.06zm-.085.19l.097.023v-.001l-.097-.022zm-.004.017l.097.024-.097-.024zm-.01.05l-.1-.01v.002l.1.008zm-.004.02l.096.027-.096-.028zm-.004 9.507v.1h.1v-.1h-.1zm-2.364.378l-.096-.027.096.027zm-.644 2.308l-.097-.027.097.027zm-.002.029l.1-.007-.1.007zm0 .024l-.098-.017.098.017zm-.007.032l-.097-.027v.001l.097.026zm0 0l.096.026v-.001l-.096-.025zm-.003.09l.096-.027-.096.027zm.006.027l-.1.012.1-.012zm-.001.02l-.1-.013.1.014zm0 .024l-.099.02.098-.02zm3.04 14.25h.1v-.011l-.002-.01-.098.02zm24.644.098l-.098-.02-.002.011v.01l.1-.001zm2.77-14.357l.1.019-.1-.02zm0-.02l-.099.017.099-.017zm-.002-.017l.1.011-.1-.011zm.006-.026l.097.027.002-.008-.099-.02zm0 0l-.096-.028-.002.008.098.02zm.007-.035l.091-.042-.191.041h.1zM28.218 4.95h.1v-.1h-.1v.1zm-22.613 0v-.1h-.1v.1h.1zm22.613 1.99v.1h.1v-.1h-.1zm-22.613 0h-.1v.1h.1v-.1zm20.873-4.36l.076-.065-.03-.035h-.046v.1zm-19.132 0v-.1h-.047l-.03.035.077.065zm20.272 1.337v.1h.216l-.14-.165-.076.065zm-21.411 0l-.076-.065-.14.165h.216v-.1zm22.011 4.056h.1v-.1h-.1v.1zm-22.613 0v-.1h-.1v.1h.1zm22.613 5.946v.1h.1v-.1h-.1zm-.16 0l-.1.01.009.09h.09v-.1zM19.82 9.913l-.054.084.054.035.054-.035-.054-.084zm-5.819 0l-.054.084.054.035.054-.035-.054-.084zM5.767 13.92v.1h.091l.009-.09-.1-.01zm-.162 0h-.1v.1h.1v-.1zm14.828 0l-.099.014.013.086h.086v-.1zm-7.042 0v.1h.086l.013-.086-.1-.014zm-.782 0l-.1-.012-.013.112h.113v-.1zm8.607 0v.1h.112l-.013-.112-.1.012zm-6.791 0l-.098-.02-.025.12h.123v-.1zm4.974 0v.1h.123l-.025-.12-.098.02zm-10.783 0l-.098-.02-.025.12h.123v-.1zm3.454-1.806l.09.044.046-.095-.097-.04-.039.091zm-.494 1.806v.1h.09l.01-.09-.1-.01zm-4.776 0l-.1-.012-.013.112H6.8v-.1zm6.346-3.328l.07.072.098-.096-.12-.064-.048.088zm-.52.614l-.043.09.074.035.049-.065-.08-.06zM7.582 13.92v.1h.086l.013-.086-.1-.014zm14.171-1.806l-.038-.092-.098.04.046.095.09-.043zm.496 1.806l-.1.01.009.09h.09v-.1zm2.959 0v.1h.123l-.025-.12-.098.02zm1.034 0l-.099.014.013.086h.086v-.1zm-5.044-2.714l-.08.06.05.065.073-.035-.043-.09zm-.52-.614l-.047-.088-.12.065.097.095.07-.072zm6.346 3.328v.1h.113l-.014-.112-.1.011zm3.77 2.308v.1h.137l-.043-.131-.095.03zm-.416-1.274l.096-.031-.023-.07h-.073v.1zM2.742 16.227l-.096-.027-.035.127h.131v-.1zm.356-1.274v-.1h-.076l-.02.073.096.027zM28.217 31.1l-.098-.019-.002.01v.01h.1zm-22.598-.107l.1-.004v-.009l-.002-.008-.098.02zM2.699 17.26v-.1h-.123l.026.12.097-.02zm28.18 0l.098.019.023-.119h-.12v.1zm-10.744 2.185l.093.036-.093-.036zm.668-.296l-.037.093.018.007h.019v-.1zm-1.12 1.463v.1h.07l.024-.064-.093-.036zm-5.886 0l-.093.036.024.064h.069v-.1zm-.451-1.167l-.093.036.093-.036zm-.668-.296l.036.093-.036-.093zm-.296.667l.094-.036-.094.036zm.579 1.498l-.094.036.094-.036zm7.56 0l-.094-.036.093.036zm.577-1.498l-.093-.037.093.037zm-.295-.667l.036-.094-.018-.006h-.018v.1zm2.65-13.128h.1-.1zm-1.558 0h.1-.1zm10.015 10.66c.008.03.012.047.012.062h.2a.406.406 0 00-.02-.116l-.192.054zm-.004-.014l.004.014.192-.053-.003-.014-.193.053zm-.005-.017l.005.016.193-.05-.004-.016-.194.05zm-.004-.05c0 .005-.001.026.004.048l.195-.046.001.01v-.002l-.2-.01zm.004.014a.06.06 0 01-.003-.016v-.001.003l.2.01c0-.005.002-.031-.008-.059l-.19.063zm-.752-2.308l.752 2.308.19-.062-.752-2.308-.19.062zm-.396-.288c.18 0 .341.117.396.287l.19-.061a.616.616 0 00-.586-.426v.2zm-1.5 0h1.5v-.2h-1.5v.2zm-.1-9.585v9.485h.2V4.434h-.2zm-.001.003l.001.005v-.008h.2c0-.025-.008-.046-.01-.052l-.191.055zm-.008-.038a.13.13 0 00.008.038l.192-.055-.002-.006v.004l-.198.019zm-.006-.028a.199.199 0 01.006.027l.199-.017c-.002-.024-.008-.045-.01-.058l-.195.048zm0 .002l.194-.052-.193.052zm-.005-.023l.005.02.194-.047-.003-.016-.196.043zm-.07-.16a.405.405 0 01.07.16l.196-.043a.605.605 0 00-.106-.236l-.16.12zm-.023-.046c0 .003.007.025.022.046l.16-.119a.07.07 0 01.01.016c0 .002 0 .004 0 0l-.192.057zm.011.02a.069.069 0 01-.01-.018c-.001-.003-.002-.005 0-.002l.19-.057a.115.115 0 00-.025-.05l-.155.126zm-2.016-2.37l2.018 2.37.152-.129-2.018-2.371-.152.13zm-.318-.148c.122 0 .238.054.318.148l.152-.13a.616.616 0 00-.47-.218v.2zm-19.61 0h19.61v-.2H7.107v.2zm-.318.147a.42.42 0 01.318-.147v-.2a.62.62 0 00-.47.216l.152.13zm-2.018 2.37l2.018-2.37-.152-.13-2.018 2.37.152.13zm.01-.017l.002-.002-.001.002a.066.066 0 01-.01.017l-.154-.129a.147.147 0 00-.028.055l.192.057zm0 .003l-.19-.063.19.063zm-.021.044c.015-.02.02-.043.022-.047L4.59 4.09c0 .004 0 .002 0 0l.007-.012.163.116zm-.069.154a.405.405 0 01.069-.153l-.162-.118a.605.605 0 00-.102.227l.195.044zm-.004.018l.004-.017-.194-.047-.004.018.194.046zM4.68 4.4c0-.01.003-.018.007-.035l-.194-.048c-.004.016-.01.039-.012.065l.199.018zm-.008.038c.001-.005.006-.02.008-.04l-.2-.015.192.055zm0-.005l-.001.01.001-.005-.192-.056a.175.175 0 00-.008.051h.2zm0 9.485V4.434h-.2v9.485h.2zm-1.966.1h1.866v-.2H2.706v.2zm-.401.305a.417.417 0 01.4-.305v-.2a.617.617 0 00-.593.451l.193.054zm-.645 2.308l.645-2.308-.193-.054-.645 2.308.193.054zm.002-.005v-.006l-.002.01-.193-.052a.177.177 0 00-.004.061l.2-.013zm-.001.049a.206.206 0 00.001-.049l-.2.013a.13.13 0 01.001.006v-.005l.198.035zm-.01.04l.01-.04-.197-.035a.244.244 0 01-.006.022l.193.053zm0-.001l-.193-.05.193.05zm-.006.029l.001-.008a.295.295 0 01.005-.02l-.193-.053c-.004.016-.013.046-.013.08h.2zm.003.009a.153.153 0 01-.003-.011v.002h-.2c0 .029.007.053.01.063l.193-.054zm.009.042a.16.16 0 00-.01-.042l-.192.054a.293.293 0 01.003.01v.002l.199-.024zm-.001.046c0-.005.004-.025 0-.047l-.198.026v-.01.004l.198.027zm-.002-.01a.055.055 0 01.001.013v-.003l-.197-.027c-.001.005-.006.03 0 .058l.196-.042zm3.04 14.249l-3.04-14.25-.196.042L4.5 31.122l.196-.042zm1.257 1.275A1.256 1.256 0 014.697 31.1h-.2c0 .801.652 1.454 1.454 1.454v-.2zm21.946 0H5.95v.2h21.945v-.2zM29.14 31.2c.01.587-.548 1.155-1.244 1.155v.2c.796 0 1.455-.648 1.444-1.358l-.2.003zm2.773-14.377l-2.77 14.357.196.038L32.11 16.86l-.196-.038zm-.002.016v.001c0-.003 0-.009.002-.017l.196.038c.005-.028 0-.053 0-.056l-.198.034zm-.002-.046c-.003.023.002.043.002.046l.197-.034v-.002.013l-.199-.023zm.01-.042a.171.171 0 00-.01.042l.199.023.002-.01-.192-.055zm-.003.008l.197.04-.197-.04zm0 0l.197.04-.197-.04zm.005-.015v-.003c0 .002 0 .004-.003.01l.192.055a.219.219 0 00.01-.063h-.2zm.191-.041l-.182.082.182-.082zM28.218 4.85H5.605v.2h22.613v-.2zm.1 2.088V4.951h-.2V6.94h.2zm-22.713.1h22.613v-.2H5.605v.2zm-.1-2.088v1.99h.2V4.951h-.2zm20.973-2.47H7.346v.2h19.132v-.2zm1.216 1.371l-1.14-1.337-.152.13 1.14 1.337.152-.13zm-21.487.165h21.41v-.2H6.208v.2zm1.062-1.502L6.131 3.852l.152.13 1.139-1.337-.153-.13zm20.95 5.358H5.604v.2h22.613v-.2zm.1 6.046V7.973h-.2v5.946h.2zm-.262.1h.161v-.2h-.16v.2zm-5.336-4.873c2.741 0 4.977 2.106 5.237 4.782l.199-.019c-.27-2.776-2.59-4.963-5.436-4.963v.2zm-2.846.85a5.238 5.238 0 012.846-.85v-.2c-1.062 0-2.07.315-2.954.882l.108.169zm-2.963-.85c1.053 0 2.03.318 2.855.85l.108-.167a5.445 5.445 0 00-2.963-.883v.2zm-2.856.851a5.245 5.245 0 012.856-.85v-.2a5.45 5.45 0 00-2.964.882l.108.168zm-2.952-.85c1.021 0 1.993.302 2.844.85l.108-.168a5.423 5.423 0 00-2.952-.883v.2zm-5.237 4.781c.26-2.676 2.495-4.782 5.237-4.782v-.2c-2.848 0-5.167 2.187-5.436 4.963l.199.02zm-.262.09h.162v-.2h-.162v.2zm-.1-6.045v5.946h.2V7.973h-.2zm11.407 2.99c1.742 0 3.176 1.294 3.422 2.97l.198-.029c-.26-1.771-1.776-3.141-3.62-3.141v.2zm-3.422 2.97c.246-1.676 1.68-2.97 3.422-2.97v-.2c-1.844 0-3.36 1.37-3.62 3.141l.198.03zm-.881.086h.782v-.2h-.782v.2zm4.303-4.038c-2.276 0-4.137 1.721-4.402 3.926l.198.024c.254-2.107 2.032-3.75 4.204-3.75v-.2zm4.403 3.926c-.265-2.205-2.126-3.926-4.403-3.926v.2c2.173 0 3.951 1.643 4.204 3.75l.199-.024zm-.882.112h.783v-.2h-.783v.2zm-6.008 0h4.974v-.2h-4.974v.2zm2.487-2.222a2.645 2.645 0 00-2.585 2.101l.196.041a2.445 2.445 0 012.39-1.942v-.2zm2.585 2.101a2.644 2.644 0 00-2.585-2.101v.2c1.175 0 2.159.835 2.389 1.942l.196-.04zm-8.394-2.101a2.645 2.645 0 00-2.585 2.101l.196.041a2.445 2.445 0 012.39-1.942v-.2zm1.006.224a2.616 2.616 0 00-1.006-.224v.2c.32 0 .629.084.93.209l.076-.185zm-.434 1.907c.061-.63.223-1.226.486-1.771l-.18-.087a5.415 5.415 0 00-.505 1.84l.2.018zm-3.059.09h2.96v-.2h-2.96v.2zm2.487-4.037c-2.276 0-4.137 1.721-4.402 3.926l.198.024c.254-2.107 2.032-3.75 4.204-3.75v-.2zm2.09.522a4.418 4.418 0 00-2.09-.522v.2c.707 0 1.385.172 1.996.499l.094-.177zm-.487.762c.162-.214.324-.42.51-.602l-.14-.143c-.197.194-.367.41-.53.625l.16.12zm-1.603-.302c.516 0 1.02.115 1.48.333l.086-.181a3.665 3.665 0 00-1.566-.352v.2zm-3.422 2.97c.246-1.676 1.68-2.97 3.422-2.97v-.2c-1.844 0-3.36 1.37-3.62 3.141l.198.03zm-.881.086h.782v-.2H6.8v.2zm14.863-1.863a5.22 5.22 0 01.486 1.772l.2-.019a5.424 5.424 0 00-.506-1.84l-.18.087zm1.058-.36a2.61 2.61 0 00-1.006.225l.076.184c.3-.124.609-.208.93-.208v-.2zm2.585 2.102a2.645 2.645 0 00-2.585-2.101v.2c1.175 0 2.159.835 2.39 1.942l.195-.04zm-3.057.12h2.959v-.2h-2.96v.2zm.472-3.055c1.742 0 3.176 1.294 3.422 2.97l.198-.029c-.26-1.771-1.776-3.141-3.62-3.141v.2zm-1.48.332a3.46 3.46 0 011.48-.332v-.2a3.66 3.66 0 00-1.566.351l.086.181zm-.633-.632c.186.182.349.388.51.602l.16-.12a5.5 5.5 0 00-.53-.625l-.14.143zm2.113-.682c-.739 0-1.45.18-2.09.522l.095.177a4.21 4.21 0 011.995-.5v-.2zm4.402 3.926c-.265-2.205-2.126-3.926-4.402-3.926v.2c2.172 0 3.95 1.643 4.203 3.75l.199-.024zm-.88.112h.78v-.2h-.78v.2zm4.646 2.177l-.415-1.274-.19.062.414 1.274.19-.062zm-28.147.13h28.051v-.2H2.743v.2zm.26-1.4L2.646 16.2l.193.054.356-1.274-.193-.054zm27.377-.073H3.098v.2h27.28v-.2zM27.895 31.52a.42.42 0 00.42-.42h-.2a.22.22 0 01-.22.22v.2zm-21.945 0h21.945v-.2H5.951v.2zm-.432-.523c.006.157.05.287.127.38a.39.39 0 00.305.143v-.2a.19.19 0 01-.151-.071.427.427 0 01-.081-.26l-.2.008zM2.602 17.282L5.52 31.015l.196-.042-2.92-13.733-.195.042zm28.277-.121H2.7v.2h28.18v-.2zM28.315 31.12l2.662-13.84-.196-.038-2.662 13.84.196.038zm-8.087-11.638a.416.416 0 01.538-.24l.073-.185a.616.616 0 00-.797.353l.186.072zm-.45 1.167l.45-1.167-.186-.072-.451 1.166.186.073zm-5.981.064h5.887v-.2h-5.887v.2zm-.544-1.23l.45 1.166.187-.073-.45-1.166-.187.072zm-.538-.24a.415.415 0 01.538.239l.186-.072a.615.615 0 00-.797-.354l.073.187zm-.24.538a.415.415 0 01.239-.538l-.072-.187a.615.615 0 00-.353.797l.187-.072zm.579 1.498l-.578-1.498-.187.072.578 1.498.187-.072zm.389.268a.417.417 0 01-.389-.268l-.187.072c.092.237.32.396.575.396v-.2zm6.595 0h-6.595v.2h6.595v-.2zm.389-.268a.417.417 0 01-.389.268v.2a.617.617 0 00.575-.396l-.186-.072zm.578-1.498l-.578 1.498.186.072.579-1.498-.187-.072zm-.238-.538a.415.415 0 01.238.538l.187.072a.615.615 0 00-.353-.797l-.072.187zm.036.007v-.2.2zm5.34-13.845H24.92v.2h1.221v-.2zm.616.617a.617.617 0 00-.617-.617v.2c.23 0 .417.187.417.417h.2zm-.617.617c.34 0 .617-.277.617-.617h-.2c0 .23-.187.417-.417.417v.2zm-1.221 0h1.221v-.2h-1.221v.2zm-.616-.617c0 .34.276.617.616.617v-.2a.417.417 0 01-.416-.417h-.2zm.616-.617a.617.617 0 00-.616.617h.2c0-.23.186-.417.416-.417v-.2zm-2.435.617c0-.23.186-.417.416-.417v-.2a.617.617 0 00-.616.617h.2zm.416.417a.417.417 0 01-.416-.417h-.2c0 .34.276.617.616.617v-.2zm.068 0h-.068v.2h.068v-.2zm.383-.417c0 .24-.162.417-.383.417v.2c.35 0 .582-.286.582-.617h-.2zm-.451-.417c.238 0 .45.195.45.417h.2c0-.348-.318-.617-.65-.617v.2zm-1.562-.2a.617.617 0 00-.616.617h.2c0-.23.187-.417.416-.417v-.2zm.655.617c0-.348-.324-.617-.655-.617v.2c.24 0 .454.196.455.417h.2zm-.579.617c.35 0 .579-.287.579-.617h-.2c0 .24-.16.417-.379.417v.2zm-.076 0h.076v-.2h-.076v.2zm-.616-.617c0 .34.276.617.616.617v-.2a.417.417 0 01-.416-.417h-.2z" fill="#C40E38"/></svg>