<svg width="34" height="34" fill="none" xmlns="http://www.w3.org/2000/svg"><path d="M10.833 15.377a4.157 4.157 0 004.158-4.041v-.232a4.158 4.158 0 10-4.158 4.273zm2.319-1.847a3.26 3.26 0 11-4.606-4.617 3.26 3.26 0 014.606 4.617zM24.41 7.063h-3.5a4.144 4.144 0 00-.263 8.284h3.771a4.157 4.157 0 100-8.315l-.008.031zm-5.81 6.468a3.284 3.284 0 112.318.95h-.039a3.213 3.213 0 01-2.28-.95zm6.467-2.195v-.232a4.174 4.174 0 00-1.615-3.175h.966a3.269 3.269 0 110 6.537h-.966a4.174 4.174 0 001.615-3.13zm-2.333 6.8a4.158 4.158 0 104.157 4.273v-.232a4.157 4.157 0 00-4.157-4.041zm2.318 6.468a3.26 3.26 0 11.709-1.062c-.166.398-.41.759-.717 1.061h.008zm-14.219-5.773a3.461 3.461 0 103.454 3.578v-.232a3.454 3.454 0 00-3.454-3.346zm0 6.027a2.573 2.573 0 112.565-2.565 2.565 2.565 0 01-2.565 2.565z" fill="#fff"/><path d="M10.88 17.24a5.053 5.053 0 105.046 5.169v-.232a5.054 5.054 0 00-5.046-4.938zm2.937 7.99a4.15 4.15 0 11-5.857-5.88 4.15 4.15 0 015.857 5.88z" fill="#fff"/><path d="M28.884 3.863H5.517A1.654 1.654 0 003.88 5.517v23.367a1.654 1.654 0 001.654 1.654H28.9a1.654 1.654 0 001.654-1.654V5.517a1.653 1.653 0 00-1.67-1.654zm.727 25.021a.726.726 0 01-.727.727H5.517a.726.726 0 01-.726-.727V5.517a.726.726 0 01.726-.726h23.367a.727.727 0 01.727.726v23.367z" fill="#fff"/></svg>