<svg width="34" height="34" fill="none" xmlns="http://www.w3.org/2000/svg"><path d="M11.36 10.2a1.932 1.932 0 10.015-3.864 1.932 1.932 0 00-.015 3.864zm-1.02-1.925a1.058 1.058 0 111.05 1.051 1.05 1.05 0 01-1.05-1.05zm6.861 1.925a1.932 1.932 0 10.016-3.864A1.932 1.932 0 0017.2 10.2zm-1.05-1.925a1.06 1.06 0 111.05 1.051 1.05 1.05 0 01-1.05-1.05zm6.893 1.925a1.932 1.932 0 10.092-3.863 1.932 1.932 0 00-.092 3.863zm-1.051-1.924a1.058 1.058 0 111.05 1.05 1.05 1.05 0 01-1.05-1.05zM7.58 27.146h19.25V17.101H7.58v10.045zm18.376-9.273v8.462H8.453v-8.439l17.503-.023zm-19.882-1.8h22.263v-2.674H6.073v2.674zm21.39-1.808v.935H6.946v-.935h20.516z" fill="#fff"/><path d="M28.884 3.863H5.517a1.654 1.654 0 00-1.654 1.654v23.367a1.654 1.654 0 001.654 1.654h23.367a1.654 1.654 0 001.654-1.654V5.517a1.654 1.654 0 00-1.654-1.654zm-23.367.928h23.367a.773.773 0 01.773.726v5.625H4.79V5.517a.726.726 0 01.726-.726zm23.367 24.82H5.517a.726.726 0 01-.726-.727v-16.73h24.866v16.73a.773.773 0 01-.773.726z" fill="#fff"/></svg>