<svg width="20" height="20" fill="none" xmlns="http://www.w3.org/2000/svg"><g clip-path="url(#clip0_963_2687)"><path d="M10 1.802c2.672 0 2.985.012 4.041.06.977.044 1.505.206 1.858.345.469.183.802.397 1.151.747.35.349.568.682.747 1.15.135.354.302.882.345 1.859.048 1.056.06 1.37.06 4.041 0 2.672-.012 2.985-.06 4.041-.043.977-.206 1.505-.345 1.858a3.104 3.104 0 01-.747 1.151 3.05 3.05 0 01-1.15.747c-.354.135-.882.301-1.859.345-1.056.048-1.37.06-4.041.06-2.672 0-2.985-.012-4.041-.06-.977-.044-1.505-.206-1.858-.345a3.104 3.104 0 01-1.151-.747 3.055 3.055 0 01-.747-1.15c-.135-.354-.301-.882-.345-1.859-.048-1.056-.06-1.37-.06-4.041 0-2.672.012-2.985.06-4.041.044-.977.206-1.505.345-1.858.183-.469.397-.802.747-1.151a3.05 3.05 0 011.15-.747c.354-.135.882-.301 1.859-.345 1.056-.052 1.373-.06 4.041-.06zM10 0C7.285 0 6.943.012 5.875.06 4.811.107 4.085.278 3.45.524c-.66.254-1.215.6-1.77 1.155A4.96 4.96 0 00.523 3.45C.278 4.086.107 4.812.06 5.88.012 6.943 0 7.285 0 10s.012 3.057.06 4.125c.047 1.064.218 1.79.464 2.43.254.658.6 1.214 1.155 1.77a4.961 4.961 0 001.77 1.155c.636.246 1.362.417 2.43.464 1.068.048 1.406.06 4.125.06 2.72 0 3.057-.012 4.125-.06 1.064-.047 1.79-.218 2.43-.464a4.875 4.875 0 001.77-1.155 4.959 4.959 0 001.155-1.77c.246-.636.417-1.362.464-2.43.048-1.068.06-1.406.06-4.125 0-2.72-.012-3.057-.06-4.125-.047-1.064-.218-1.79-.464-2.43a4.873 4.873 0 00-1.155-1.77A4.96 4.96 0 0016.559.52c-.636-.246-1.363-.417-2.43-.464C13.057.012 12.715 0 10 0z" fill="#B6B6B6"/><path d="M10 1.802c2.672 0 2.985.012 4.041.06.977.044 1.505.206 1.858.345.469.183.802.397 1.151.747.35.349.568.682.747 1.15.135.354.302.882.345 1.859.048 1.056.06 1.37.06 4.041 0 2.672-.012 2.985-.06 4.041-.043.977-.206 1.505-.345 1.858a3.104 3.104 0 01-.747 1.151 3.05 3.05 0 01-1.15.747c-.354.135-.882.301-1.859.345-1.056.048-1.37.06-4.041.06-2.672 0-2.985-.012-4.041-.06-.977-.044-1.505-.206-1.858-.345a3.104 3.104 0 01-1.151-.747 3.055 3.055 0 01-.747-1.15c-.135-.354-.301-.882-.345-1.859-.048-1.056-.06-1.37-.06-4.041 0-2.672.012-2.985.06-4.041.044-.977.206-1.505.345-1.858.183-.469.397-.802.747-1.151a3.05 3.05 0 011.15-.747c.354-.135.882-.301 1.859-.345 1.056-.052 1.373-.06 4.041-.06z" fill="#B6B6B6"/><path d="M10 4.867a5.138 5.138 0 10.002 10.276A5.138 5.138 0 0010 4.867zm0 8.468a3.334 3.334 0 110-6.669 3.334 3.334 0 010 6.669zm5.34-7.475a1.199 1.199 0 100-2.398 1.199 1.199 0 000 2.397z" fill="#333"/></g><defs><clipPath id="clip0_963_2687"><path fill="#fff" d="M0 0h20v20H0z"/></clipPath></defs></svg>