<svg width="70" height="70" fill="none" xmlns="http://www.w3.org/2000/svg"><g clip-path="url(#clip0_735_2712)" fill="#C40E38"><path d="M63.751 2.385H6.314a3.8 3.8 0 00-2.72 1.145A3.864 3.864 0 002.45 6.25v57.5a3.896 3.896 0 001.145 2.736 3.849 3.849 0 002.719 1.129H63.75a3.865 3.865 0 002.736-1.13 3.88 3.88 0 001.129-2.734V6.249a3.849 3.849 0 00-2.385-3.555 3.864 3.864 0 00-1.48-.293v-.016zM6.314 0H63.75A6.265 6.265 0 0170 6.25v57.5A6.25 6.25 0 0163.75 70H6.314a6.264 6.264 0 01-6.36-6.25V6.25A6.36 6.36 0 016.313 0z"/><path d="M24.426 58.36a6.617 6.617 0 01-2.083.35 3.53 3.53 0 01-2.529-.827 3.084 3.084 0 01-.89-2.274 3.182 3.182 0 013.578-3.18 4.5 4.5 0 011.733.301l-.302 1.13a3.291 3.291 0 00-1.447-.27 2.036 2.036 0 00-.096 4.07c.23.01.462-.017.684-.08v-1.32h-.97v-1.097h2.322v3.197zm2.082-1.305l-.446 1.59h-1.447l1.893-6.233h1.86l1.94 6.234h-1.59l-.477-1.59h-1.733zm1.59-1.065l-.398-1.32a14.9 14.9 0 01-.302-1.208c-.095.381-.19.842-.286 1.208l-.382 1.32h1.368zm2.608 1.209a3.69 3.69 0 001.59.381c.652 0 1.002-.254 1.002-.667 0-.414-.302-.605-1.05-.875-1.033-.366-1.717-.938-1.717-1.845 0-.906.89-1.876 2.353-1.876a3.626 3.626 0 011.59.318l-.301 1.129a2.83 2.83 0 00-1.305-.302c-.604 0-.906.286-.906.604s.334.572 1.161.89c1.097.398 1.59.97 1.59 1.861 0 .89-.795 1.924-2.512 1.924a4.168 4.168 0 01-1.765-.381l.27-1.161zm30.231-15.361h-.302v-5.296c-.319-3.387-2.895-9.78-10.352-9.78-7.459 0-10.035 6.361-10.337 9.876v5.184h-.238c-1.193.27-3.18 1.272-3.18 3.18V56.58c.11.286 2.941 6.87 13.675 6.87h.143c10.734 0 13.564-6.584 13.676-6.87V45.05c0-1.908-2.052-2.91-3.18-3.18l.095-.032zm-10.75-12.801c7.267 0 8.078 7.426 8.094 7.633v5.183h-2.385v-5.581a5.613 5.613 0 00-11.211.08v5.486h-2.497V36.78c.032-.35.843-7.776 8.094-7.776l-.095.032zm3.944 7.315v5.502H46.18v-5.407s.365-4.023 3.943-4.023c3.435-.048 4.024 3.276 4.103 3.896l-.095.032zm7.84 19.511c-.494.97-3.181 5.311-11.514 5.311h-.143c-8.332 0-11.02-4.357-11.513-5.31V45.017c0-.398.843-.811 1.416-.97h20.322c.525.159 1.4.588 1.4.97l.031 10.845z"/><path d="M24.967 64.084C9.876 59.473.557 51.03 9.065 46.02c5.55-3.292 14.773-1.845 19.623-3.18 2.194-.605 4.166-4.008-8.317-6.504-8.746-1.734-7.95-9.462-7.95-9.462 1.287 9.7 17.952 5.995 27.62 9.064 0 .239 0 .461-.079.668v5.184h-.254c-1.193.27-3.18 1.272-3.18 3.18v3.451c-7.316 1.383-16.46 1.797-19.814 3.45-6.616 3.292 8.253 12.277 8.253 12.277"/><path d="M36.527 48.422v-3.34c0-1.908 2.052-2.91 3.18-3.18h.176v-5.184c0-.207 0-.43.08-.668l.54.175-.43 6.472a9.874 9.874 0 00-3.069 5.645l-.477.08zM15.44 14.169v7.044h.859l-.096 3.642H14.74l-.095-2.163H9.62l-.127 2.21h-1.48l-.11-3.64h.73a9.178 9.178 0 00.812-1.909c.23-.931.342-1.887.334-2.847v-2.29l5.66-.047zm-3.817 2.72c.007.95-.121 1.898-.381 2.814-.141.5-.333.985-.573 1.447h2.847v-5.407h-1.893v1.145zm6.982-2.736l1.257 3.085c.238.604.397 1.129.604 1.59.111-.381.254-.954.461-1.686l.922-3.053h2.052l-1.59 4.23a13.96 13.96 0 01-1.686 3.483 2.799 2.799 0 01-2.274 1.129 2.86 2.86 0 01-.954-.143l.143-1.59c.211.028.425.028.636 0a1.287 1.287 0 001.177-.78v-.413l-2.878-5.947 2.13.095zm10.75 8.587l-.763-1.59a20.276 20.276 0 01-.764-1.59c-.174.493-.397.954-.667 1.59l-.7 1.59h-2.242l2.48-4.341-2.4-4.23h2.226l.747 1.59c.254.525.445.938.652 1.431.207-.556.366-.922.588-1.43l.716-1.591h2.21l-2.417 4.182 2.544 4.39h-2.21zm10.639-4.373a4.071 4.071 0 01-4.214 4.5 3.99 3.99 0 01-4.023-4.373 4.152 4.152 0 014.166-4.484 4.006 4.006 0 014.07 4.357zm-6.202.095c0 1.686.795 2.878 2.1 2.878 1.303 0 2.05-1.256 2.05-2.91 0-1.654-.715-2.878-2.05-2.878-1.337 0-2.1 1.24-2.1 2.91zm7.505-4.182a18.403 18.403 0 012.497-.175 4.867 4.867 0 012.544.477 1.862 1.862 0 011.017 1.702 1.94 1.94 0 01-1.415 1.812 2.115 2.115 0 011.718 2.115 2.305 2.305 0 01-.89 1.845 5.39 5.39 0 01-3.356.763 14.955 14.955 0 01-2.1-.127l-.015-8.412zm1.924 3.276h.62c1.034 0 1.59-.414 1.59-1.05 0-.636-.493-.986-1.367-.986a4.327 4.327 0 00-.827 0l-.016 2.036zm0 3.8c.249.02.499.02.747 0 .875 0 1.59-.35 1.59-1.256s-.779-1.193-1.749-1.193h-.652l.064 2.45zm7.617-7.187v3.578h.175l2.353-3.578h2.354l-2.974 3.816a2.672 2.672 0 011.94 2.052c.282.92.616 1.822 1.002 2.703h-2.067a12.716 12.716 0 01-.668-1.892c-.286-.954-.684-1.702-1.734-1.702h-.381v3.594H48.93v-8.57h1.908zm7.57 0v2.544c0 1.368 0 2.735-.096 3.88.462-1.017 1.034-2.146 1.59-3.053l1.845-3.371h1.972v8.571H61.97v-2.528c0-1.32 0-2.497.143-3.61a24.39 24.39 0 01-1.463 3.037l-1.75 3.18h-2.273v-8.57l1.781-.08zM10.86 6.026v1.018H8.763v4.5h-1.24V6.026h3.339zm1.337 4.104l-.397 1.414h-1.288l1.685-5.518h1.59l1.718 5.518h-1.24l-.414-1.415h-1.654zm1.4-.94l-.35-1.176c-.096-.318-.191-.731-.27-1.065 0 .334-.16.747-.255 1.065l-.334 1.177h1.209zm2.527-2.83a3.387 3.387 0 011.717-.429c1.209 0 1.924.605 1.924 1.416a1.32 1.32 0 01-1.113 1.288 1.4 1.4 0 011.288 1.32c0 1.24-1.24 1.59-2.274 1.59a3.388 3.388 0 01-1.59-.382l.27-.97c.413.219.87.338 1.336.35.62 0 1.002-.27 1.002-.732 0-.46-.636-.731-1.16-.731h-.526v-.922h.446c.572 0 1.002-.255 1.002-.7 0-.445-.303-.604-.843-.604a2.83 2.83 0 00-1.209.334l-.27-.827zm6.506 2.004h-2.148v.827h2.147v-.827zm2.035-2.338v2.29h.111l1.59-2.29h1.51l-1.923 2.45a1.781 1.781 0 011.272 1.335 13.3 13.3 0 00.636 1.733h-1.352a7.943 7.943 0 01-.413-1.224c-.19-.604-.445-1.081-1.13-1.081h-.222v2.305h-1.24V6.026h1.16zm8.681 2.641a2.622 2.622 0 01-2.72 2.894 2.576 2.576 0 01-2.591-2.815 2.672 2.672 0 012.687-2.878 2.576 2.576 0 012.624 2.799zm-3.992 0c0 1.08.51 1.844 1.336 1.844.827 0 1.336-.795 1.336-1.876 0-1.082-.477-1.845-1.336-1.845-.859 0-1.383.922-1.383 2.004l.047-.127zm6.011-2.641v2.115h2.052V6.026h1.256v5.518h-1.256V9.223h-2.052v2.321h-1.24V6.026h1.24zm5.472 1.05h-1.495v-1.05h4.246v1.05h-1.511v4.468h-1.24V7.076zm3.417-.986a10.451 10.451 0 011.686-.11 2.576 2.576 0 011.685.445 1.59 1.59 0 01.589 1.272 1.686 1.686 0 01-.51 1.32 2.608 2.608 0 01-1.78.572h-.43v1.988h-1.24V6.09zm1.24 2.513h.414c.668 0 1.081-.334 1.081-.89 0-.557-.366-.811-.986-.811h-.509v1.701zm8.526.063a2.624 2.624 0 01-2.72 2.894 2.576 2.576 0 01-2.592-2.814 2.674 2.674 0 012.688-2.879 2.56 2.56 0 012.624 2.8zm-3.992 0c0 1.081.51 1.845 1.336 1.845.827 0 1.336-.795 1.336-1.877 0-1.081-.477-1.844-1.336-1.844-.859 0-1.304.922-1.304 2.003l-.032-.127zm8.92-2.64v5.518h-1.24V7.076h-1.256V8.38c0 1.431-.175 2.528-1.018 3.021-.34.17-.717.257-1.097.255l-.16-1.002c.242-.02.468-.128.637-.302a2.86 2.86 0 00.413-1.877V6.058l3.721-.032zm2.337 0V7.95c.223-.017.446-.017.668 0 1.193 0 2.195.557 2.195 1.782a1.59 1.59 0 01-.446 1.208 3.18 3.18 0 01-2.305.7c-.45.034-.902.034-1.352 0V6.154l1.24-.128zm0 4.612h.461c.605 0 1.098-.302 1.098-.922 0-.62-.477-.89-1.082-.89h-.477v1.812zM50.425 48.42c-1.097 0-1.972 1.591-1.972 3.579 0 1.988.875 3.578 1.972 3.578s1.972-1.59 1.972-3.578c0-1.988-.89-3.578-1.972-3.578z"/></g><defs><clipPath id="clip0_735_2712"><path fill="#fff" d="M0 0h70v70H0z"/></clipPath></defs></svg>