<svg width="70" height="70" fill="none" xmlns="http://www.w3.org/2000/svg"><g clip-path="url(#clip0_735_2743)" fill="#C40E38"><path d="M18.828 34.825v-7.728c-.729.2-1.39.595-1.908 1.145a3.991 3.991 0 000 5.486 4.04 4.04 0 001.86 1.097h.048zm32.297-7.728v7.728a3.991 3.991 0 001.908-6.583 4.118 4.118 0 00-1.86-1.145h-.048zM36.655 49.12h-10.05a7.824 7.824 0 01-7.777-7.776v-4.468a6.042 6.042 0 01-3.307-1.75 5.994 5.994 0 013.307-10.081v-3.18h2.02v19.479a5.756 5.756 0 005.756 5.757h16.793a5.756 5.756 0 005.756-5.757V21.929h2.02v3.18a5.995 5.995 0 013.307 10.082 6.043 6.043 0 01-3.307 1.75v4.468a7.823 7.823 0 01-7.776 7.776h-6.695l-.048-.064zM20.927 19.146a1 1 0 01-1.384.318 1.017 1.017 0 01-.318-1.4 10.13 10.13 0 015.566-3.673 31.806 31.806 0 017.362-.858 2.863 2.863 0 015.693 0 30.71 30.71 0 016.902.843 10.05 10.05 0 015.565 3.673 1.007 1.007 0 11-1.701 1.081 7.951 7.951 0 00-4.42-2.75 37.527 37.527 0 00-9.033-.78h-.78a37.529 37.529 0 00-8.984.78 7.951 7.951 0 00-4.42 2.83M9.048 55.943a1.192 1.192 0 110-2.385h51.904a1.193 1.193 0 010 2.385H9.048z"/><path d="M63.751 2.385H6.314A3.88 3.88 0 002.45 6.249v57.485a3.912 3.912 0 003.864 3.88H63.75a3.896 3.896 0 003.572-2.4c.194-.469.293-.972.293-1.48V6.25a3.85 3.85 0 00-3.865-3.864zM6.314 0H63.75A6.25 6.25 0 0170 6.25v57.484A6.265 6.265 0 0163.75 70H6.314a6.36 6.36 0 01-6.36-6.266V6.25A6.265 6.265 0 016.313 0z"/></g><defs><clipPath id="clip0_735_2743"><path fill="#fff" d="M0 0h70v70H0z"/></clipPath></defs></svg>