<svg width="70" height="70" fill="none" xmlns="http://www.w3.org/2000/svg"><g clip-path="url(#clip0_735_2631)" fill="#C40E38"><path d="M63.75 2.385H6.266a3.912 3.912 0 00-3.88 3.864v57.502a3.896 3.896 0 002.4 3.571c.47.194.973.293 1.48.293h57.486a3.85 3.85 0 003.864-3.864V6.249a3.88 3.88 0 00-3.864-3.864zM6.266 0h57.486a6.265 6.265 0 016.265 6.25v57.5A6.265 6.265 0 0163.75 70H6.265a6.217 6.217 0 01-4.42-1.829A6.36 6.36 0 010 63.751V6.249a6.36 6.36 0 011.845-4.42A6.218 6.218 0 016.265 0z"/><path fill-rule="evenodd" clip-rule="evenodd" d="M44.286 34.773A16.347 16.347 0 1026.1 61.944a16.347 16.347 0 0018.187-27.17zm-5.543 8.312a6.36 6.36 0 10-7.068 10.578 6.36 6.36 0 007.068-10.578z"/><path d="M58.9 23.503l.43-1.59c.111-.413.223-.954.318-1.384.111.43.239.955.366 1.384l.445 1.59h-1.558zm1.83 1.225l.556 1.844h1.797l-2.258-7.203h-2.13L56.5 26.572h1.685l.51-1.844h2.035zm-10.194-5.36v7.204h1.59V23.63h.319c.874 0 1.208.62 1.447 1.431.151.542.337 1.073.556 1.59h1.75a21.208 21.208 0 01-.827-2.257 2.274 2.274 0 00-1.59-1.734l2.496-3.18h-1.972l-1.972 3.005h-.159V19.48l-1.638-.111zm-4.611 1.241a2.96 2.96 0 01.668 0c.81 0 1.272.398 1.272 1.05s-.525 1.16-1.4 1.16c-.18.02-.36.02-.54 0v-2.21zm-1.59 5.963h1.59V23.98c.185.02.372.02.556 0a3.34 3.34 0 002.338-.763 2.21 2.21 0 00.668-1.702 2.082 2.082 0 00-.78-1.59 3.45 3.45 0 00-2.194-.572 14.3 14.3 0 00-2.21.143l.032 7.076zm-4.516-6.043c1.129 0 1.733 1.114 1.733 2.418s-.636 2.448-1.733 2.448c-1.098 0-1.75-.985-1.75-2.417 0-1.43.605-2.449 1.718-2.449h.032zm0-1.288a3.497 3.497 0 00-3.499 3.77 3.356 3.356 0 003.387 3.672 3.419 3.419 0 003.53-3.784 3.356 3.356 0 00-3.418-3.658zm-7.331 1.59c.684.08 1.463.62 1.463 2.131 0 1.511-.811 2.068-1.463 2.131v-4.261zm-1.51 4.262c-.653 0-1.464-.7-1.464-2.099 0-1.4.811-2.083 1.463-2.162v4.261zm0-6.01v.62a3.18 3.18 0 00-3.086 3.323 3.021 3.021 0 003.07 3.18v.605h1.59v-.652a3.276 3.276 0 000-6.536v-.62l-1.575.08zm-10.114.302v7.203h1.59V23.63h2.687v3.006h1.59v-7.204h-1.59V22.2h-2.687v-2.767l-1.59-.047zm-4.532 1.16c1.129 0 1.733 1.113 1.733 2.417 0 1.305-.636 2.45-1.733 2.45-1.098 0-1.75-.986-1.75-2.418 0-1.43.636-2.465 1.75-2.465v.016zm0-1.288a3.497 3.497 0 00-3.499 3.77 3.356 3.356 0 003.387 3.672 3.418 3.418 0 003.53-3.784 3.356 3.356 0 00-3.387-3.674l-.031.016zm-9.621.128v7.203H8.3V23.63h.318c.875 0 1.209.62 1.447 1.431.152.542.337 1.073.557 1.59h1.765a18.27 18.27 0 01-.843-2.257 2.274 2.274 0 00-1.59-1.734l2.512-3.18H10.48l-1.972 3.005h-.16V19.48l-1.637-.095zm53.653-8.079V12.5h2.942v-1.13l-2.942-.063zm-.97 1.972a4.23 4.23 0 01-1.447.239 2.497 2.497 0 010-4.977 3.42 3.42 0 011.447.286l.35-1.352a4.166 4.166 0 00-1.86-.334 3.848 3.848 0 00-4.135 4.008 3.61 3.61 0 003.96 3.8 5.12 5.12 0 001.94-.318l-.255-1.352zm-6.695 0a4.23 4.23 0 01-1.447.239 2.26 2.26 0 01-2.417-2.465 2.29 2.29 0 012.417-2.512c.492-.01.98.088 1.431.286l.366-1.352a4.246 4.246 0 00-1.876-.334 3.848 3.848 0 00-4.135 4.008 3.61 3.61 0 003.976 3.8 5.07 5.07 0 001.924-.318l-.239-1.352zm-6.806-3.053h-2.782v-1.59h2.941v-1.4h-4.659v7.57h4.77v-1.4h-3.1V11.61h2.783l.047-1.384zm-9.35-1.59a3.18 3.18 0 01.7 0c.858 0 1.351.413 1.351 1.113s-.556 1.225-1.478 1.225c-.19.028-.383.028-.573 0V8.635zM34.842 14.9h1.701v-2.719c.196.018.393.018.588 0a3.562 3.562 0 002.465-.795 2.37 2.37 0 00.7-1.797 2.194 2.194 0 00-.811-1.765 3.689 3.689 0 00-2.322-.604c-.777-.014-1.553.04-2.321.159V14.9zM27.24 7.331v7.57h1.717V8.73h2.703v6.17h1.702V7.25l-6.122.08zm-1.384 6.027a4.23 4.23 0 01-1.447.238 2.26 2.26 0 01-2.417-2.464 2.29 2.29 0 012.401-2.513c.498-.01.991.087 1.447.286l.366-1.351a4.246 4.246 0 00-1.877-.334 3.848 3.848 0 00-4.134 4.007 3.61 3.61 0 003.975 3.8c.656.02 1.31-.088 1.925-.317l-.239-1.352zm-12.07-6.106v7.569h1.59v-3.18h.319c.922 0 1.272.651 1.59 1.51.163.542.36 1.073.588 1.59h1.845a22.264 22.264 0 01-.875-2.385 2.402 2.402 0 00-1.733-1.813l2.64-3.371h-2.068l-2.083 3.18h-.222v-3.18l-1.59.08zm-6.249 4.404h3.18a2.1 2.1 0 01-2.242 1.893 4.277 4.277 0 01-1.59-.27l-.302 1.303a5.024 5.024 0 001.956.366 3.672 3.672 0 003.96-3.896 3.58 3.58 0 00-3.801-3.928 5.152 5.152 0 00-2.02.43l.334 1.272a4.214 4.214 0 011.59-.318 1.956 1.956 0 012.084 1.813h-3.18l.031 1.335z"/></g><defs><clipPath id="clip0_735_2631"><path fill="#fff" d="M0 0h70v70H0z"/></clipPath></defs></svg>