<svg width="70" height="70" fill="none" xmlns="http://www.w3.org/2000/svg"><g clip-path="url(#clip0_735_2703)" fill="#C40E38"><path d="M63.75 2.385H6.266a3.912 3.912 0 00-3.88 3.864v57.502a3.88 3.88 0 003.88 3.864h57.486a3.865 3.865 0 002.735-1.13 3.866 3.866 0 001.129-2.734V6.248a3.848 3.848 0 00-2.384-3.555 3.864 3.864 0 00-1.48-.293v-.016zM6.266.015h57.486a6.36 6.36 0 016.265 6.25v57.501a6.265 6.265 0 01-6.265 6.25H6.265a6.22 6.22 0 01-4.42-1.829A6.36 6.36 0 010 63.767V6.248A6.36 6.36 0 016.265 0v.016z"/><path d="M46.576 38.689a3.102 3.102 0 11.334-4.357 3.18 3.18 0 01-.334 4.357zm3.038 2.815c5.995-5.677 5.517-14.312 5.517-14.312s-8.396-1.813-14.931 3.18C33.664 35.365 24.473 46.1 24.473 46.1l1.94 2.258 3.18 3.8 1.988 2.323s12.037-7.3 18.033-12.976zM37.1 52.651l-4.882 2.894-.334 3.276-3.212 3.594.636.748 6.79-4.23L37.1 52.65zM27.256 40.9l-3.61 4.372-3.29-.19L16.3 47.69l-.636-.732 5.248-6.059h6.345zM24.25 61.174c.254-.206.683-.667.7-.667a14.9 14.9 0 003.847-6.457l-4.627-5.406c-1.988-.54-5.12 1.86-5.12 1.86a13.056 13.056 0 00-4.087 5.9 4.771 4.771 0 013.578-1.59s-5.757 4.77-6.822 9.652c0 0 .668-2.162 4.882-3.18a16.17 16.17 0 003.8-1.304l-.207.445c-.938 2.29-2.353 2.48-2.353 2.48a9.78 9.78 0 006.583-3.1 3.18 3.18 0 01-.175 1.224M59.155 9.732a3.81 3.81 0 01.97-.08c.97 0 1.59.446 1.59 1.304 0 .86-.62 1.352-1.686 1.352h-.842l-.032-2.576zm-2.115 7.824h2.115v-3.721h.636c.875 0 1.272.334 1.59 1.59.148.75.366 1.485.652 2.194h2.179a27.668 27.668 0 01-.764-2.671 2.29 2.29 0 00-1.256-1.75 2.496 2.496 0 001.67-2.305 2.336 2.336 0 00-.89-1.972 4.77 4.77 0 00-3.038-.747 18.878 18.878 0 00-2.846.19l-.048 9.192zm-1.908-5.71h-3.467v-1.97h3.673V8.141h-5.804v9.414h6.011v-1.75h-3.88V13.58h3.467v-1.733zm-11.434 5.71h2.115V9.923h2.576V8.142h-7.235v1.78h2.544v7.634zm-9.748-.446c.834.4 1.748.601 2.672.589 2.576 0 3.785-1.336 3.785-2.926 0-1.32-.764-2.195-2.433-2.799-1.225-.477-1.75-.731-1.75-1.336 0-.604.446-.906 1.368-.906a4.453 4.453 0 011.956.445l.477-1.701a5.406 5.406 0 00-2.401-.477c-2.21 0-3.562 1.208-3.562 2.814s1.033 2.242 2.592 2.799c1.145.398 1.59.732 1.59 1.32 0 .588-.525 1.018-1.495 1.018a5.248 5.248 0 01-2.37-.589l-.429 1.75zm-5.565-7.458c1.479 0 2.274 1.464 2.274 3.18 0 1.718-.827 3.181-2.274 3.181s-2.29-1.304-2.29-3.18c0-1.877.89-3.18 2.338-3.18h-.048zm0-1.685a4.564 4.564 0 00-4.58 4.93 4.405 4.405 0 004.42 4.77 4.484 4.484 0 004.644-4.961 4.404 4.404 0 00-4.389-4.74h-.095zM18.319 9.652c1.463 0 2.258 1.464 2.258 3.18 0 1.718-.827 3.181-2.258 3.181s-2.29-1.304-2.29-3.18c0-1.877.938-3.18 2.385-3.18h-.095zm0-1.685a4.564 4.564 0 00-4.58 4.93 4.42 4.42 0 004.437 4.77 4.486 4.486 0 004.627-4.961 4.39 4.39 0 00-4.357-4.74h-.127zm-10.48 5.422h.732c1.05 0 1.908.382 1.908 1.32 0 .939-.858 1.368-1.813 1.368-.275.02-.551.02-.826 0v-2.688zm0-3.72c.302-.018.605-.018.907 0 .97 0 1.59.381 1.59 1.08 0 .7-.588 1.162-1.717 1.162h-.7l-.08-2.243zm-2.003 7.855a17.41 17.41 0 002.306.143 5.963 5.963 0 003.705-.859 2.528 2.528 0 00.986-2.02 2.353 2.353 0 00-1.877-2.305 2.131 2.131 0 001.59-1.988 2.035 2.035 0 00-1.128-1.86 5.216 5.216 0 00-2.8-.54c-.92-.004-1.84.06-2.75.19l-.032 9.239z"/></g><defs><clipPath id="clip0_735_2703"><path fill="#fff" d="M0 0h70v70H0z"/></clipPath></defs></svg>