<svg width="70" height="70" fill="none" xmlns="http://www.w3.org/2000/svg"><path d="M63.735 2.4H6.249a3.88 3.88 0 00-3.864 3.864v57.488a3.847 3.847 0 001.13 2.719 3.8 3.8 0 002.734 1.144h57.486a3.865 3.865 0 002.735-1.128 3.8 3.8 0 001.145-2.72V6.249A3.863 3.863 0 0066.47 3.53a3.864 3.864 0 00-2.735-1.128zM6.249.017h57.486A6.361 6.361 0 0170 6.264v57.488a6.232 6.232 0 01-1.845 4.404A6.234 6.234 0 0163.735 70H6.249A6.266 6.266 0 010 63.752V6.248a6.215 6.215 0 011.829-4.404A6.202 6.202 0 016.249 0v.016z" fill="#C40E38"/><path fill-rule="evenodd" clip-rule="evenodd" d="M17.11 15.676h4.93l.174-1.43h-3.896a1.431 1.431 0 00-1.209 1.43zm21.086 0h4.913l.191-1.43h-3.896a1.415 1.415 0 00-1.208 1.43zm-12.336 0h4.93l.174-1.43h-3.896a1.431 1.431 0 00-1.209 1.43zm21 0h4.929l.19-1.43h-3.863a1.431 1.431 0 00-1.225 1.43m-24.357-1.431l-.62 6.36.78.937a1.304 1.304 0 001.001-1.144c.127-.986.525-4.77.525-4.77s0-1.367-1.686-1.32m21.086-.063l-.636 6.36.78.937a1.305 1.305 0 001.001-1.144c.143-.986.541-4.77.541-4.77s0-1.367-1.686-1.32m-12.406-.063l-.62 6.36.779.937a1.32 1.32 0 001.002-1.144c.127-.986.525-4.77.525-4.77s0-1.367-1.686-1.32m21.086-.063l-.636 6.36.78.937a1.304 1.304 0 001.001-1.144c.143-.986.54-4.77.54-4.77a1.43 1.43 0 00-1.685-1.32m-30.679 6.741l.636.874-.858.637h-3.42l-.635-.637.874-.874h3.403zm21.079 0l.651.874-.874.637h-3.403l-.652-.637.875-.874H42.7zm-12.391 0l.636.874-.859.637h-3.419l-.636-.637.859-.874h3.419zm21.071 0l.651.874-.874.637h-3.42l-.635-.637.874-.874h3.403zm-32.744-5.055c0-.127-.589 4.69-.589 4.69l-.858.858a1.86 1.86 0 01-.652-1.812c.206-1.24.524-3.736.524-3.736h1.575zm21.082 0c0-.127-.605 4.69-.605 4.69l-.858.858a1.844 1.844 0 01-.636-1.812c.19-1.24.509-3.736.509-3.736h1.59zm-12.402-.001c0-.127-.605 4.69-.605 4.69l-.858.795a1.862 1.862 0 01-.652-1.812c.19-1.24.509-3.736.509-3.736l1.606.063zm21.089.001c0-.127-.604 4.69-.604 4.69l-.859.858a1.844 1.844 0 01-.636-1.812c.191-1.24.51-3.736.51-3.736h1.59zm-25.94 6.216l-.89.668-.716 4.626.827 1.463a2.162 2.162 0 001.034-1.59c.207-1.272.588-4.34.588-4.34l-.843-.827zm21.313 0l-.89.668-.7 4.626.826 1.463a2.21 2.21 0 001.034-1.59c.19-1.272.588-4.34.588-4.34l-.858-.827zm-12.625 0l-.89.668-.716 4.626.827 1.463a2.163 2.163 0 001.033-1.59c.207-1.272.589-4.34.589-4.34l-.843-.827zm21.398 0l-.906.668-.7 4.626.827 1.463a2.162 2.162 0 001.034-1.59c.207-1.272.588-4.34.588-4.34l-.843-.827zm-34.807.62l-.636-.668a1.447 1.447 0 00-1.034 1.208c-.127.954-.54 4.23-.54 4.23-.014.318.035.637.143.937a2.5 2.5 0 00.286.414l1.177-1.463.604-4.658zm21.07 0l-.62-.668a1.48 1.48 0 00-1.05 1.208c-.111.954-.524 4.23-.524 4.23-.014.317.03.635.127.937.083.15.184.289.302.414l1.177-1.463.588-4.658zm-12.383 0l-.636-.668a1.448 1.448 0 00-1.033 1.208c-.128.954-.541 4.23-.541 4.23a2.46 2.46 0 00.143.937 2.5 2.5 0 00.286.414l1.177-1.463.604-4.658zm21.305 0l-.62-.668a1.48 1.48 0 00-1.05 1.208c-.111.954-.525 4.23-.525 4.23a2.7 2.7 0 00.128.937c.083.15.184.289.302.414l1.176-1.463.589-4.658zm-30.405 4.753L16.25 29.03h5.2l-.763-1.447H17.33zm21.329 0l-1.097 1.447h5.2l-.764-1.447h-3.34zm-12.649 0L24.93 29.03h5.2l-.764-1.447h-3.355zm21.329 0l-1.098 1.447h5.2l-.763-1.447h-3.34zm-12.818-6.104a.764.764 0 01.763.795.777.777 0 01-.763.81.794.794 0 01-.78-.81.78.78 0 01.78-.796z" fill="#C40E38"/><path d="M11.052 39.237a.669.669 0 01.477-1.148c.178 0 .35.07.477.194l3.848 3.847 3.77-3.768a.685.685 0 01.97 0 .684.684 0 010 .954l-4.279 4.245-.477.477-.477-.477-4.309-4.324zm27.526.254h.97v2.655c-.026.265-.026.53 0 .795.03.19.133.36.287.477.188.123.41.184.636.175a.907.907 0 00.62-.175.684.684 0 00.238-.413c.023-.27.023-.541 0-.811v-2.655h.97v2.528a6.97 6.97 0 010 1.224c-.04.219-.138.422-.286.588-.15.176-.341.312-.556.398a2.498 2.498 0 01-.923.143 2.466 2.466 0 01-1.033-.16 1.4 1.4 0 01-.843-.937 5.816 5.816 0 01-.096-1.224l.016-2.608zm-4.77 4.77v-4.77h.938l1.972 3.18v-3.18h.89v4.77h-.97l-1.94-3.18v3.18h-.89zm-4.469 0v-4.77h3.547v.811h-2.577v1.065h2.402v.78h-2.402v1.303h2.672v.81h-3.642zm-5.581 0v-4.77h1.447l.859 3.275.842-3.275h1.463v4.77h-.922v-3.705l-.938 3.768h-.938l-.939-3.768v3.768l-.874-.063zm33.902-4.022v-.588l-3.674-6.805-.365-.27a3.058 3.058 0 00-.605 0 8.955 8.955 0 00-3.737.938c-2.957 1.351-3.419 2.543-3.482 2.766v.318l2.608 7.282.365.333c.374.096.76.138 1.145.127a10.337 10.337 0 007.745-4.101zm-8.285 2.957l-2.433-6.789a6.36 6.36 0 012.83-1.987 7.618 7.618 0 013.483-.827l3.371 6.216a9.16 9.16 0 01-6.631 3.419l-.62-.032z" fill="#C40E38"/><path d="M62.27 41.4a60.418 60.418 0 00-6.17-9.89 6.36 6.36 0 00-8.3-1.59c-3.34 1.59-4.771 3.912-4.262 7.298a60.053 60.053 0 003.419 11.129l.238.54h1.16l-.428-.954a61.264 61.264 0 01-3.356-10.906 6.263 6.263 0 017.403-6.667 6.266 6.266 0 013.331 1.786 61.881 61.881 0 016.027 9.667l3.18 7.074h1.161L62.27 41.4z" fill="#C40E38"/><path d="M59.794 43.084l-.827-.636a11.13 11.13 0 01-8.444 4.213v1.05h.096a12.058 12.058 0 009.207-4.643m-4.6 6.185a11.831 11.831 0 006.01-4.118l-.826-.652a10.718 10.718 0 01-5.597 3.768l.413 1.002zM10.35 10.858h48.836V32.4h-2.337l-1.542-1.716h2.162v-18.11H11.21v18.108h35.175L44.54 32.4H9.492V10.858h.859zm48.537 39.015h.525a1.288 1.288 0 01-.366.81c-.23.198-.525.3-.827.287a1.145 1.145 0 01-.81-.286 1.287 1.287 0 01-.367-.811h.525a.524.524 0 00.191.398.636.636 0 00.461.143c.171.01.34-.04.477-.144a.525.525 0 00.191-.397zm-2.878 1.59h1.05v3.688l2.257-3.688h1.113v5.548H59.38v-3.64l-2.242 3.64h-1.066l-.063-5.548zm-2.306 0h1.129v5.548h-1.129v-5.548zm-4.15 4.61h1.097c.243.024.488.024.731 0a.668.668 0 00.366-.238.573.573 0 00.16-.43.62.62 0 00-.255-.556 1.718 1.718 0 00-.955-.19h-1.144v1.414zm-1.113-4.61h1.113v2.21h1.51a2.83 2.83 0 011.018.175c.29.109.535.31.7.572.195.28.295.613.286.954a1.59 1.59 0 01-.302.97 1.48 1.48 0 01-.652.54 3.467 3.467 0 01-1.05.127H48.44v-5.548zm-5.646 5.548v-5.548h1.13v2.178h2.194v-2.178h1.113v5.548h-1.113v-2.416h-2.195v2.416h-1.129zm-4.039-4.61v1.59h.604c.3.02.6-.007.891-.08a.828.828 0 00.35-.27.812.812 0 00.127-.445.683.683 0 00-.19-.493.732.732 0 00-.446-.254 7.425 7.425 0 00-.795 0l-.54-.048zm-1.129 4.61v-5.548h1.797c.447-.014.894.012 1.336.08.319.084.6.274.795.54.225.314.337.695.318 1.081.01.296-.05.59-.175.858a1.59 1.59 0 01-1.05.811 5.643 5.643 0 01-1.16.08h-.732v2.098h-1.129zm-5.12-2.782a2.082 2.082 0 00.445 1.431 1.383 1.383 0 001.113.493 1.416 1.416 0 001.097-.477c.315-.42.468-.94.43-1.463a2.082 2.082 0 00-.414-1.415 1.59 1.59 0 00-2.242 0 2.083 2.083 0 00-.43 1.447v-.016zm-1.145 0a3.43 3.43 0 01.254-1.43 2.79 2.79 0 01.51-.764 2.37 2.37 0 01.715-.508 3.182 3.182 0 011.208-.207 2.655 2.655 0 011.972.763 3.418 3.418 0 010 4.229 2.91 2.91 0 01-3.928 0 2.877 2.877 0 01-.731-2.02v-.063zm-1.59.684l1.081.334a2.543 2.543 0 01-.827 1.367c-.43.31-.95.466-1.479.445a2.434 2.434 0 01-1.828-.747 2.925 2.925 0 01-.716-2.083 3.02 3.02 0 01.716-2.146 2.48 2.48 0 011.892-.763 2.322 2.322 0 011.59.588c.28.287.478.644.573 1.033l-1.114.27a1.16 1.16 0 00-1.176-.937 1.24 1.24 0 00-1.002.445 2.18 2.18 0 00-.382 1.43c-.05.528.085 1.056.382 1.495a1.238 1.238 0 00.986.461 1.08 1.08 0 00.763-.286 1.59 1.59 0 00.509-.843l.032-.063zm-9.16 2.05v-5.548h1.113v2.178h2.195v-2.178h1.129v5.549h-1.13v-2.417h-2.194v2.417h-1.113zm-5.184 0v-5.548h4.071v.938h-2.99v1.224h2.783v.954H16.51v1.495h3.18v.938h-4.262zm-2.051-2.05l1.097.334a2.464 2.464 0 01-.843 1.367c-.427.314-.95.471-1.479.445a2.417 2.417 0 01-1.812-.747 2.925 2.925 0 01-.716-2.083 3.02 3.02 0 01.716-2.146 2.481 2.481 0 011.892-.763c.585-.01 1.152.2 1.59.588.28.287.478.644.573 1.033l-1.114.27a1.16 1.16 0 00-1.176-.937 1.24 1.24 0 00-1.002.445 2.18 2.18 0 00-.382 1.43c-.05.528.086 1.056.382 1.495a1.225 1.225 0 00.986.461 1.08 1.08 0 00.763-.286 1.59 1.59 0 00.493-.843l.032-.063zm48.889 10.143v-1.065h1.066v1.065h-1.066zm-5.629-5.564h1.13v4.626h2.162v-4.626h1.129v4.626h.46v2.146h-.937v-1.208h-3.944v-5.564zm-4.77 0h1.129v2.369a.715.715 0 00.508-.191c.166-.27.3-.558.398-.859.126-.433.368-.823.7-1.129.35-.17.74-.246 1.129-.222h.159v.827h-.16a1.208 1.208 0 00-.492 0 .73.73 0 00-.27.27 5.01 5.01 0 00-.287.715c-.055.168-.13.328-.222.477a1.193 1.193 0 01-.414.366c.243.073.455.224.604.43.21.283.39.587.541.905l.763 1.59h-1.32l-.667-1.43v-.112l-.144-.27a1.59 1.59 0 00-.35-.509.604.604 0 00-.413-.111v2.432H51.93l-.064-5.548zm-5.614 5.564v-5.564h1.113v2.194h2.195v-2.194h1.129v5.564h-1.13v-2.432h-2.194v2.432h-1.113zm-5.407-5.564h1.273l1.288 2.877 1.113-2.877h1.16l-1.876 4.229a4.34 4.34 0 01-.62 1.049 1.049 1.049 0 01-.827.35c-.259.03-.52.03-.779 0v-.827h.43a.923.923 0 00.572-.143 1.6 1.6 0 00.318-.62l-2.051-4.038zm-3.562 3.974v-2.48a1.415 1.415 0 00-1.017.318 1.304 1.304 0 00-.318.954c.032.81.477 1.208 1.367 1.208h-.032zm1.114 0c.256.006.511-.042.747-.143.19-.084.35-.222.461-.397a1.78 1.78 0 00.127-.732c0-.81-.445-1.208-1.335-1.208v2.48zm0 .938v.652h-1.114v-.652a2.592 2.592 0 01-1.876-.652 2.21 2.21 0 01-.54-1.59 2.082 2.082 0 01.572-1.59 2.624 2.624 0 011.844-.635v-.557h1.114v.557a2.64 2.64 0 011.876.652 2.162 2.162 0 01.54 1.59 2.195 2.195 0 01-.54 1.59c-.51.44-1.17.668-1.845.635h-.031zm-8.412-2.13a2.114 2.114 0 00.429 1.43 1.48 1.48 0 001.113.494 1.368 1.368 0 001.097-.493 2.05 2.05 0 00.445-1.447 2.082 2.082 0 00-.429-1.43 1.59 1.59 0 00-2.226 0c-.308.415-.45.931-.398 1.446h-.031zm-1.161 0a3.821 3.821 0 01.254-1.431c.134-.28.311-.538.525-.763.2-.215.444-.383.715-.493.38-.15.785-.226 1.193-.223a2.609 2.609 0 011.972.764 2.942 2.942 0 01.732 2.13 2.877 2.877 0 01-.732 2.098 2.544 2.544 0 01-1.956.764 2.609 2.609 0 01-1.972-.764 2.813 2.813 0 01-.7-2.05l-.031-.032zm-4.008-2.814h3.77v.954h-2.64v4.61h-1.13V59.46zm-5.168 2.782c-.039.516.12 1.028.446 1.43a1.43 1.43 0 001.097.494 1.385 1.385 0 001.113-.493 2.13 2.13 0 00.43-1.447 2.082 2.082 0 00-.43-1.43 1.368 1.368 0 00-1.113-.462 1.415 1.415 0 00-1.113.477 2.08 2.08 0 00-.398 1.463l-.032-.032zm-1.16 0a3.816 3.816 0 01.254-1.43c.134-.281.311-.538.525-.764.205-.208.448-.375.715-.493a3.181 3.181 0 011.209-.222 2.593 2.593 0 011.956.763 3.386 3.386 0 010 4.229 2.927 2.927 0 01-3.944 0 2.893 2.893 0 01-.684-2.02l-.031-.063zm-5.36 2.814v-5.564h1.114v2.194h2.194v-2.194h1.13v5.564h-1.13v-2.432h-2.194v2.432h-1.113zm-6.487 0v-5.564h1.717l1.002 3.8.986-3.8h1.685v5.564h-1.05v-4.372l-1.096 4.372H8.803l-1.081-4.372v4.372H6.641z" fill="#C40E38"/><path d="M55.118 14.642v.7h.27c.132.022.267.022.398 0a.397.397 0 00.16-.127.333.333 0 000-.191.27.27 0 000-.223.302.302 0 00-.192-.111h-.604l-.032-.048zm-.509 2.067v-2.496h.811c.196-.026.393-.026.589 0a.62.62 0 01.365.238.797.797 0 01.144.493.955.955 0 01-.08.382.796.796 0 01-.223.238.763.763 0 01-.254.128h-.843v1.017h-.509zm1.286 2.846l-.35-.922-.334.922h.684zm.922 1.002h-.556l-.207-.572h-1.002l-.207.572h-.54l.97-2.496h.54l1.002 2.496zm-2.247.556h.493v1.352a2.082 2.082 0 000 .43.38.38 0 00.143.238.525.525 0 00.334.095.445.445 0 00.318-.095.287.287 0 00.128-.207 2.482 2.482 0 000-.43v-1.383h.493v1.32c.012.212.012.424 0 .636a.62.62 0 01-.16.302.557.557 0 01-.286.207 1.35 1.35 0 01-.477.08 1.59 1.59 0 01-.54-.08.7.7 0 01-.287-.223.508.508 0 01-.143-.27 3.174 3.174 0 010-.636l-.016-1.336zm.748 5.501v-2.067h-.748v-.43h1.988v.43h-.747v2.067h-.493zm-.44 1.749a.923.923 0 00.19.636.604.604 0 00.494.222.62.62 0 00.493-.206c.137-.189.205-.42.19-.652.014-.23-.047-.46-.174-.652a.653.653 0 00-.51-.207.62.62 0 00-.492.207.97.97 0 00-.191.652zm-.525 0a1.59 1.59 0 01.111-.636 1.68 1.68 0 01.239-.35c.091-.094.199-.169.318-.223.172-.066.356-.099.54-.095a1.176 1.176 0 01.875.334c.232.262.352.604.334.954a1.287 1.287 0 01-.334.954 1.32 1.32 0 01-1.749 0 1.271 1.271 0 01-.334-.922v-.016z" fill="#C40E38"/><path fill-rule="evenodd" clip-rule="evenodd" d="M34.061 25.644a1.256 1.256 0 00-.906.397 3.897 3.897 0 00-.398 1.48l-.413.683h1.32a.334.334 0 00.302.334.302.302 0 00.318-.302h1.336l-.382-.684a4.07 4.07 0 00-.286-1.59 1.352 1.352 0 00-.89-.445v2.29-2.163zm-.368-8.744v.588a.255.255 0 01-.207-.095.286.286 0 01.207-.493zm3.18 0v.588a.288.288 0 00.207-.095.302.302 0 000-.413.335.335 0 00-.27-.08h.063zm-2.226-2.226a.127.127 0 01.16 0 .11.11 0 01.032.08.11.11 0 01-.033.08s-.397.317-.175.604c.286.35.239.476.191.683v.111a.11.11 0 01-.098.085.11.11 0 01-.045-.005.111.111 0 01-.08-.127v-.127c0-.144 0-.223-.143-.493-.445-.445.127-.89.127-.89h.064zm.748 0a.127.127 0 01.158 0 .11.11 0 01.034.08.11.11 0 01-.034.08s-.397.317-.174.604c.222.286.238.476.19.683a.302.302 0 000 .111.11.11 0 01-.097.085.11.11 0 01-.046-.005.111.111 0 01-.08-.127.711.711 0 000-.127c0-.144 0-.223-.142-.493-.143-.27.19-.89.19-.89zm.731 0h.159a.11.11 0 01.033.08.11.11 0 01-.033.08s-.398.317-.175.604c.27.35.239.476.175.683-.064.207 0 .08 0 .111a.097.097 0 01-.044.071.096.096 0 01-.083.009.127.127 0 01-.096-.127.73.73 0 000-.127c0-.144 0-.223-.127-.493-.445-.445.127-.89.127-.89h.064zm0 1.797H33.82v.238a.525.525 0 00-.365.875.524.524 0 00.365.159.858.858 0 00.795.842h1.511a.874.874 0 00.811-.842.524.524 0 00.366-.16.508.508 0 00-.366-.874v-.206l-.811-.032z" fill="#C40E38"/><path d="M14.852 16.502a1.351 1.351 0 00-1.002-.429 1.4 1.4 0 00-1.018.43 1.415 1.415 0 00-.429 1 1.462 1.462 0 001.447 1.448 1.416 1.416 0 001.002-.43 1.399 1.399 0 00.43-1.017 1.351 1.351 0 00-.43-1.002zm-1.002-.7c.451.005.884.18 1.209.494a1.716 1.716 0 11-2.926 1.208 1.699 1.699 0 01.509-1.208 1.765 1.765 0 011.208-.493z" fill="#C40E38"/><path d="M13.734 16.248a.095.095 0 11.191 0v1.097l.732-.43a.111.111 0 01.127 0 .095.095 0 010 .128l-.875.509-.143.08V16.2l-.032.048zm.578 6.185a1.114 1.114 0 00-.747-.382 1.145 1.145 0 00-.796.27 1.13 1.13 0 00-.365.764 1.033 1.033 0 00.27.795 1.048 1.048 0 00.747.366 1.097 1.097 0 00.89-1.813zm-.732-.588a1.272 1.272 0 01.89.445 1.257 1.257 0 01.319.938 1.32 1.32 0 01-.43.906 1.336 1.336 0 01-1.86-.127 1.367 1.367 0 01-.318-.938c.024-.349.184-.674.445-.906.265-.227.607-.34.954-.318z" fill="#C40E38"/><path d="M13.741 24.404l-.16 2.322.621.031-.032.636-.954-.063-.302-.016.016-.318.175-2.624.636.032z" fill="#C40E38"/></svg>