<svg width="40" height="40" fill="none" xmlns="http://www.w3.org/2000/svg"><g clip-path="url(#clip0_1553_8859)"><path fill-rule="evenodd" clip-rule="evenodd" d="M11.755.12C13.886.022 14.566 0 20 0s6.113.024 8.244.12c2.13.096 3.585.436 4.858.93a9.84 9.84 0 013.542 2.308 9.769 9.769 0 012.305 3.54c.495 1.273.833 2.727.931 4.855.098 2.136.12 2.816.12 8.247 0 5.433-.024 6.113-.12 8.245-.096 2.128-.436 3.582-.93 4.855a9.81 9.81 0 01-2.306 3.544 9.806 9.806 0 01-3.542 2.305c-1.273.495-2.727.833-4.855.931-2.134.098-2.814.12-8.247.12s-6.113-.024-8.245-.12c-2.128-.096-3.582-.436-4.855-.93a9.812 9.812 0 01-3.544-2.306 9.802 9.802 0 01-2.307-3.542C.556 31.829.22 30.375.12 28.247.022 26.111 0 25.431 0 20c0-5.433.024-6.113.12-8.244.096-2.13.436-3.585.93-4.858a9.81 9.81 0 012.308-3.542 9.804 9.804 0 013.54-2.307C8.171.556 9.625.22 11.753.12h.002zm16.327 3.6c-2.11-.096-2.742-.116-8.082-.116-5.34 0-5.973.02-8.082.116-1.95.09-3.009.415-3.714.69-.933.363-1.6.794-2.3 1.494a6.204 6.204 0 00-1.495 2.3c-.274.705-.6 1.763-.689 3.714-.096 2.11-.116 2.742-.116 8.082 0 5.34.02 5.973.116 8.082.09 1.95.415 3.009.69 3.714a6.21 6.21 0 001.494 2.3 6.209 6.209 0 002.3 1.495c.705.274 1.763.6 3.714.689 2.11.096 2.74.116 8.082.116 5.342 0 5.973-.02 8.082-.116 1.95-.09 3.009-.415 3.714-.69.933-.363 1.6-.794 2.3-1.494a6.21 6.21 0 001.495-2.3c.274-.705.6-1.763.689-3.714.096-2.11.116-2.742.116-8.082 0-5.34-.02-5.973-.116-8.082-.09-1.95-.415-3.009-.69-3.714-.363-.933-.794-1.6-1.494-2.3a6.206 6.206 0 00-2.3-1.495c-.705-.274-1.763-.6-3.714-.689zM17.445 26.166a6.671 6.671 0 007.273-10.884 6.675 6.675 0 00-10.265 1.012 6.673 6.673 0 002.992 9.872zM12.731 12.73a10.28 10.28 0 1114.538 14.538A10.28 10.28 0 0112.73 12.731zm19.829-1.48a2.43 2.43 0 10-3.335-3.536 2.43 2.43 0 003.335 3.536z" fill="#C40E38"/></g><defs><clipPath id="clip0_1553_8859"><path fill="#fff" d="M0 0h40v40H0z"/></clipPath></defs></svg>