<svg display="none" xmlns="http://www.w3.org/2000/svg">

    <symbol id="search" viewBox="0 0 20 20">
        <path fill-rule="evenodd" clip-rule="evenodd" d="M1.93548 8.70968C1.93548 4.96839 4.96839 1.93548 8.70968 1.93548C12.451 1.93548 15.4839 4.96839 15.4839 8.70968C15.4839 10.5774 14.7293 12.2669 13.5061 13.4934C12.2787 14.7241 10.5838 15.4839 8.70968 15.4839C4.96839 15.4839 1.93548 12.451 1.93548 8.70968ZM8.70968 0C3.89946 0 0 3.89946 0 8.70968C0 13.5199 3.89946 17.4194 8.70968 17.4194C10.7658 17.4194 12.6566 16.706 14.1461 15.5147L18.348 19.7166C18.7259 20.0945 19.3386 20.0945 19.7166 19.7166C20.0945 19.3386 20.0945 18.7259 19.7166 18.348L15.5147 14.1461C16.706 12.6565 17.4194 10.7657 17.4194 8.70968C17.4194 3.89946 13.5199 0 8.70968 0Z"/>
    </symbol>

    <symbol id="arrowLeft" viewBox="0 0 14 14">
        <path d="M8.75 3.5L5.25 7L8.75 10.5" stroke-width="1.5" stroke-linecap="round" stroke-linejoin="round"/>
    </symbol>

    <symbol id="arrowRight" viewBox="0 0 14 14">
        <path d="M5.25 3.5L8.75 7L5.25 10.5" stroke-width="1.5" stroke-linecap="round" stroke-linejoin="round"/>
    </symbol>

    <symbol id="compareIcon" viewBox="0 0 18 17">
        <path fill-rule="evenodd" clip-rule="evenodd" d="M13.7402 0.205025L17.195 3.6598C17.4683 3.93317 17.4683 4.37638 17.195 4.64975L13.7402 8.10452C13.4668 8.37789 13.0236 8.37789 12.7503 8.10452C12.4769 7.83115 12.4769 7.38794 12.7503 7.11457L15.0101 4.85477H1.7C1.3134 4.85477 1 4.54137 1 4.15477C1 3.76817 1.3134 3.45477 1.7 3.45477H15.0101L12.7503 1.19497C12.4769 0.921608 12.4769 0.478393 12.7503 0.205025C13.0236 -0.0683417 13.4668 -0.0683417 13.7402 0.205025Z"/>
        <path fill-rule="evenodd" clip-rule="evenodd" d="M4.65824 8.35981L1.20346 11.8146C0.930096 12.088 0.930096 12.5312 1.20346 12.8045L4.65824 16.2593C4.9316 16.5327 5.37482 16.5327 5.64819 16.2593C5.92155 15.9859 5.92155 15.5427 5.64819 15.2694L3.38839 13.0096H16.6984C17.085 13.0096 17.3984 12.6962 17.3984 12.3096C17.3984 11.923 17.085 11.6096 16.6984 11.6096H3.38839L5.64819 9.34976C5.92155 9.07639 5.92155 8.63318 5.64819 8.35981C5.37482 8.08644 4.9316 8.08644 4.65824 8.35981Z"/>
    </symbol>

    <symbol id="print" viewBox="0 0 24 24">
        <path d="M17.5714 18H20.4C20.7314 18 21 17.7314 21 17.4V11C21 8.79086 19.2091 7 17 7H7C4.79086 7 3 8.79086 3 11V17.4C3 17.7314 3.26863 18 3.6 18H6.42857" stroke-width="1.5"/>
        <path d="M8 7V3.6C8 3.26863 8.26863 3 8.6 3H15.4C15.7314 3 16 3.26863 16 3.6V7" stroke-width="1.5"/>
        <path d="M6.09794 20.3151L6.42868 18L6.92651 14.5151C6.96874 14.2196 7.22189 14 7.52048 14H16.4797C16.7783 14 17.0315 14.2196 17.0737 14.5151L17.5715 18L17.9023 20.3151C17.9539 20.6766 17.6734 21 17.3083 21H6.69191C6.32678 21 6.0463 20.6766 6.09794 20.3151Z" stroke-width="1.5"/>
        <path d="M17 10.01L17.01 9.99889" stroke-width="1.5" stroke-linecap="round" stroke-linejoin="round"/>
    </symbol>

    <symbol id="share" viewBox="0 0 24 24">
        <path d="M18 22C19.6569 22 21 20.6569 21 19C21 17.3431 19.6569 16 18 16C16.3431 16 15 17.3431 15 19C15 20.6569 16.3431 22 18 22Z" stroke-width="1.5" stroke-linecap="round" stroke-linejoin="round"/>
        <path d="M18 8C19.6569 8 21 6.65685 21 5C21 3.34315 19.6569 2 18 2C16.3431 2 15 3.34315 15 5C15 6.65685 16.3431 8 18 8Z" stroke-width="1.5" stroke-linecap="round" stroke-linejoin="round"/>
        <path d="M6 15C7.65685 15 9 13.6569 9 12C9 10.3431 7.65685 9 6 9C4.34315 9 3 10.3431 3 12C3 13.6569 4.34315 15 6 15Z" stroke-width="1.5" stroke-linecap="round" stroke-linejoin="round"/>
        <path d="M15.5 6.5L8.5 10.5" stroke-width="1.5"/>
        <path d="M8.5 13.5L15.5 17.5" stroke-width="1.5"/>
    </symbol>

    <symbol id="downloads" viewBox="0 0 24 24">
        <path d="M6 20L18 20" stroke-width="1.5" stroke-linecap="round" stroke-linejoin="round"/>
        <path d="M12 4V16M12 16L15.5 12.5M12 16L8.5 12.5" stroke-width="1.5" stroke-linecap="round" stroke-linejoin="round"/>
    </symbol>

    <symbol id="heart" viewBox="0 0 24 24">
        <path d="M22 8.86222C22 10.4087 21.4062 11.8941 20.3458 12.9929C17.9049 15.523 15.5374 18.1613 13.0053 20.5997C12.4249 21.1505 11.5042 21.1304 10.9488 20.5547L3.65376 12.9929C1.44875 10.7072 1.44875 7.01723 3.65376 4.73157C5.88044 2.42345 9.50794 2.42345 11.7346 4.73157L11.9998 5.00642L12.2648 4.73173C13.3324 3.6245 14.7864 3 16.3053 3C17.8242 3 19.2781 3.62444 20.3458 4.73157C21.4063 5.83045 22 7.31577 22 8.86222Z" stroke-width="1.5" stroke-linejoin="round"/>
    </symbol>

    <symbol id="settings" viewBox="0 0 24 24">
        <path d="M12 15C13.6569 15 15 13.6569 15 12C15 10.3431 13.6569 9 12 9C10.3431 9 9 10.3431 9 12C9 13.6569 10.3431 15 12 15Z" stroke-width="1.5" stroke-linecap="round" stroke-linejoin="round"/>
        <path d="M19.6224 10.3954L18.5247 7.7448L20 6L18 4L16.2647 5.48295L13.5578 4.36974L12.9353 2H10.981L10.3491 4.40113L7.70441 5.51596L6 4L4 6L5.45337 7.78885L4.3725 10.4463L2 11V13L4.40111 13.6555L5.51575 16.2997L4 18L6 20L7.79116 18.5403L10.397 19.6123L11 22H13L13.6045 19.6132L16.2551 18.5155C16.6969 18.8313 18 20 18 20L20 18L18.5159 16.2494L19.6139 13.598L21.9999 12.9772L22 11L19.6224 10.3954Z" stroke-width="1.5" stroke-linecap="round" stroke-linejoin="round"/>
    </symbol>

    <symbol id="docs" viewBox="0 0 24 24">
        <path d="M19 3L5 3C3.89543 3 3 3.89543 3 5L3 19C3 20.1046 3.89543 21 5 21H19C20.1046 21 21 20.1046 21 19V5C21 3.89543 20.1046 3 19 3Z" stroke-width="1.5" stroke-linecap="round" stroke-linejoin="round"/>
        <path d="M7 7L17 7" stroke-width="1.5" stroke-linecap="round" stroke-linejoin="round"/>
        <path d="M7 12L17 12" stroke-width="1.5" stroke-linecap="round" stroke-linejoin="round"/>
        <path d="M7 17L13 17" stroke-width="1.5" stroke-linecap="round" stroke-linejoin="round"/>
    </symbol>

    <symbol id="footerIcon" viewBox="0 0 34 34">
        <g clip-path="url(#clip0_963_2591)">
            <rect width="34" height="34" fill="#232323"/>
            <path d="M5.8418 6.28384H9.90378V4.03906H5.8418V6.28384ZM6.70459 4.88658H9.04099V5.42105H6.70459V4.88658Z" />
            <path d="M7.09375 25.9829H26.7317V14.675H7.09375V25.9829ZM7.97181 15.5531H25.8537V25.0972H7.97181V15.5531Z" />
            <path d="M27.9309 10.6742H5.93359V13.316H27.9309V10.6742ZM27.0681 12.4379H6.79639V11.5217H27.0681V12.4379Z" />
            <path d="M12.8737 4.03906C12.4961 4.03906 12.1271 4.15101 11.8132 4.36076C11.4993 4.5705 11.2546 4.86862 11.1102 5.21741C10.9657 5.56621 10.9279 5.95 11.0015 6.32028C11.0752 6.69056 11.257 7.03068 11.5239 7.29763C11.7909 7.56459 12.131 7.74638 12.5013 7.82004C12.8715 7.89369 13.2554 7.85589 13.6042 7.71141C13.953 7.56694 14.2511 7.32228 14.4608 7.00838C14.6705 6.69447 14.7825 6.32542 14.7825 5.94789C14.7825 5.44164 14.5814 4.95612 14.2234 4.59814C13.8654 4.24017 13.3799 4.03906 12.8737 4.03906ZM12.8737 6.98629C12.6665 6.98628 12.4639 6.92474 12.2917 6.80946C12.1196 6.69417 11.9855 6.53035 11.9066 6.33877C11.8276 6.14719 11.8073 5.93648 11.8483 5.73336C11.8893 5.53024 11.9897 5.34387 12.1368 5.19789C12.2838 5.05191 12.4709 4.95289 12.6743 4.91339C12.8777 4.8739 13.0883 4.89571 13.2793 4.97605C13.4703 5.05639 13.6331 5.19166 13.7472 5.36468C13.8612 5.5377 13.9212 5.74068 13.9197 5.94789C13.9098 6.21795 13.795 6.47349 13.5997 6.66026C13.4043 6.84702 13.1439 6.95028 12.8737 6.94811V6.98629Z" />
            <path d="M17.1176 4.03908C16.7398 4.03757 16.37 4.14823 16.0551 4.35705C15.7402 4.56588 15.4943 4.86347 15.3487 5.21212C15.203 5.56078 15.1641 5.94482 15.2369 6.31559C15.3097 6.68637 15.4909 7.02721 15.7576 7.29492C16.0242 7.56264 16.3643 7.7452 16.7348 7.81947C17.1053 7.89375 17.4895 7.85639 17.8387 7.71215C18.1879 7.5679 18.4865 7.32325 18.6966 7.00918C18.9067 6.69511 19.0188 6.32576 19.0188 5.9479C19.0188 5.44297 18.8188 4.95861 18.4624 4.60085C18.1061 4.2431 17.6226 4.0411 17.1176 4.03908ZM17.1176 6.9863C16.9104 6.9863 16.7079 6.92475 16.5357 6.80947C16.3635 6.69419 16.2295 6.53037 16.1505 6.33878C16.0716 6.1472 16.0513 5.93649 16.0923 5.73337C16.1333 5.53026 16.2336 5.34389 16.3807 5.19791C16.5278 5.05192 16.7149 4.9529 16.9183 4.91341C17.1217 4.87391 17.3323 4.89572 17.5233 4.97606C17.7143 5.05641 17.8771 5.19167 17.9911 5.36469C18.1051 5.53771 18.1652 5.7407 18.1637 5.9479C18.1538 6.21796 18.0389 6.47351 17.8436 6.66027C17.6483 6.84703 17.3879 6.9503 17.1176 6.94813V6.9863Z" />
            <path d="M21.3637 4.03908C20.9859 4.03757 20.6161 4.14823 20.3012 4.35705C19.9863 4.56588 19.7404 4.86347 19.5948 5.21212C19.4491 5.56078 19.4102 5.94482 19.483 6.31559C19.5558 6.68637 19.737 7.02721 20.0037 7.29492C20.2703 7.56264 20.6104 7.7452 20.9809 7.81947C21.3514 7.89375 21.7356 7.85639 22.0848 7.71215C22.434 7.5679 22.7326 7.32325 22.9427 7.00918C23.1528 6.69511 23.2649 6.32576 23.2649 5.9479C23.2659 5.69759 23.2175 5.44955 23.1224 5.21801C23.0273 4.98646 22.8874 4.77597 22.7108 4.59862C22.5341 4.42127 22.3242 4.28054 22.093 4.18452C21.8619 4.0885 21.614 4.03908 21.3637 4.03908V4.03908ZM21.3637 6.9863C21.1562 6.98781 20.9529 6.92756 20.7797 6.8132C20.6065 6.69884 20.4713 6.53556 20.3912 6.34411C20.3111 6.15266 20.2897 5.94171 20.3298 5.73809C20.3699 5.53447 20.4697 5.34739 20.6165 5.20064C20.7632 5.05389 20.9503 4.95411 21.1539 4.91399C21.3575 4.87387 21.5685 4.89523 21.7599 4.97534C21.9514 5.05546 22.1147 5.19072 22.229 5.3639C22.3434 5.53709 22.4036 5.74037 22.4021 5.9479C22.3922 6.21663 22.2785 6.47105 22.0848 6.65761C21.8911 6.84416 21.6326 6.94831 21.3637 6.94813V6.9863Z" />
            <path d="M25.6098 4.03908C25.232 4.03757 24.8622 4.14823 24.5473 4.35705C24.2324 4.56588 23.9865 4.86347 23.8409 5.21212C23.6952 5.56078 23.6563 5.94482 23.7291 6.31559C23.8019 6.68637 23.9831 7.02721 24.2498 7.29492C24.5164 7.56264 24.8565 7.7452 25.227 7.81947C25.5975 7.89375 25.9817 7.85639 26.3309 7.71215C26.6801 7.5679 26.9787 7.32325 27.1888 7.00918C27.3989 6.69511 27.511 6.32576 27.511 5.9479C27.512 5.69759 27.4636 5.44955 27.3685 5.21801C27.2734 4.98646 27.1335 4.77597 26.9569 4.59862C26.7802 4.42127 26.5703 4.28054 26.3391 4.18452C26.108 4.0885 25.8601 4.03908 25.6098 4.03908V4.03908ZM25.6098 6.9863C25.4023 6.98781 25.199 6.92756 25.0258 6.8132C24.8526 6.69884 24.7174 6.53556 24.6373 6.34411C24.5572 6.15266 24.5358 5.94171 24.5759 5.73809C24.616 5.53447 24.7158 5.34739 24.8625 5.20064C25.0093 5.05389 25.1964 4.95411 25.4 4.91399C25.6036 4.87387 25.8146 4.89523 26.006 4.97534C26.1975 5.05546 26.3608 5.19072 26.4751 5.3639C26.5895 5.53709 26.6497 5.74037 26.6482 5.9479C26.6365 6.216 26.5222 6.46932 26.3289 6.65549C26.1356 6.84166 25.8782 6.94643 25.6098 6.94813V6.9863Z" />
            <path d="M30.3809 28.2583V3.89401C30.3809 3.76421 30.3809 3.6115 30.3809 3.45879C30.3511 3.03425 30.1654 2.63571 29.8595 2.33975C29.5537 2.04378 29.1493 1.87128 28.724 1.85538H27.0824V0H24.2879V0.931508H26.1204V1.82484H23.0663V0.397036H22.1118V1.82484H19.0577V0.984955H20.8902V0H18.0957V1.83247H15.4997V0H12.7051V0.931508H14.53V1.82484H11.4759V0.397036H10.5291V1.82484H7.47498V0.984955H9.31507V0H6.52057V1.85538H5.43635C5.14206 1.85386 4.85319 1.93454 4.60229 2.08832C4.35138 2.24211 4.14838 2.46289 4.01617 2.7258C3.85581 3.07261 3.77495 3.45086 3.77948 3.83292C3.77948 10.6589 3.77948 17.5765 3.77948 24.3032V32.3508C3.7815 32.7889 3.95697 33.2084 4.26747 33.5174C4.57798 33.8265 4.99824 34 5.43635 34H28.64C29.0781 34 29.4984 33.8265 29.8089 33.5174C30.1194 33.2084 30.2949 32.7889 30.2969 32.3508V28.2583H30.3809ZM29.3806 32.3508C29.3806 32.437 29.3637 32.5224 29.3307 32.6021C29.2977 32.6817 29.2493 32.7541 29.1883 32.8151C29.1274 32.8761 29.055 32.9244 28.9753 32.9574C28.8956 32.9904 28.8102 33.0074 28.724 33.0074H5.52032C5.34546 33.0074 5.17766 32.9385 5.0533 32.8156C4.92894 32.6926 4.85807 32.5256 4.85606 32.3508V29.0141H29.3806V32.3508ZM29.4188 28.075H4.83315V9.79609H29.4188V28.075ZM29.4188 8.79587H4.81025V3.69549C4.79546 3.57362 4.80858 3.44999 4.84862 3.33394C4.88867 3.2179 4.95461 3.11248 5.04142 3.02568C5.12822 2.93887 5.23362 2.87295 5.34967 2.8329C5.46571 2.79285 5.58934 2.77973 5.71121 2.79452H28.5255C28.6476 2.77998 28.7715 2.79321 28.8878 2.83324C29.0042 2.87326 29.11 2.93903 29.1973 3.02565C29.2847 3.11227 29.3513 3.2175 29.3923 3.33348C29.4333 3.44947 29.4476 3.57321 29.4341 3.69549V8.79587H29.4188Z" />
            <path d="M17.4232 17.3932C17.3905 17.3395 17.3445 17.2951 17.2897 17.2643C17.2349 17.2335 17.1731 17.2173 17.1102 17.2173C17.0473 17.2173 16.9855 17.2335 16.9306 17.2643C16.8758 17.2951 16.8298 17.3395 16.7971 17.3932C16.4917 17.7673 16.2016 18.1567 15.9191 18.5538C15.3377 19.3539 14.8485 20.217 14.4607 21.1269C14.2349 21.7164 14.2194 22.3657 14.417 22.9653C14.6145 23.5649 15.0129 24.0779 15.5449 24.4177C15.6309 24.483 15.7349 24.5203 15.8427 24.5246C15.8427 24.3261 15.7511 23.3106 17.0338 21.4705C17.072 21.4246 17.1025 21.3712 17.1407 21.3177C18.4845 23.1502 18.4387 24.2039 18.3929 24.4864C18.4631 24.5036 18.5365 24.5036 18.6067 24.4864C19.1331 24.1804 19.5405 23.7052 19.7623 23.1381C19.9841 22.571 20.0074 21.9456 19.8284 21.3636C19.2482 19.918 18.4358 18.5768 17.4232 17.3932V17.3932ZM18.9503 23.0968C18.6035 22.2338 18.1243 21.4301 17.5301 20.7146C17.2705 20.371 17.0262 20.371 16.7666 20.7146C16.1573 21.4362 15.6675 22.2507 15.3159 23.1273C15.1814 22.9078 15.0949 22.6624 15.062 22.4071C15.0291 22.1518 15.0506 21.8925 15.125 21.6461C15.4747 20.7406 15.9474 19.8876 16.5299 19.1111C16.7055 18.8439 16.9117 18.5843 17.1255 18.2789C18.0273 19.3466 18.7307 20.5671 19.2023 21.8828C19.2769 22.3176 19.1782 22.7644 18.9274 23.1273L18.9503 23.0968Z" />
        </g>
        <defs>
            <clipPath id="clip0_963_2591">
                <rect width="34" height="34" fill="white"/>
            </clipPath>
        </defs>
    </symbol>


    <symbol id="footerIcon2" viewBox="0 0 34 34">
        <g clip-path="url(#clip0_963_2604)">
            <rect width="34" height="34" fill="#232323"/>
            <path d="M15.5457 24.4482C15.6317 24.5135 15.7356 24.5509 15.8435 24.5551C15.8435 24.3566 15.7595 23.3411 17.0422 21.501C17.0422 21.4552 17.111 21.4018 17.1568 21.3483C18.5006 23.1808 18.4548 24.2345 18.409 24.517C18.4793 24.5335 18.5524 24.5335 18.6227 24.517C19.1645 24.2154 19.5862 23.7367 19.8169 23.1612C20.0477 22.5857 20.0736 21.9483 19.8902 21.3559C19.3079 19.9104 18.49 18.5713 17.4698 17.3932C17.4361 17.3396 17.3894 17.2954 17.334 17.2647C17.2786 17.2341 17.2163 17.218 17.153 17.218C17.0896 17.218 17.0273 17.2341 16.9719 17.2647C16.9165 17.2954 16.8698 17.3396 16.8361 17.3932C16.5307 17.7674 16.2405 18.1568 15.9657 18.5538C15.3791 19.3519 14.8871 20.2153 14.4997 21.1269C14.2637 21.7161 14.239 22.3689 14.4297 22.9743C14.6204 23.5798 15.0147 24.1005 15.5457 24.4482V24.4482ZM15.1258 21.6003C15.4754 20.6948 15.9482 19.8418 16.5307 19.0654C16.7139 18.7981 16.9125 18.5385 17.1339 18.2331C18.0257 19.3139 18.7186 20.5445 19.1801 21.8675C19.2572 22.2896 19.1668 22.725 18.9282 23.0815C18.584 22.2189 18.1075 21.4151 17.5156 20.6993C17.2484 20.3557 17.0041 20.3557 16.7521 20.6993C16.1454 21.427 15.6582 22.2466 15.309 23.1273C15.1677 22.9021 15.078 22.6484 15.0463 22.3843C15.0146 22.1203 15.0418 21.8526 15.1258 21.6003V21.6003Z"/>
            <path d="M15.095 6.28384H19.1264V4.03906H15.0645L15.095 6.28384ZM18.2942 4.88658V5.42105H15.9578V4.88658H18.2942Z"/>
            <path d="M8.43812 4.03906C8.06059 4.03906 7.69155 4.15101 7.37764 4.36076C7.06374 4.5705 6.81908 4.86862 6.6746 5.21741C6.53013 5.56621 6.49232 5.95 6.56597 6.32028C6.63963 6.69056 6.82143 7.03068 7.08838 7.29763C7.35534 7.56459 7.69545 7.74638 8.06573 7.82004C8.436 7.89369 8.8198 7.85589 9.16859 7.71141C9.51738 7.56694 9.81551 7.32228 10.0253 7.00838C10.235 6.69447 10.3469 6.32542 10.3469 5.94789C10.3469 5.44164 10.1458 4.95612 9.78786 4.59814C9.42989 4.24017 8.94438 4.03906 8.43812 4.03906ZM9.48416 5.94789C9.47667 6.15298 9.40901 6.35134 9.28962 6.51827C9.17022 6.68519 9.00436 6.81331 8.81269 6.88666C8.62101 6.96001 8.41199 6.97535 8.21166 6.93078C8.01133 6.88621 7.82853 6.7837 7.68603 6.636C7.54354 6.4883 7.44763 6.30195 7.41027 6.10015C7.3729 5.89835 7.39573 5.69001 7.4759 5.50109C7.55608 5.31217 7.69005 5.151 7.86114 5.03766C8.03224 4.92432 8.23289 4.86381 8.43812 4.86368C8.57831 4.85851 8.7181 4.88181 8.84904 4.93216C8.97997 4.98251 9.09934 5.05887 9.19995 5.15662C9.30057 5.25438 9.38034 5.37151 9.43443 5.50095C9.48853 5.63038 9.51583 5.76943 9.5147 5.90971L9.48416 5.94789Z"/>
            <path d="M12.7135 4.03906C12.336 4.03906 11.9669 4.15101 11.653 4.36076C11.3391 4.5705 11.0945 4.86862 10.95 5.21741C10.8055 5.56621 10.7677 5.95 10.8414 6.32028C10.915 6.69056 11.0968 7.03068 11.3638 7.29763C11.6307 7.56459 11.9708 7.74638 12.3411 7.82004C12.7114 7.89369 13.0952 7.85589 13.444 7.71141C13.7928 7.56694 14.0909 7.32228 14.3006 7.00838C14.5104 6.69447 14.6223 6.32542 14.6223 5.94789C14.6223 5.44164 14.4212 4.95612 14.0633 4.59814C13.7053 4.24017 13.2198 4.03906 12.7135 4.03906ZM13.7595 5.94789C13.7595 6.15477 13.6982 6.35702 13.5832 6.52904C13.4683 6.70106 13.3049 6.83513 13.1138 6.9143C12.9227 6.99347 12.7124 7.01419 12.5094 6.97383C12.3065 6.93347 12.1201 6.83384 11.9738 6.68755C11.8276 6.54126 11.7279 6.35487 11.6876 6.15196C11.6472 5.94905 11.6679 5.73873 11.7471 5.54759C11.8263 5.35645 11.9603 5.19308 12.1324 5.07814C12.3044 4.9632 12.5066 4.90185 12.7135 4.90185C12.9884 4.89565 13.2547 4.99792 13.4547 5.18654C13.6547 5.37515 13.7725 5.63495 13.7825 5.90971L13.7595 5.94789Z"/>
            <path d="M21.5397 4.03906C21.1622 4.03906 20.7931 4.15101 20.4792 4.36076C20.1653 4.5705 19.9206 4.86862 19.7762 5.21741C19.6317 5.56621 19.5939 5.95 19.6675 6.32028C19.7412 6.69056 19.923 7.03068 20.1899 7.29763C20.4569 7.56459 20.797 7.74638 21.1673 7.82004C21.5376 7.89369 21.9214 7.85589 22.2702 7.71141C22.6189 7.56694 22.9171 7.32228 23.1268 7.00838C23.3366 6.69447 23.4485 6.32542 23.4485 5.94789C23.4485 5.44164 23.2474 4.95612 22.8894 4.59814C22.5315 4.24017 22.0459 4.03906 21.5397 4.03906V4.03906ZM22.5857 5.94789C22.5857 6.15477 22.5244 6.35702 22.4094 6.52904C22.2945 6.70106 22.1311 6.83513 21.94 6.9143C21.7488 6.99347 21.5385 7.01419 21.3356 6.97383C21.1327 6.93347 20.9463 6.83384 20.8 6.68755C20.6537 6.54126 20.5541 6.35487 20.5137 6.15196C20.4734 5.94905 20.4941 5.73873 20.5733 5.54759C20.6524 5.35645 20.7865 5.19308 20.9585 5.07814C21.1306 4.9632 21.3328 4.90185 21.5397 4.90185C21.8106 4.90167 22.0711 5.00662 22.2662 5.19461C22.4613 5.3826 22.5758 5.63896 22.5857 5.90971V5.94789Z"/>
            <path d="M25.7836 4.03908C25.4058 4.03757 25.036 4.14823 24.7211 4.35705C24.4062 4.56588 24.1603 4.86347 24.0147 5.21212C23.869 5.56078 23.8302 5.94482 23.9029 6.31559C23.9757 6.68637 24.1569 7.02721 24.4236 7.29492C24.6902 7.56264 25.0303 7.7452 25.4008 7.81947C25.7713 7.89375 26.1555 7.85639 26.5047 7.71215C26.8539 7.5679 27.1525 7.32325 27.3626 7.00918C27.5727 6.69511 27.6848 6.32576 27.6848 5.9479C27.6848 5.44297 27.4848 4.95861 27.1284 4.60085C26.7721 4.2431 26.2886 4.0411 25.7836 4.03908ZM26.822 5.9479C26.8205 6.15295 26.7583 6.35296 26.6433 6.52271C26.5283 6.69247 26.3656 6.82438 26.1757 6.9018C25.9859 6.97923 25.7773 6.9987 25.5764 6.95778C25.3755 6.91685 25.1912 6.81736 25.0467 6.67183C24.9023 6.52631 24.8041 6.34128 24.7647 6.14006C24.7252 5.93884 24.7462 5.73044 24.825 5.54114C24.9038 5.35185 25.0369 5.19012 25.2075 5.07635C25.3781 4.96259 25.5786 4.90187 25.7836 4.90187C26.0538 4.90175 26.3134 5.00695 26.5073 5.19513C26.7012 5.38331 26.8141 5.63965 26.822 5.90973V5.9479Z"/>
            <path d="M7.09375 25.9829H26.7623V14.675H7.09375V25.9829ZM25.8613 15.5531V25.0972H7.97183V15.5531H25.8613Z"/>
            <path d="M27.9387 10.6742H5.94141V13.316H27.9387V10.6742ZM6.80418 12.4379V11.5217H27.0759V12.4379H6.80418Z"/>
            <path d="M30.3888 28.2888V3.89401C30.3888 3.76421 30.3888 3.6115 30.3888 3.45879C30.3624 3.03432 30.1789 2.63489 29.8739 2.33843C29.569 2.04197 29.1646 1.86975 28.7395 1.85538H27.0979V0.86279H18.1494V1.83247H15.5457V0H12.7512V0.931508H14.5455V1.82484H11.4914V0.397036H10.537V1.82484H7.48285V0.984955H9.31532V0H6.52079V1.85538H5.43659C5.1423 1.84889 4.85239 1.92759 4.60178 2.08202C4.35118 2.23644 4.15056 2.46001 4.02406 2.7258C3.86283 3.07503 3.78195 3.45595 3.78736 3.84056C3.78736 10.6589 3.78736 17.5841 3.78736 24.3032V28.327C3.78736 28.4033 3.78736 28.472 3.78736 28.5637V32.3813C3.78736 32.8187 3.96113 33.2382 4.27042 33.5475C4.57971 33.8568 4.99919 34.0305 5.43659 34.0305H28.6479C28.8645 34.0305 29.0789 33.9879 29.279 33.905C29.4791 33.8221 29.6609 33.7006 29.8141 33.5475C29.9672 33.3944 30.0887 33.2125 30.1716 33.0124C30.2545 32.8124 30.2971 32.5979 30.2971 32.3813V28.5637C30.3888 28.472 30.3888 28.3804 30.3888 28.2888ZM29.3885 29.0141V32.3508C29.3865 32.5243 29.3167 32.6902 29.194 32.8129C29.0713 32.9356 28.9054 33.0054 28.7319 33.0074H5.52057C5.34703 33.0054 5.18118 32.9356 5.05846 32.8129C4.93575 32.6902 4.86593 32.5243 4.86394 32.3508V29.0141H29.3885ZM4.8334 28.075V9.79609H29.4267V28.075H4.8334ZM29.442 6.97867V8.79587H4.81813V6.10061C4.81813 5.2989 4.81813 4.49719 4.81813 3.69549C4.80334 3.57362 4.81646 3.44999 4.85651 3.33394C4.89656 3.2179 4.96248 3.11248 5.04928 3.02568C5.13609 2.93887 5.24151 2.87295 5.35755 2.8329C5.4736 2.79285 5.59723 2.77973 5.71909 2.79452H28.5334C28.6555 2.77998 28.7794 2.79321 28.8957 2.83324C29.012 2.87326 29.1178 2.93903 29.2052 3.02565C29.2926 3.11227 29.3592 3.2175 29.4002 3.33348C29.4412 3.44947 29.4555 3.57321 29.442 3.69549V6.97867Z"/>
        </g>
        <defs>
            <clipPath id="clip0_963_2604">
                <rect width="34" height="34" fill="white"/>
            </clipPath>
        </defs>
    </symbol>

    <symbol id="footerIcon3" viewBox="0 0 34 34">
        <g clip-path="url(#clip0_963_2617)">
            <rect width="34" height="34" fill="#232323"/>
            <rect width="44" height="44" fill="#232323"/>
            <path d="M6.62305 25.778H26.7709V14.181H6.62305V25.778ZM25.8626 15.0815V24.8697H7.52355V15.0815H25.8626Z" />
            <path d="M14.6094 5.57536H18.783V3.27319H14.6094V5.57536ZM17.8982 4.14238V4.69051H15.5256V4.14238H17.8982Z" />
            <path d="M10.944 3.27319C10.5568 3.27319 10.1783 3.38801 9.85636 3.60311C9.53443 3.81822 9.28352 4.12396 9.13535 4.48167C8.98718 4.83938 8.94841 5.23299 9.02394 5.61273C9.09948 5.99247 9.28593 6.34129 9.55971 6.61507C9.83349 6.88885 10.1823 7.07529 10.562 7.15082C10.9418 7.22636 11.3354 7.18759 11.6931 7.03943C12.0508 6.89126 12.3565 6.64034 12.5717 6.31842C12.7868 5.99649 12.9016 5.618 12.9016 5.23082C12.9016 4.71162 12.6953 4.21369 12.3282 3.84657C11.9611 3.47944 11.4631 3.27319 10.944 3.27319ZM12.0167 5.23082C12.0167 5.44299 11.9538 5.6504 11.8359 5.82682C11.7181 6.00324 11.5505 6.14074 11.3545 6.22194C11.1585 6.30313 10.9428 6.32438 10.7347 6.28298C10.5266 6.24159 10.3354 6.13941 10.1854 5.98938C10.0354 5.83935 9.93319 5.6482 9.8918 5.4401C9.85041 5.23201 9.87164 5.01631 9.95283 4.82028C10.034 4.62426 10.1715 4.45671 10.3479 4.33883C10.5244 4.22096 10.7318 4.15804 10.944 4.15804C11.2224 4.15587 11.4906 4.26285 11.6912 4.45606C11.8917 4.64927 12.0085 4.91333 12.0167 5.19166V5.23082Z" />
            <path d="M22.44 3.27319C22.0528 3.27319 21.6744 3.38801 21.3524 3.60311C21.0305 3.81822 20.7796 4.12396 20.6314 4.48167C20.4833 4.83938 20.4445 5.23299 20.52 5.61273C20.5956 5.99247 20.782 6.34129 21.0558 6.61507C21.3296 6.88885 21.6784 7.07529 22.0581 7.15082C22.4379 7.22636 22.8315 7.18759 23.1892 7.03943C23.5469 6.89126 23.8526 6.64034 24.0677 6.31842C24.2828 5.99649 24.3977 5.618 24.3977 5.23082C24.3977 4.71162 24.1914 4.21369 23.8243 3.84657C23.4572 3.47944 22.9592 3.27319 22.44 3.27319V3.27319ZM23.5128 5.23082C23.5128 5.44299 23.4499 5.6504 23.332 5.82682C23.2141 6.00324 23.0466 6.14074 22.8506 6.22194C22.6546 6.30313 22.4388 6.32438 22.2307 6.28298C22.0226 6.24159 21.8315 6.13941 21.6815 5.98938C21.5314 5.83935 21.4293 5.6482 21.3879 5.4401C21.3465 5.23201 21.3677 5.01631 21.4489 4.82028C21.5301 4.62426 21.6676 4.45671 21.844 4.33883C22.0205 4.22096 22.2279 4.15804 22.44 4.15804C22.7179 4.15785 22.985 4.26549 23.1851 4.45828C23.3852 4.65108 23.5027 4.91399 23.5128 5.19166V5.23082Z" />
            <path d="M27.7804 10.0779H5.2207V12.7872H27.7804V10.0779ZM6.12904 11.8867V10.9471H26.919V11.8867H6.12904Z" />
            <path d="M30.2939 28.1428V3.12437C30.2939 2.99125 30.2939 2.83464 30.2939 2.67803C30.2669 2.24271 30.0787 1.83306 29.7659 1.52902C29.4532 1.22498 29.0384 1.04836 28.6025 1.03362H26.9189V0H17.7416V1.0023H15.0479V0H5.90191V1.03362H4.80565C4.50251 1.02544 4.20352 1.10543 3.94498 1.26389C3.68644 1.42236 3.47947 1.65247 3.34919 1.9263C3.18384 2.28445 3.10089 2.67512 3.10644 3.06955C3.10644 10.626 3.10644 18.3234 3.10644 25.778V28.2133C3.10254 28.2837 3.10254 28.3543 3.10644 28.4247V32.3399C3.10644 32.7885 3.28463 33.2187 3.60182 33.5359C3.91902 33.8531 4.34922 34.0313 4.79781 34.0313H28.6025C29.0518 34.0313 29.4828 33.8534 29.8013 33.5364C30.1197 33.2194 30.2997 32.7892 30.3017 32.3399V28.4247C30.2939 28.3307 30.2939 28.2368 30.2939 28.1428ZM29.2681 28.8867V32.3086C29.2661 32.4866 29.1945 32.6567 29.0686 32.7825C28.9427 32.9084 28.7727 32.98 28.5947 32.982H4.78999C4.61202 32.98 4.4419 32.9084 4.31605 32.7825C4.1902 32.6567 4.11859 32.4866 4.11656 32.3086V28.8867H29.2681ZM4.09307 27.9235V9.17734H29.3073V27.9235H4.09307ZM29.3229 6.53063V8.15154H4.06958V2.92077C4.05441 2.79579 4.06786 2.669 4.10894 2.54999C4.15001 2.43097 4.21761 2.32286 4.30663 2.23384C4.39566 2.14482 4.50378 2.07721 4.62279 2.03614C4.7418 1.99506 4.86859 1.98161 4.99357 1.99678H28.3911C28.5164 1.98186 28.6434 1.99544 28.7627 2.03648C28.882 2.07752 28.9905 2.14498 29.0801 2.23381C29.1697 2.32265 29.238 2.43056 29.2801 2.54951C29.3221 2.66846 29.3368 2.79537 29.3229 2.92077V6.53063Z" />
        </g>
        <defs>
            <clipPath id="clip0_963_2617">
                <rect width="34" height="34" fill="white"/>
            </clipPath>
        </defs>
    </symbol>

    <symbol id="footerIcon4" viewBox="0 0 34 34">
        <g clip-path="url(#clip0_963_2662)">
            <rect width="34" height="34" fill="#232323"/>
            <rect width="44" height="44" fill="#232323"/>
            <path fill-rule="evenodd" clip-rule="evenodd" d="M32.0221 16.7434C32.0221 16.7122 32.0141 16.6836 32.0061 16.655L32.0023 16.6412L31.9982 16.6257C31.9967 16.6191 31.997 16.6123 31.9973 16.6056C31.9976 16.598 31.998 16.5904 31.9956 16.5831L31.2439 14.2751C31.1758 14.0632 30.9766 13.9183 30.7533 13.9183H29.2523V4.43384C29.2523 4.42502 29.25 4.41699 29.2477 4.40896C29.2458 4.40243 29.2439 4.3959 29.2433 4.38894C29.2419 4.37393 29.2386 4.36043 29.2352 4.34649L29.2352 4.34647C29.2337 4.34046 29.2322 4.33436 29.2309 4.32803C29.2149 4.25447 29.1859 4.18854 29.1425 4.13026C29.1391 4.12575 29.1376 4.1205 29.136 4.11527C29.1343 4.10969 29.1327 4.10413 29.1289 4.09945L27.1108 1.72837C27.0124 1.61229 26.8686 1.54541 26.7172 1.54541H7.10689C6.95546 1.54541 6.81167 1.61229 6.71326 1.72694L4.6947 4.09826C4.69004 4.1038 4.68804 4.11046 4.68603 4.11713L4.68603 4.11714C4.68423 4.12313 4.68242 4.12913 4.67869 4.13433C4.63761 4.1907 4.60966 4.25375 4.5939 4.32422L4.5898 4.34139C4.58576 4.35789 4.58189 4.37368 4.58029 4.39134C4.57974 4.39812 4.57789 4.40444 4.57605 4.41076C4.57386 4.41824 4.57169 4.42569 4.57169 4.43385V13.9183H2.70574C2.47358 13.9183 2.27055 14.0735 2.20821 14.2966L1.56379 16.6047C1.56121 16.6141 1.56184 16.6237 1.56247 16.6332C1.56301 16.6414 1.56354 16.6496 1.56212 16.6577C1.56025 16.6684 1.55739 16.6788 1.55454 16.6892L1.55453 16.6892C1.54972 16.7067 1.54492 16.7241 1.54492 16.7432C1.54492 16.7561 1.54822 16.7678 1.55153 16.7795C1.55399 16.7882 1.55646 16.797 1.55758 16.8062C1.55847 16.8132 1.55754 16.8201 1.55661 16.827C1.55555 16.8348 1.55449 16.8427 1.55615 16.8504L4.59696 31.1C4.59696 31.8466 5.20436 32.4545 5.95105 32.4545H27.8965C28.6432 32.4545 29.251 31.8466 29.241 31.1984L32.0119 16.8412C32.0132 16.8346 32.012 16.8281 32.0109 16.8216C32.0098 16.8158 32.0088 16.81 32.0095 16.8042C32.0105 16.7953 32.013 16.7868 32.0154 16.7783L32.0154 16.7783L32.0154 16.7782C32.0187 16.7669 32.0219 16.7556 32.0219 16.743L32.0221 16.7434ZM5.60501 4.95071H28.2182V6.93846H5.60501V4.95071ZM7.34555 2.57964H26.4783L27.6178 3.91648H6.20682L7.34555 2.57964ZM5.60501 7.97269H28.2182V13.9182H28.0574C27.7925 11.1919 25.5148 9.04581 22.721 9.04581C21.6794 9.04581 20.6893 9.35465 19.8213 9.91213C18.9806 9.36946 17.9853 9.04581 16.9123 9.04581C15.8389 9.04581 14.8431 9.3697 14.0021 9.91287C13.1356 9.35443 12.1455 9.04581 11.1037 9.04581C8.3091 9.04581 6.03188 11.1917 5.76724 13.9182H5.6053L5.60501 7.97269ZM20.433 13.9182C20.1798 12.1942 18.7051 10.8621 16.9123 10.8621C15.1188 10.8621 13.6441 12.1942 13.3909 13.9182H12.6089C12.8683 11.7625 14.6879 10.0803 16.9123 10.0803C19.1368 10.0803 20.9564 11.7625 21.2158 13.9182H20.433ZM19.3988 13.9182H14.4249C14.6647 12.7655 15.6887 11.8963 16.9121 11.8963C18.1355 11.8963 19.1592 12.7655 19.3988 13.9182ZM8.61623 13.9182C8.85604 12.7655 9.88 11.8963 11.1034 11.8963C11.4414 11.8963 11.7631 11.9852 12.0705 12.113C11.8023 12.6693 11.6377 13.2764 11.5756 13.9182H8.61623ZM6.8 13.9182C7.05939 11.7625 8.87898 10.0803 11.1034 10.0803C11.8262 10.0803 12.5208 10.257 13.1463 10.591C12.9545 10.7789 12.7885 10.9898 12.6261 11.2046C12.1522 10.981 11.6344 10.8623 11.1032 10.8623C9.30964 10.8623 7.83497 12.1944 7.58177 13.9184L6.8 13.9182ZM22.2486 13.9182C22.1863 13.2762 22.0215 12.669 21.7533 12.1125C22.0604 11.9852 22.3821 11.8963 22.7208 11.8963C23.9443 11.8963 24.9682 12.7655 25.208 13.9182L22.2486 13.9182ZM26.2422 13.9182C25.989 12.1942 24.5144 10.8621 22.7208 10.8621C22.1891 10.8621 21.6713 10.9806 21.1979 11.2041C21.036 10.9897 20.87 10.7788 20.6784 10.591C21.3044 10.2569 21.9988 10.0801 22.7208 10.0801C24.9453 10.0801 26.7644 11.7624 27.0237 13.918L26.2422 13.9182ZM30.3785 14.9524L30.7934 16.2262H2.74246L3.09835 14.9524H30.3785ZM28.2168 31.1006C28.2168 31.2771 28.073 31.4209 27.8965 31.4209H5.95108C5.77386 31.4209 5.63007 31.2771 5.61884 30.9933L2.69934 17.2605H30.8793L28.2168 31.1006ZM20.8027 19.1491C20.5378 19.0445 20.2376 19.1794 20.1349 19.4455L19.6839 20.6121H13.7969L13.346 19.4455C13.2437 19.1794 12.9454 19.0445 12.6781 19.1491C12.412 19.2513 12.2795 19.5501 12.3824 19.8162L12.9607 21.3145C13.0376 21.5137 13.2287 21.6463 13.4425 21.6463H20.0383C20.2521 21.6463 20.4432 21.514 20.5201 21.3145L21.0984 19.8162C21.2015 19.5501 21.069 19.2513 20.8029 19.1491H20.8027ZM24.9209 5.50475H26.1424C26.4276 5.50475 26.6588 5.73692 26.6588 6.02187C26.6588 6.30682 26.4273 6.53898 26.1424 6.53898H24.9209C24.6359 6.53898 24.4045 6.30682 24.4045 6.02187C24.4045 5.73692 24.6359 5.50475 24.9209 5.50475ZM22.902 5.50475C22.617 5.50475 22.3856 5.73692 22.3856 6.02187C22.3856 6.30682 22.617 6.53898 22.902 6.53898H22.9701C23.255 6.53898 23.4525 6.30682 23.4525 6.02187C23.4523 5.73691 23.1869 5.50475 22.902 5.50475ZM20.8239 6.02187C20.8239 5.73692 21.0553 5.50475 21.3403 5.50475C21.6253 5.50475 21.8944 5.73691 21.8947 6.02187C21.8947 6.30682 21.701 6.53898 21.416 6.53898H21.3403C21.0554 6.53898 20.8239 6.30682 20.8239 6.02187Z"/>
            <path d="M32.0061 16.655L31.9097 16.6817L31.9098 16.6819L32.0061 16.655ZM32.0221 16.7434L31.931 16.7846L32.1221 16.7434H32.0221ZM32.0023 16.6412L31.9055 16.6664L31.9059 16.6679L32.0023 16.6412ZM31.9982 16.6257L31.9009 16.6487L31.9014 16.6508L31.9982 16.6257ZM31.9973 16.6056L32.0972 16.6103V16.6103L31.9973 16.6056ZM31.9956 16.5831L31.9005 16.6141L31.9007 16.6148L31.9956 16.5831ZM31.2439 14.2751L31.1487 14.3057L31.1488 14.3061L31.2439 14.2751ZM29.2523 13.9183H29.1523V14.0183H29.2523V13.9183ZM29.2477 4.40896L29.1516 4.43677L29.1516 4.43677L29.2477 4.40896ZM29.2433 4.38894L29.1437 4.3978L29.1437 4.39813L29.2433 4.38894ZM29.2352 4.34649L29.3323 4.32263L29.3318 4.32073L29.2352 4.34649ZM29.2352 4.34647L29.1381 4.37032L29.1386 4.37224L29.2352 4.34647ZM29.2309 4.32803L29.3286 4.30692L29.3286 4.30678L29.2309 4.32803ZM29.1425 4.13026L29.0622 4.18994L29.0623 4.19004L29.1425 4.13026ZM29.136 4.11527L29.0402 4.14381L29.0402 4.14381L29.136 4.11527ZM29.1289 4.09945L29.2064 4.03622L29.205 4.03463L29.1289 4.09945ZM27.1108 1.72837L27.0345 1.79304L27.0346 1.79319L27.1108 1.72837ZM6.71326 1.72694L6.63738 1.66181L6.63711 1.66212L6.71326 1.72694ZM4.6947 4.09826L4.61855 4.03344L4.61816 4.0339L4.6947 4.09826ZM4.68603 4.11713L4.78094 4.14877L4.78179 4.14593L4.68603 4.11713ZM4.68603 4.11714L4.59112 4.0855L4.59027 4.08834L4.68603 4.11714ZM4.67869 4.13433L4.75951 4.19323L4.75994 4.19262L4.67869 4.13433ZM4.5939 4.32422L4.69118 4.34744L4.69149 4.34605L4.5939 4.32422ZM4.5898 4.34139L4.68693 4.36518L4.68707 4.36461L4.5898 4.34139ZM4.58029 4.39134L4.48069 4.38228L4.48061 4.3833L4.58029 4.39134ZM4.57605 4.41076L4.67204 4.43879L4.67204 4.43879L4.57605 4.41076ZM4.57169 13.9183V14.0183H4.67169V13.9183H4.57169ZM2.20821 14.2966L2.1119 14.2697L2.1119 14.2697L2.20821 14.2966ZM1.56379 16.6047L1.46747 16.5778L1.46735 16.5782L1.56379 16.6047ZM1.56247 16.6332L1.66225 16.6267L1.66225 16.6267L1.56247 16.6332ZM1.56212 16.6577L1.46363 16.6404L1.46359 16.6406L1.56212 16.6577ZM1.55454 16.6892L1.45811 16.6627L1.45779 16.6639L1.55454 16.6892ZM1.55453 16.6892L1.65096 16.7157L1.65128 16.7145L1.55453 16.6892ZM1.55153 16.7795L1.64778 16.7523H1.64778L1.55153 16.7795ZM1.55758 16.8062L1.4583 16.8182L1.4584 16.819L1.55758 16.8062ZM1.55661 16.827L1.45751 16.8136L1.45751 16.8136L1.55661 16.827ZM1.55615 16.8504L1.45834 16.8713L1.45835 16.8713L1.55615 16.8504ZM4.59696 31.1H4.69696V31.0894L4.69476 31.0791L4.59696 31.1ZM29.241 31.1984L29.1428 31.1794L29.1408 31.1896L29.141 31.1999L29.241 31.1984ZM32.0119 16.8412L32.1101 16.8601L32.1101 16.8601L32.0119 16.8412ZM32.0109 16.8216L31.9124 16.8389L31.9124 16.8389L32.0109 16.8216ZM32.0095 16.8042L32.1088 16.8156L32.1089 16.8156L32.0095 16.8042ZM32.0154 16.7783L32.1118 16.806L32.1135 16.7979L32.0154 16.7783ZM32.0154 16.7782L31.919 16.7505L31.9174 16.7586L32.0154 16.7782ZM32.0219 16.743L32.113 16.7018L31.9219 16.743H32.0219ZM28.2182 4.95071H28.3182V4.85071H28.2182V4.95071ZM5.60501 4.95071V4.85071H5.50501V4.95071H5.60501ZM28.2182 6.93846V7.03846H28.3182V6.93846H28.2182ZM5.60501 6.93846H5.50501V7.03846H5.60501V6.93846ZM26.4783 2.57964L26.5544 2.51477L26.5244 2.47964H26.4783V2.57964ZM7.34555 2.57964V2.47964H7.29937L7.26942 2.5148L7.34555 2.57964ZM27.6178 3.91648V4.01648H27.8345L27.6939 3.85161L27.6178 3.91648ZM6.20682 3.91648L6.13069 3.85164L5.99028 4.01648H6.20682V3.91648ZM28.2182 7.97269H28.3182V7.87269H28.2182V7.97269ZM5.60501 7.97269V7.87269H5.50501L5.50501 7.9727L5.60501 7.97269ZM28.2182 13.9182V14.0182H28.3182V13.9182H28.2182ZM28.0574 13.9182L27.9579 13.9279L27.9667 14.0182H28.0574V13.9182ZM19.8213 9.91213L19.7671 9.99615L19.8212 10.0311L19.8754 9.99627L19.8213 9.91213ZM14.0021 9.91287L13.948 9.99693L14.0022 10.0319L14.0564 9.99687L14.0021 9.91287ZM5.76724 13.9182V14.0182H5.85801L5.86677 13.9279L5.76724 13.9182ZM5.6053 13.9182L5.5053 13.9182L5.50531 14.0182H5.6053V13.9182ZM20.433 13.9182L20.3341 13.9327L20.3466 14.0182H20.433V13.9182ZM13.3909 13.9182V14.0182H13.4773L13.4898 13.9327L13.3909 13.9182ZM12.6089 13.9182L12.5096 13.9063L12.4962 14.0182H12.6089V13.9182ZM21.2158 13.9182V14.0182H21.3285L21.315 13.9063L21.2158 13.9182ZM14.4249 13.9182L14.327 13.8978L14.3019 14.0182H14.4249V13.9182ZM19.3988 13.9182V14.0182H19.5217L19.4967 13.8979L19.3988 13.9182ZM8.61623 13.9182L8.51833 13.8978L8.49328 14.0182H8.61623V13.9182ZM12.0705 12.113L12.1606 12.1564L12.2065 12.0612L12.1089 12.0206L12.0705 12.113ZM11.5756 13.9182V14.0182H11.6664L11.6751 13.9278L11.5756 13.9182ZM6.8 13.9182L6.70072 13.9063L6.68725 14.0182L6.79998 14.0182L6.8 13.9182ZM13.1463 10.591L13.2163 10.6624L13.3137 10.5669L13.1934 10.5027L13.1463 10.591ZM12.6261 11.2046L12.5834 11.295L12.6569 11.3296L12.7059 11.2649L12.6261 11.2046ZM7.58177 13.9184L7.58174 14.0184L7.66815 14.0184L7.68071 13.9329L7.58177 13.9184ZM21.7533 12.1125L21.715 12.0201L21.6172 12.0606L21.6632 12.1559L21.7533 12.1125ZM22.2486 13.9182L22.1491 13.9279L22.1579 14.0182H22.2486V13.9182ZM25.208 13.9182V14.0182L25.331 14.0182L25.3059 13.8978L25.208 13.9182ZM26.2422 13.9182L26.1433 13.9327L26.1558 14.0182L26.2423 14.0182L26.2422 13.9182ZM21.1979 11.2041L21.1181 11.2644L21.1671 11.3293L21.2406 11.2946L21.1979 11.2041ZM20.6784 10.591L20.6313 10.5028L20.511 10.567L20.6084 10.6625L20.6784 10.591ZM27.0237 13.918L27.0238 14.018L27.1365 14.018L27.123 13.9061L27.0237 13.918ZM30.7934 16.2262V16.3262H30.9311L30.8885 16.1953L30.7934 16.2262ZM30.3785 14.9524L30.4736 14.9215L30.4511 14.8524H30.3785V14.9524ZM2.74246 16.2262L2.64614 16.1993L2.61069 16.3262H2.74246V16.2262ZM3.09835 14.9524V14.8524H3.02246L3.00204 14.9255L3.09835 14.9524ZM28.2168 31.1006L28.1186 31.0817L28.1168 31.0911V31.1006H28.2168ZM5.61884 30.9933L5.71876 30.9894L5.71842 30.9809L5.71665 30.9725L5.61884 30.9933ZM2.69934 17.2605V17.1605H2.57585L2.60153 17.2813L2.69934 17.2605ZM30.8793 17.2605L30.9775 17.2794L31.0003 17.1605H30.8793V17.2605ZM20.1349 19.4455L20.2281 19.4816L20.2282 19.4815L20.1349 19.4455ZM20.8027 19.1491L20.766 19.2421L20.7837 19.2491H20.8027V19.1491ZM19.6839 20.6121V20.7121H19.7525L19.7772 20.6481L19.6839 20.6121ZM13.7969 20.6121L13.7037 20.6481L13.7284 20.7121H13.7969V20.6121ZM13.346 19.4455L13.2526 19.4814L13.2527 19.4816L13.346 19.4455ZM12.6781 19.1491L12.714 19.2425L12.7146 19.2422L12.6781 19.1491ZM12.3824 19.8162L12.4757 19.7802L12.4757 19.7801L12.3824 19.8162ZM12.9607 21.3145L12.8674 21.3505L12.8674 21.3506L12.9607 21.3145ZM20.5201 21.3145L20.4268 21.2785L20.4268 21.2786L20.5201 21.3145ZM21.0983 19.8162L21.0051 19.7801L21.0051 19.7802L21.0983 19.8162ZM20.8029 19.1491L20.8388 19.0558L20.8214 19.0491H20.8029V19.1491ZM23.4525 6.02187H23.5525V6.02179L23.4525 6.02187ZM21.8947 6.02187H21.9947V6.02179L21.8947 6.02187ZM31.9098 16.6819C31.9183 16.7124 31.9221 16.728 31.9221 16.7434H32.1221C32.1221 16.6963 32.1099 16.6549 32.1024 16.628L31.9098 16.6819ZM31.9059 16.6679L31.9097 16.6817L32.1024 16.6282L32.0986 16.6145L31.9059 16.6679ZM31.9014 16.6508L31.9055 16.6664L32.099 16.616L32.095 16.6005L31.9014 16.6508ZM31.8974 16.6009C31.8972 16.6052 31.8956 16.6261 31.9009 16.6487L32.0955 16.6026C32.0968 16.6082 32.097 16.6122 32.097 16.6134C32.097 16.6141 32.097 16.6143 32.0972 16.6103L31.8974 16.6009ZM31.9007 16.6148C31.8981 16.607 31.8977 16.601 31.8976 16.5987C31.8975 16.5975 31.8976 16.597 31.8975 16.5975C31.8975 16.598 31.8975 16.5988 31.8974 16.6009L32.0972 16.6103C32.0974 16.606 32.0998 16.5794 32.0905 16.5515L31.9007 16.6148ZM31.1488 14.3061L31.9005 16.6141L32.0907 16.5522L31.339 14.2441L31.1488 14.3061ZM30.7533 14.0183C30.9334 14.0183 31.094 14.1354 31.1487 14.3057L31.3391 14.2445C31.2577 13.9911 31.0199 13.8183 30.7533 13.8183V14.0183ZM29.2523 14.0183H30.7533V13.8183H29.2523V14.0183ZM29.1523 4.43384V13.9183H29.3524V4.43384H29.1523ZM29.1516 4.43677C29.153 4.44136 29.1531 4.44189 29.1531 4.44184C29.1529 4.44124 29.1523 4.43827 29.1523 4.43384H29.3524C29.3524 4.40865 29.3455 4.38733 29.3438 4.38115L29.1516 4.43677ZM29.1437 4.39813C29.1454 4.41609 29.1502 4.43163 29.1516 4.43677L29.3438 4.38115C29.3427 4.3775 29.3424 4.37655 29.3423 4.37597C29.3422 4.3757 29.3426 4.37718 29.3429 4.37975L29.1437 4.39813ZM29.1381 4.37035C29.1417 4.38514 29.1431 4.3915 29.1437 4.3978L29.3429 4.38008C29.3408 4.35635 29.3355 4.33572 29.3323 4.32263L29.1381 4.37035ZM29.1386 4.37224L29.1386 4.37226L29.3318 4.32073L29.3318 4.3207L29.1386 4.37224ZM29.1331 4.34914C29.1348 4.35707 29.1367 4.36451 29.1381 4.37032L29.3323 4.32263C29.3308 4.31641 29.3296 4.31166 29.3286 4.30692L29.1331 4.34914ZM29.0623 4.19004C29.0965 4.23592 29.1199 4.28844 29.1331 4.34929L29.3286 4.30678C29.3098 4.22049 29.2754 4.14117 29.2226 4.07047L29.0623 4.19004ZM29.0402 4.14381C29.0409 4.14635 29.0466 4.16897 29.0622 4.18994L29.2227 4.07058C29.2277 4.0773 29.2303 4.08319 29.2315 4.0861C29.2324 4.08839 29.2328 4.09006 29.2318 4.08672L29.0402 4.14381ZM29.0514 4.16266C29.0454 4.1553 29.0422 4.14859 29.0408 4.14505C29.0396 4.14229 29.0391 4.1402 29.0402 4.14381L29.2318 4.08673C29.2311 4.08412 29.2248 4.05886 29.2064 4.03624L29.0514 4.16266ZM27.0346 1.79319L29.0527 4.16426L29.205 4.03463L27.1869 1.66356L27.0346 1.79319ZM26.7172 1.64541C26.839 1.64541 26.955 1.69922 27.0345 1.79304L27.1871 1.66371C27.0698 1.52537 26.8982 1.44541 26.7172 1.44541V1.64541ZM7.10689 1.64541H26.7172V1.44541H7.10689V1.64541ZM6.78914 1.79207C6.86877 1.69931 6.98495 1.64541 7.10689 1.64541V1.44541C6.92596 1.44541 6.75457 1.52528 6.63738 1.66181L6.78914 1.79207ZM4.77084 4.16308L6.78941 1.79176L6.63711 1.66212L4.61855 4.03344L4.77084 4.16308ZM4.78179 4.14593C4.78236 4.14406 4.78249 4.14363 4.78257 4.14341C4.78259 4.14332 4.78228 4.14428 4.78164 4.14583C4.7803 4.14903 4.77721 4.15551 4.77123 4.16262L4.61816 4.0339C4.59812 4.05773 4.59134 4.08477 4.59027 4.08833L4.78179 4.14593ZM4.7809 4.14876L4.7809 4.14876L4.59116 4.08551L4.59116 4.08551L4.7809 4.14876ZM4.75994 4.19262C4.77496 4.17169 4.78078 4.14932 4.78179 4.14593L4.59027 4.08834C4.58916 4.09202 4.58941 4.09099 4.59005 4.08936C4.59091 4.08717 4.59312 4.08206 4.59744 4.07603L4.75994 4.19262ZM4.69149 4.34605C4.70443 4.28819 4.72695 4.2379 4.75951 4.19323L4.59788 4.07543C4.54828 4.14349 4.5149 4.21931 4.49631 4.30239L4.69149 4.34605ZM4.68707 4.36461L4.69117 4.34744L4.49663 4.301L4.49254 4.31817L4.68707 4.36461ZM4.67988 4.40039C4.6807 4.3913 4.68268 4.38252 4.68693 4.36518L4.49267 4.31759C4.48884 4.33326 4.48308 4.35606 4.4807 4.38229L4.67988 4.40039ZM4.67204 4.43879C4.67346 4.43392 4.67846 4.41796 4.67996 4.39938L4.48061 4.3833L4.48006 4.38273L4.67204 4.43879ZM4.67169 4.43385C4.67169 4.43872 4.67103 4.44208 4.67083 4.44298C4.67076 4.44334 4.67078 4.44311 4.67204 4.43879L4.48006 4.38272C4.47843 4.38828 4.47169 4.40918 4.47169 4.43385H4.67169ZM4.67169 13.9183V4.43385H4.47169V13.9183H4.67169ZM2.70574 14.0183H4.57169V13.8183H2.70574V14.0183ZM2.30452 14.3235C2.35487 14.1434 2.51874 14.0183 2.70574 14.0183V13.8183C2.42841 13.8183 2.18624 14.0037 2.1119 14.2697L2.30452 14.3235ZM1.66011 16.6315L2.30453 14.3235L2.1119 14.2697L1.46748 16.5778L1.66011 16.6315ZM1.66225 16.6267C1.66189 16.6212 1.66191 16.6206 1.66191 16.6207C1.66189 16.6214 1.66178 16.6254 1.66024 16.6311L1.46735 16.5782C1.45959 16.6065 1.46224 16.633 1.46269 16.6398L1.66225 16.6267ZM1.66061 16.675C1.66446 16.653 1.66266 16.6328 1.66225 16.6267L1.46269 16.6398C1.46299 16.6444 1.46303 16.6455 1.46303 16.646C1.46303 16.6462 1.46299 16.644 1.46363 16.6404L1.66061 16.675ZM1.65095 16.7157C1.6536 16.7061 1.65782 16.6911 1.66065 16.6748L1.46359 16.6406C1.46269 16.6458 1.46118 16.6516 1.45812 16.6627L1.65095 16.7157ZM1.65128 16.7145L1.65128 16.7145L1.45779 16.6639L1.45779 16.6639L1.65128 16.7145ZM1.64492 16.7432C1.64492 16.7421 1.64505 16.7399 1.64595 16.7354C1.64695 16.7304 1.64839 16.725 1.65095 16.7157L1.45812 16.6627C1.4538 16.6784 1.44492 16.7086 1.44492 16.7432H1.64492ZM1.64778 16.7523C1.64596 16.7459 1.64532 16.7435 1.64492 16.7416C1.64463 16.7402 1.64492 16.741 1.64492 16.7432H1.44492C1.44492 16.772 1.45247 16.7967 1.45529 16.8066L1.64778 16.7523ZM1.65686 16.7942C1.65466 16.776 1.64993 16.76 1.64778 16.7523L1.45529 16.8066C1.4566 16.8113 1.45729 16.8138 1.45782 16.816C1.45829 16.818 1.45834 16.8185 1.4583 16.8182L1.65686 16.7942ZM1.65571 16.8403C1.65634 16.8357 1.65962 16.8156 1.65676 16.7934L1.4584 16.819C1.45775 16.814 1.45796 16.8105 1.45802 16.8097C1.45804 16.8094 1.45805 16.8096 1.45751 16.8136L1.65571 16.8403ZM1.65395 16.8296C1.65546 16.8366 1.65533 16.8419 1.65524 16.8436C1.65519 16.8447 1.65508 16.845 1.65571 16.8403L1.45751 16.8136C1.45686 16.8184 1.45247 16.8437 1.45834 16.8713L1.65395 16.8296ZM4.69476 31.0791L1.65395 16.8296L1.45835 16.8713L4.49916 31.1209L4.69476 31.0791ZM5.95105 32.3545C5.25963 32.3545 4.69696 31.7915 4.69696 31.1H4.49696C4.49696 31.9018 5.14909 32.5545 5.95105 32.5545V32.3545ZM27.8965 32.3545H5.95105V32.5545H27.8965V32.3545ZM29.141 31.1999C29.1501 31.7866 28.5933 32.3545 27.8965 32.3545V32.5545C28.693 32.5545 29.3519 31.9067 29.341 31.1968L29.141 31.1999ZM31.9137 16.8222L29.1428 31.1794L29.3392 31.2173L32.1101 16.8601L31.9137 16.8222ZM31.9124 16.8389C31.9127 16.8408 31.9128 16.8413 31.9128 16.8416C31.9129 16.8418 31.9127 16.841 31.9126 16.8397C31.9124 16.8369 31.9121 16.8306 31.9137 16.8223L32.1101 16.8601C32.1154 16.8325 32.1099 16.8077 32.1094 16.8043L31.9124 16.8389ZM31.9102 16.7927C31.9075 16.8154 31.9118 16.8356 31.9124 16.8389L32.1094 16.8043C32.1087 16.8008 32.1089 16.8014 32.109 16.8027C32.1092 16.8045 32.1096 16.8092 32.1088 16.8156L31.9102 16.7927ZM31.9193 16.7507C31.9172 16.7579 31.9123 16.7743 31.9102 16.7928L32.1089 16.8156C32.1088 16.8164 32.1087 16.8163 32.1091 16.8147C32.1096 16.8127 32.1102 16.8105 32.1115 16.8059L31.9193 16.7507ZM31.9173 16.7587L31.9173 16.7587L32.1135 16.7979L32.1135 16.7979L31.9173 16.7587ZM31.9174 16.7586L31.9173 16.7587L32.1135 16.7979L32.1135 16.7978L31.9174 16.7586ZM31.9219 16.743C31.9219 16.7406 31.9223 16.7394 31.922 16.7406C31.9217 16.7422 31.9211 16.7444 31.9193 16.7506L32.1115 16.8058C32.1143 16.7963 32.1219 16.7718 32.1219 16.743H31.9219ZM32.1132 16.7022L32.113 16.7018L31.9308 16.7842L31.931 16.7846L32.1132 16.7022ZM28.2182 4.85071H5.60501V5.05071H28.2182V4.85071ZM28.3182 6.93846V4.95071H28.1182V6.93846H28.3182ZM5.60501 7.03846H28.2182V6.83846H5.60501V7.03846ZM5.50501 4.95071V6.93846H5.70501V4.95071H5.50501ZM26.4783 2.47964H7.34555V2.67964H26.4783V2.47964ZM27.6939 3.85161L26.5544 2.51477L26.4022 2.64451L27.5417 3.98136L27.6939 3.85161ZM6.20682 4.01648H27.6178V3.81648H6.20682V4.01648ZM7.26942 2.5148L6.13069 3.85164L6.28294 3.98133L7.42167 2.64448L7.26942 2.5148ZM28.2182 7.87269H5.60501V8.07269H28.2182V7.87269ZM28.3182 13.9182V7.97269H28.1182V13.9182H28.3182ZM28.0574 14.0182H28.2182V13.8182H28.0574V14.0182ZM22.721 9.14581C25.462 9.14581 27.6979 11.2514 27.9579 13.9279L28.157 13.9085C27.8872 11.1324 25.5677 8.94581 22.721 8.94581V9.14581ZM19.8754 9.99627C20.7281 9.44854 21.6996 9.14581 22.721 9.14581V8.94581C21.6591 8.94581 20.6504 9.26076 19.7673 9.82799L19.8754 9.99627ZM16.9123 9.14581C17.9648 9.14581 18.9414 9.4632 19.7671 9.99615L19.8755 9.82812C19.0197 9.27572 18.0058 8.94581 16.9123 8.94581V9.14581ZM14.0564 9.99687C14.8823 9.46344 15.8594 9.14581 16.9123 9.14581V8.94581C15.8184 8.94581 14.804 9.27596 13.9479 9.82886L14.0564 9.99687ZM11.1037 9.14581C12.1253 9.14581 13.0967 9.44833 13.948 9.99693L14.0563 9.82881C13.1745 9.26053 12.1658 8.94581 11.1037 8.94581V9.14581ZM5.86677 13.9279C6.12658 11.2512 8.36197 9.14581 11.1037 9.14581V8.94581C8.25623 8.94581 5.93719 11.1322 5.66771 13.9085L5.86677 13.9279ZM5.6053 14.0182H5.76724V13.8182H5.6053V14.0182ZM5.50501 7.9727L5.5053 13.9182L5.7053 13.9182L5.70501 7.97269L5.50501 7.9727ZM16.9123 10.9621C18.6541 10.9621 20.0879 12.2563 20.3341 13.9327L20.532 13.9037C20.2718 12.132 18.7562 10.7621 16.9123 10.7621V10.9621ZM13.4898 13.9327C13.7361 12.2564 15.1698 10.9621 16.9123 10.9621V10.7621C15.0677 10.7621 13.5522 12.132 13.292 13.9037L13.4898 13.9327ZM12.6089 14.0182H13.3909V13.8182H12.6089V14.0182ZM16.9123 9.98029C14.6358 9.98029 12.7749 11.7018 12.5096 13.9063L12.7082 13.9301C12.9617 11.8233 14.7399 10.1803 16.9123 10.1803V9.98029ZM21.315 13.9063C21.0498 11.7018 19.1888 9.98029 16.9123 9.98029V10.1803C19.0847 10.1803 20.863 11.8233 21.1165 13.9301L21.315 13.9063ZM20.433 14.0182H21.2158V13.8182H20.433V14.0182ZM14.4249 14.0182H19.3988V13.8182H14.4249V14.0182ZM16.9121 11.7963C15.6403 11.7963 14.5762 12.6997 14.327 13.8978L14.5228 13.9386C14.7532 12.8312 15.7371 11.9963 16.9121 11.9963V11.7963ZM19.4967 13.8979C19.2477 12.6998 18.1839 11.7963 16.9121 11.7963V11.9963C18.0871 11.9963 19.0707 12.8313 19.3009 13.9386L19.4967 13.8979ZM11.1034 11.7963C9.8316 11.7963 8.76758 12.6997 8.51833 13.8978L8.71413 13.9386C8.9445 12.8312 9.92841 11.9963 11.1034 11.9963V11.7963ZM12.1089 12.0206C11.7942 11.8898 11.459 11.7963 11.1034 11.7963V11.9963C11.4238 11.9963 11.732 12.0806 12.0321 12.2053L12.1089 12.0206ZM11.6751 13.9278C11.7362 13.297 11.8978 12.7014 12.1606 12.1564L11.9804 12.0695C11.7067 12.6372 11.5392 13.2559 11.4761 13.9086L11.6751 13.9278ZM8.61623 14.0182H11.5756V13.8182H8.61623V14.0182ZM11.1034 9.98029C8.82692 9.98029 6.96598 11.7018 6.70072 13.9063L6.89928 13.9301C7.15281 11.8233 8.93103 10.1803 11.1034 10.1803V9.98029ZM13.1934 10.5027C12.5535 10.1611 11.8427 9.98029 11.1034 9.98029V10.1803C11.8096 10.1803 12.4881 10.3529 13.0992 10.6792L13.1934 10.5027ZM12.7059 11.2649C12.8679 11.0506 13.0302 10.8448 13.2163 10.6624L13.0763 10.5195C12.8789 10.7131 12.7091 10.929 12.5463 11.1442L12.7059 11.2649ZM11.1032 10.9623C11.6194 10.9623 12.1227 11.0776 12.5834 11.295L12.6688 11.1141C12.1818 10.8844 11.6494 10.7623 11.1032 10.7623V10.9623ZM7.68071 13.9329C7.92691 12.2565 9.3607 10.9623 11.1032 10.9623V10.7623C9.25858 10.7623 7.74303 12.1322 7.48283 13.9038L7.68071 13.9329ZM6.79998 14.0182L7.58174 14.0184L7.58179 13.8184L6.80002 13.8182L6.79998 14.0182ZM21.6632 12.1559C21.926 12.7011 22.0878 13.2967 22.1491 13.9279L22.3482 13.9085C22.2848 13.2556 22.117 12.6369 21.8433 12.0691L21.6632 12.1559ZM22.7208 11.7963C22.3646 11.7963 22.0294 11.8898 21.715 12.0201L21.7915 12.2049C22.0915 12.0806 22.3997 11.9963 22.7208 11.9963V11.7963ZM25.3059 13.8978C25.0567 12.6998 23.9927 11.7963 22.7208 11.7963V11.9963C23.8958 11.9963 24.8797 12.8313 25.1101 13.9386L25.3059 13.8978ZM22.2486 14.0182L25.208 14.0182V13.8182L22.2486 13.8182V14.0182ZM22.7208 10.9621C24.4633 10.9621 25.8971 12.2564 26.1433 13.9327L26.3412 13.9037C26.081 12.132 24.5654 10.7621 22.7208 10.7621V10.9621ZM21.2406 11.2946C21.7008 11.0772 22.2041 10.9621 22.7208 10.9621V10.7621C22.1742 10.7621 21.6418 10.8839 21.1552 11.1137L21.2406 11.2946ZM20.6084 10.6625C20.7943 10.8446 20.9566 11.0504 21.1181 11.2644L21.2777 11.1439C21.1154 10.9289 20.9456 10.7129 20.7484 10.5196L20.6084 10.6625ZM22.7208 9.98012C21.9822 9.98012 21.2717 10.161 20.6313 10.5028L20.7255 10.6792C21.3371 10.3528 22.0154 10.1801 22.7208 10.1801V9.98012ZM27.123 13.9061C26.8578 11.7017 24.9973 9.98012 22.7208 9.98012V10.1801C24.8932 10.1801 26.6709 11.8231 26.9245 13.93L27.123 13.9061ZM26.2423 14.0182L27.0238 14.018L27.0237 13.818L26.2422 13.8182L26.2423 14.0182ZM30.8885 16.1953L30.4736 14.9215L30.2834 14.9834L30.6983 16.2572L30.8885 16.1953ZM2.74246 16.3262H30.7934V16.1262H2.74246V16.3262ZM3.00204 14.9255L2.64614 16.1993L2.83877 16.2531L3.19466 14.9793L3.00204 14.9255ZM30.3785 14.8524H3.09835V15.0524H30.3785V14.8524ZM27.8965 31.5209C28.1283 31.5209 28.3168 31.3323 28.3168 31.1006H28.1168C28.1168 31.2219 28.0178 31.3209 27.8965 31.3209V31.5209ZM5.95108 31.5209H27.8965V31.3209H5.95108V31.5209ZM5.51892 30.9973C5.52514 31.1545 5.56851 31.2847 5.64588 31.3775C5.7247 31.4721 5.83328 31.5209 5.95108 31.5209V31.3209C5.89166 31.3209 5.83973 31.2978 5.79954 31.2495C5.75791 31.1995 5.72377 31.116 5.71876 30.9894L5.51892 30.9973ZM2.60153 17.2813L5.52102 31.0141L5.71665 30.9725L2.79716 17.2397L2.60153 17.2813ZM30.8793 17.1605H2.69934V17.3605H30.8793V17.1605ZM28.315 31.1195L30.9775 17.2794L30.7811 17.2416L28.1186 31.0817L28.315 31.1195ZM20.2282 19.4815C20.3113 19.2662 20.5538 19.1583 20.766 19.2421L20.8394 19.0561C20.5218 18.9307 20.1639 19.0927 20.0416 19.4095L20.2282 19.4815ZM19.7772 20.6481L20.2281 19.4816L20.0416 19.4095L19.5906 20.576L19.7772 20.6481ZM13.7969 20.7121H19.6839V20.5121H13.7969V20.7121ZM13.2527 19.4816L13.7037 20.6481L13.8902 20.576L13.4392 19.4095L13.2527 19.4816ZM12.7146 19.2422C12.9294 19.1581 13.17 19.2663 13.2526 19.4814L13.4393 19.4097C13.3175 19.0926 12.9614 18.9308 12.6417 19.056L12.7146 19.2422ZM12.4757 19.7801C12.3927 19.5656 12.4996 19.3248 12.714 19.2425L12.6423 19.0558C12.3245 19.1778 12.1663 19.5346 12.2892 19.8523L12.4757 19.7801ZM13.054 21.2785L12.4757 19.7802L12.2891 19.8522L12.8674 21.3505L13.054 21.2785ZM13.4425 21.5463C13.2705 21.5463 13.1162 21.4396 13.054 21.2785L12.8674 21.3506C12.959 21.5879 13.1869 21.7463 13.4425 21.7463V21.5463ZM20.0383 21.5463H13.4425V21.7463H20.0383V21.5463ZM20.4268 21.2786C20.3646 21.4398 20.2104 21.5463 20.0383 21.5463V21.7463C20.2938 21.7463 20.5217 21.5882 20.6134 21.3505L20.4268 21.2786ZM21.0051 19.7802L20.4268 21.2785L20.6134 21.3505L21.1916 19.8522L21.0051 19.7802ZM20.767 19.2425C20.9815 19.3248 21.0883 19.5656 21.0051 19.7801L21.1916 19.8524C21.3148 19.5347 21.1565 19.1778 20.8388 19.0558L20.767 19.2425ZM20.8027 19.2491H20.8029V19.0491H20.8027V19.2491ZM26.1424 5.40475H24.9209V5.60475H26.1424V5.40475ZM26.7588 6.02187C26.7588 5.6819 26.483 5.40475 26.1424 5.40475V5.60475C26.3721 5.60475 26.5588 5.79194 26.5588 6.02187H26.7588ZM26.1424 6.63898C26.4828 6.63898 26.7588 6.36187 26.7588 6.02187H26.5588C26.5588 6.25177 26.3719 6.43898 26.1424 6.43898V6.63898ZM24.9209 6.63898H26.1424V6.43898H24.9209V6.63898ZM24.3045 6.02187C24.3045 6.36187 24.5805 6.63898 24.9209 6.63898V6.43898C24.6913 6.43898 24.5045 6.25177 24.5045 6.02187H24.3045ZM24.9209 5.40475C24.5805 5.40475 24.3045 5.68187 24.3045 6.02187H24.5045C24.5045 5.79197 24.6913 5.60475 24.9209 5.60475V5.40475ZM22.4856 6.02187C22.4856 5.79197 22.6724 5.60475 22.902 5.60475V5.40475C22.5616 5.40475 22.2856 5.68187 22.2856 6.02187H22.4856ZM22.902 6.43898C22.6724 6.43898 22.4856 6.25177 22.4856 6.02187H22.2856C22.2856 6.36187 22.5616 6.63898 22.902 6.63898V6.43898ZM22.9701 6.43898H22.902V6.63898H22.9701V6.43898ZM23.3525 6.02187C23.3525 6.26094 23.1909 6.43898 22.9701 6.43898V6.63898C23.3192 6.63898 23.5525 6.3527 23.5525 6.02187H23.3525ZM22.902 5.60475C23.1398 5.60475 23.3524 5.79997 23.3525 6.02195L23.5525 6.02179C23.5523 5.67386 23.234 5.40475 22.902 5.40475V5.60475ZM21.3403 5.40475C20.9999 5.40475 20.7239 5.68187 20.7239 6.02187H20.9239C20.9239 5.79197 21.1108 5.60475 21.3403 5.60475V5.40475ZM21.9947 6.02179C21.9944 5.67303 21.6714 5.40475 21.3403 5.40475V5.60475C21.5791 5.60475 21.7945 5.8008 21.7947 6.02195L21.9947 6.02179ZM21.416 6.63898C21.7661 6.63898 21.9947 6.35158 21.9947 6.02187H21.7947C21.7947 6.26205 21.6358 6.43898 21.416 6.43898V6.63898ZM21.3403 6.63898H21.416V6.43898H21.3403V6.63898ZM20.7239 6.02187C20.7239 6.36187 20.9999 6.63898 21.3403 6.63898V6.43898C21.1108 6.43898 20.9239 6.25177 20.9239 6.02187H20.7239Z" fill="#232323"/>
        </g>
        <defs>
            <clipPath id="clip0_963_2662">
                <rect width="34" height="34" fill="white"/>
            </clipPath>
        </defs>
    </symbol>

    <symbol id="footerIcon5" viewBox="0 0 34 34">
        <g clip-path="url(#clip0_963_2634)">
            <rect width="34" height="34" fill="#232323"/>
            <rect width="44" height="44" fill="#232323"/>
            <path d="M31.6591 25.7628L22.6568 20.091H22.6027V4.21142C22.6027 3.70932 22.4032 3.22778 22.0482 2.87274C21.6932 2.5177 21.2116 2.31824 20.7095 2.31824H12.9823C12.4802 2.31824 11.9986 2.5177 11.6436 2.87274C11.2885 3.22778 11.0891 3.70932 11.0891 4.21142V20.0678L2.38816 25.7396H2.3418V31.0482H31.7054V25.7628H31.6591ZM12.99 3.24551H20.7172C20.9728 3.24753 21.2173 3.34995 21.398 3.53065C21.5787 3.71136 21.6811 3.95587 21.6832 4.21142V19.9828H12.0241V4.21142C12.0261 3.95587 12.1285 3.71136 12.3092 3.53065C12.4899 3.34995 12.7344 3.24753 12.99 3.24551V3.24551ZM4.17316 25.6546L11.4522 20.9101H22.2704L29.565 25.5464L29.8045 25.6932L29.9359 25.7782H4.08043L4.17316 25.6546ZM30.7627 30.121H3.24589V26.6901H30.7627V30.121Z" />
            <path d="M7.782 28.815C7.83456 28.7436 7.87248 28.6625 7.89356 28.5764C7.91464 28.4902 7.91846 28.4007 7.90481 28.3131C7.89116 28.2255 7.86032 28.1414 7.81405 28.0658C7.76777 27.9901 7.70699 27.9244 7.63519 27.8723C7.48929 27.769 7.30855 27.7272 7.13211 27.7562C6.95567 27.7851 6.79772 27.8823 6.69246 28.0269C6.61301 28.1715 6.5895 28.3403 6.62643 28.5011C6.66336 28.6619 6.75815 28.8035 6.89274 28.899C7.02733 28.9944 7.19233 29.037 7.35631 29.0187C7.52029 29.0004 7.6718 28.9224 7.782 28.7996V28.815Z" />
            <path d="M10.4006 28.815C10.5039 28.6691 10.5456 28.4884 10.5167 28.3119C10.4878 28.1355 10.3905 27.9775 10.246 27.8723C10.1014 27.7928 9.93261 27.7693 9.77179 27.8062C9.61098 27.8432 9.46936 27.938 9.37391 28.0725C9.27845 28.2071 9.23584 28.3721 9.25416 28.5361C9.27248 28.7001 9.35046 28.8516 9.47327 28.9618C9.61707 29.0612 9.79365 29.1014 9.96632 29.0741C10.139 29.0468 10.2945 28.954 10.4006 28.815V28.815Z" />
            <path d="M13.0119 28.815C13.1152 28.6691 13.157 28.4884 13.128 28.3119C13.0991 28.1355 13.0019 27.9775 12.8573 27.8723C12.7127 27.7928 12.5439 27.7693 12.3831 27.8062C12.2223 27.8432 12.0807 27.938 11.9852 28.0725C11.8898 28.2071 11.8472 28.3721 11.8655 28.5361C11.8838 28.7001 11.9618 28.8516 12.0846 28.9618C12.2284 29.0612 12.405 29.1014 12.5776 29.0741C12.7503 29.0468 12.9058 28.954 13.0119 28.815Z" />
        </g>
        <defs>
            <clipPath id="clip0_963_2634">
                <rect width="34" height="34" fill="white"/>
            </clipPath>
        </defs>
    </symbol>

    <symbol id="footerIcon6" viewBox="0 0 34 34">
        <rect width="34" height="34" fill="#232323"/>
        <path d="M11.3596 10.2C11.7424 10.2016 12.1169 10.0894 12.4358 9.8777C12.7546 9.66602 13.0035 9.36439 13.1506 9.01108C13.2978 8.65777 13.3367 8.26871 13.2624 7.89326C13.1881 7.5178 13.004 7.17288 12.7333 6.90224C12.4627 6.63161 12.1178 6.44746 11.7423 6.37317C11.3669 6.29888 10.9778 6.33779 10.6245 6.48496C10.2712 6.63213 9.96956 6.88093 9.75788 7.1998C9.5462 7.51866 9.43403 7.89323 9.43556 8.27596C9.4376 8.78563 9.64094 9.27385 10.0013 9.63425C10.3617 9.99464 10.85 10.198 11.3596 10.2ZM10.3396 8.27596C10.3381 8.06593 10.3991 7.86019 10.5149 7.68492C10.6306 7.50965 10.7958 7.37276 10.9896 7.29168C11.1833 7.2106 11.3968 7.18899 11.6029 7.22959C11.8089 7.27019 11.9983 7.37117 12.1468 7.51969C12.2953 7.6682 12.3963 7.85754 12.4369 8.06361C12.4775 8.26969 12.4559 8.48318 12.3748 8.67693C12.2938 8.87068 12.1569 9.03594 11.9816 9.15167C11.8063 9.26741 11.6006 9.32839 11.3905 9.32687C11.1118 9.32687 10.8445 9.21615 10.6474 9.01906C10.4503 8.82198 10.3396 8.55467 10.3396 8.27596V8.27596Z" />
        <path d="M17.2014 10.2C17.5842 10.2016 17.9588 10.0894 18.2776 9.8777C18.5965 9.66602 18.8453 9.36439 18.9924 9.01108C19.1396 8.65777 19.1785 8.26871 19.1042 7.89326C19.0299 7.5178 18.8458 7.17288 18.5752 6.90224C18.3045 6.63161 17.9596 6.44746 17.5841 6.37317C17.2087 6.29888 16.8196 6.33779 16.4663 6.48496C16.113 6.63213 15.8114 6.88093 15.5997 7.1998C15.388 7.51866 15.2758 7.89323 15.2774 8.27596C15.2794 8.78563 15.4827 9.27385 15.8431 9.63425C16.2035 9.99464 16.6918 10.198 17.2014 10.2ZM16.1505 8.27596C16.149 8.06593 16.21 7.86019 16.3257 7.68492C16.4414 7.50965 16.6067 7.37276 16.8005 7.29168C16.9942 7.2106 17.2077 7.18899 17.4138 7.22959C17.6198 7.27019 17.8092 7.37117 17.9577 7.51969C18.1062 7.6682 18.2072 7.85754 18.2478 8.06361C18.2884 8.26969 18.2668 8.48318 18.1857 8.67693C18.1046 8.87068 17.9678 9.03594 17.7925 9.15167C17.6172 9.26741 17.4115 9.32839 17.2014 9.32687C16.9227 9.32687 16.6554 9.21615 16.4583 9.01906C16.2612 8.82198 16.1505 8.55467 16.1505 8.27596Z" />
        <path d="M23.0437 10.2C23.4279 10.2092 23.8062 10.1036 24.1301 9.89668C24.454 9.68974 24.7088 9.3909 24.8619 9.03836C25.015 8.68582 25.0595 8.29562 24.9897 7.91766C24.9198 7.53971 24.7388 7.19118 24.4698 6.91665C24.2008 6.64213 23.856 6.45409 23.4796 6.37659C23.1031 6.29909 22.7121 6.33565 22.3565 6.4816C22.0009 6.62754 21.697 6.87624 21.4835 7.19587C21.27 7.51551 21.1568 7.89155 21.1582 8.2759C21.1601 8.77898 21.3581 9.26149 21.7102 9.62081C22.0623 9.98013 22.5407 10.1879 23.0437 10.2V10.2ZM21.9928 8.2759C21.9912 8.06588 22.0522 7.86014 22.1679 7.68487C22.2837 7.5096 22.4489 7.37271 22.6427 7.29163C22.8364 7.21055 23.0499 7.18893 23.256 7.22953C23.4621 7.27014 23.6514 7.37112 23.7999 7.51963C23.9485 7.66815 24.0494 7.85749 24.09 8.06356C24.1306 8.26964 24.109 8.48313 24.0279 8.67688C23.9468 8.87063 23.81 9.03589 23.6347 9.15162C23.4595 9.26736 23.2537 9.32834 23.0437 9.32681C22.765 9.32681 22.4976 9.21609 22.3006 9.01901C22.1035 8.82193 21.9928 8.55462 21.9928 8.2759Z" />
        <path d="M7.58008 27.1459H26.8287V17.1005H7.58008V27.1459ZM25.9556 17.8732V26.3346H8.45326V17.8964L25.9556 17.8732Z" />
        <path d="M6.07422 16.0727H28.3365V13.399H6.07422V16.0727ZM27.4633 14.2645V15.1995H6.9474V14.2645H27.4633Z" />
        <path d="M28.8842 3.86365H5.51693C5.07836 3.86365 4.65772 4.03787 4.3476 4.34798C4.03749 4.6581 3.86328 5.07871 3.86328 5.51728V28.8846C3.86328 29.3231 4.03749 29.7437 4.3476 30.0538C4.65772 30.364 5.07836 30.5382 5.51693 30.5382H28.8842C29.3228 30.5382 29.7434 30.364 30.0535 30.0538C30.3636 29.7437 30.5378 29.3231 30.5378 28.8846V5.51728C30.5378 5.07871 30.3636 4.6581 30.0535 4.34798C29.7434 4.03787 29.3228 3.86365 28.8842 3.86365ZM5.51693 4.79092H28.8842C29.0813 4.79056 29.2712 4.86558 29.4148 5.00062C29.5585 5.13565 29.6451 5.32048 29.6569 5.51728V11.1427H4.79056V5.51728C4.79056 5.32464 4.8671 5.13989 5.00332 5.00367C5.13954 4.86745 5.32429 4.79092 5.51693 4.79092ZM28.8842 29.6109H5.51693C5.32429 29.6109 5.13954 29.5344 5.00332 29.3982C4.8671 29.2619 4.79056 29.0772 4.79056 28.8846V12.155H29.6569V28.8846C29.6451 29.0814 29.5585 29.2662 29.4148 29.4012C29.2712 29.5363 29.0813 29.6113 28.8842 29.6109Z" />
    </symbol>

    <symbol id="footerIcon7" viewBox="0 0 34 34">
        <rect width="34" height="34" fill="#232323"/>
        <path d="M10.8334 15.3773C11.9162 15.3777 12.9564 14.9557 13.7328 14.2009C14.5092 13.4462 14.9605 12.4183 14.9907 11.3359V11.1041C14.9679 10.2872 14.7048 9.49513 14.2344 8.82688C13.764 8.15864 13.107 7.64387 12.3456 7.34692C11.5843 7.04996 10.7523 6.98399 9.95363 7.15725C9.15498 7.33051 8.4251 7.73532 7.85523 8.32107C7.28536 8.90683 6.90079 9.64755 6.74955 10.4507C6.59831 11.2538 6.68712 12.0836 7.00489 12.8366C7.32267 13.5895 7.85532 14.232 8.53625 14.6839C9.21717 15.1358 10.0162 15.377 10.8334 15.3773ZM13.1516 13.5305C12.6178 14.0628 11.9161 14.3938 11.1658 14.467C10.4156 14.5403 9.66306 14.3514 9.03639 13.9324C8.40972 13.5134 7.94756 12.8902 7.72857 12.1689C7.50958 11.4475 7.54727 10.6726 7.83523 9.97594C8.12319 9.27926 8.64363 8.70387 9.30801 8.34767C9.97238 7.99146 10.7397 7.87644 11.4793 8.02218C12.2189 8.16792 12.8852 8.56541 13.3648 9.14702C13.8444 9.72864 14.1076 10.4585 14.1097 11.2123C14.1118 11.6429 14.0282 12.0697 13.8637 12.4677C13.6992 12.8657 13.4571 13.227 13.1516 13.5305Z" />
        <path d="M24.4105 7.06277H21.0955H20.91C19.8116 7.02793 18.7442 7.43089 17.9428 8.18299C17.1415 8.9351 16.6717 9.97475 16.6369 11.0732C16.602 12.1717 17.0049 13.239 17.7571 14.0404C18.5092 14.8418 19.5488 15.3116 20.6473 15.3464H24.4182C25.5208 15.3464 26.5782 14.9084 27.3578 14.1288C28.1375 13.3491 28.5755 12.2917 28.5755 11.1891C28.5755 10.0866 28.1375 9.02914 27.3578 8.2495C26.5782 7.46986 25.5208 7.03186 24.4182 7.03186L24.4105 7.06277ZM18.5996 13.5305C18.0594 12.9956 17.7215 12.29 17.6435 11.5338C17.5655 10.7776 17.7523 10.0178 18.1719 9.38399C18.5915 8.75014 19.2181 8.28149 19.9446 8.05796C20.6712 7.83444 21.4528 7.86989 22.1561 8.15826C22.8595 8.44663 23.441 8.97007 23.8015 9.6393C24.1621 10.3085 24.2793 11.0821 24.1332 11.8281C23.9871 12.5741 23.5867 13.2463 23.0003 13.7301C22.4139 14.2138 21.6779 14.4792 20.9177 14.481H20.8791C20.4553 14.4806 20.0356 14.3965 19.6444 14.2334C19.2532 14.0703 18.8981 13.8314 18.5996 13.5305ZM25.0673 11.336V11.1041C25.0492 10.4884 24.895 9.88425 24.6158 9.33514C24.3366 8.78603 23.9392 8.30556 23.4523 7.92822H24.4182C25.2851 7.92822 26.1165 8.2726 26.7295 8.88558C27.3425 9.49857 27.6868 10.33 27.6868 11.1969C27.6868 12.0638 27.3425 12.8951 26.7295 13.5081C26.1165 14.1211 25.2851 14.4655 24.4182 14.4655H23.4523C23.9333 14.0931 24.3271 13.62 24.6061 13.0794C24.8851 12.5388 25.0425 11.9438 25.0673 11.336Z" />
        <path d="M22.7338 18.1359C21.9166 18.1362 21.1176 18.3774 20.4366 18.8292C19.7557 19.2811 19.2231 19.9237 18.9053 20.6766C18.5875 21.4295 18.4987 22.2594 18.6499 23.0625C18.8012 23.8656 19.1858 24.6063 19.7556 25.1921C20.3255 25.7778 21.0554 26.1826 21.854 26.3559C22.6527 26.5292 23.4846 26.4632 24.246 26.1662C25.0074 25.8693 25.6643 25.3545 26.1348 24.6863C26.6052 24.018 26.8683 23.226 26.8911 22.409V22.1772C26.8609 21.0949 26.4096 20.067 25.6332 19.3122C24.8568 18.5575 23.8166 18.1354 22.7338 18.1359ZM25.052 24.6036C24.5182 25.1359 23.8165 25.4669 23.0662 25.5402C22.3159 25.6134 21.5634 25.4245 20.9368 25.0055C20.3101 24.5865 19.848 23.9633 19.629 23.242C19.41 22.5207 19.4477 21.7457 19.7356 21.0491C20.0236 20.3524 20.544 19.777 21.2084 19.4208C21.8728 19.0646 22.64 18.9496 23.3797 19.0953C24.1193 19.241 24.7856 19.6385 25.2652 20.2201C25.7447 20.8018 26.008 21.5316 26.0102 22.2854C26.0112 22.7166 25.9264 23.1437 25.7605 23.5417C25.5947 23.9397 25.3512 24.3007 25.0442 24.6036H25.052Z" />
        <path d="M10.8328 18.8313C10.1529 18.8302 9.48758 19.0293 8.92006 19.4039C8.35254 19.7785 7.90793 20.3119 7.64167 20.9376C7.37541 21.5633 7.2993 22.2536 7.42288 22.9222C7.54645 23.5909 7.86423 24.2084 8.33653 24.6976C8.80883 25.1868 9.41474 25.5261 10.0787 25.6731C10.7426 25.8201 11.4351 25.7683 12.0698 25.5242C12.7044 25.2801 13.2531 24.8545 13.6474 24.3005C14.0418 23.7465 14.2642 23.0886 14.2869 22.409V22.1772C14.2588 21.28 13.8825 20.429 13.2378 19.8044C12.593 19.1799 11.7305 18.8309 10.8328 18.8313ZM10.8328 24.8586C10.3233 24.8601 9.82471 24.7103 9.40037 24.4281C8.97603 24.146 8.64501 23.7442 8.4493 23.2737C8.25358 22.8032 8.20197 22.2852 8.30101 21.7853C8.40005 21.2854 8.64528 20.8262 9.00561 20.4659C9.36594 20.1056 9.82515 19.8603 10.325 19.7613C10.8249 19.6623 11.3429 19.7139 11.8134 19.9096C12.2839 20.1053 12.6857 20.4363 12.9679 20.8606C13.25 21.285 13.3998 21.7835 13.3983 22.2931C13.3983 22.9735 13.128 23.6261 12.6469 24.1072C12.1658 24.5883 11.5132 24.8586 10.8328 24.8586Z" />
        <path d="M10.8804 17.2395C9.88551 17.2382 8.91242 17.5306 8.08304 18.0801C7.25366 18.6295 6.60488 19.4115 6.21803 20.328C5.83118 21.2446 5.72347 22.2549 5.90838 23.2325C6.09329 24.21 6.56261 25.1112 7.25751 25.8231C7.95242 26.535 8.84199 27.026 9.81474 27.2345C10.7875 27.443 11.8002 27.3598 12.7258 26.9953C13.6515 26.6307 14.4489 26.0011 15.0182 25.1852C15.5876 24.3694 15.9034 23.4036 15.9263 22.4091V22.1772C15.896 20.8585 15.3513 19.6038 14.4085 18.6812C13.4657 17.7586 12.1995 17.2412 10.8804 17.2395ZM13.8167 25.2295C13.1367 25.9069 12.243 26.3277 11.2876 26.4201C10.3322 26.5125 9.37435 26.2708 8.57715 25.7363C7.77995 25.2018 7.1927 24.4074 6.91544 23.4885C6.63817 22.5696 6.68805 21.583 7.05655 20.6967C7.42505 19.8104 8.0894 19.0793 8.93644 18.6279C9.78348 18.1764 10.7608 18.0326 11.702 18.2209C12.6432 18.4091 13.49 18.9179 14.0982 19.6604C14.7064 20.4029 15.0384 21.3333 15.0376 22.2931C15.0385 22.839 14.931 23.3796 14.7214 23.8837C14.5118 24.3877 14.2043 24.8451 13.8167 25.2295Z" />
        <path d="M28.8843 3.8636H5.51708C5.0812 3.86767 4.66454 4.04369 4.35776 4.35336C4.05098 4.66304 3.87889 5.08133 3.87891 5.51723V28.8845C3.87891 29.3231 4.05314 29.7437 4.36325 30.0538C4.67337 30.3639 5.09398 30.5381 5.53255 30.5381H28.8998C29.3384 30.5381 29.759 30.3639 30.0691 30.0538C30.3792 29.7437 30.5535 29.3231 30.5535 28.8845V5.51723C30.5535 5.29877 30.5102 5.08247 30.4261 4.88082C30.3421 4.67918 30.2189 4.4962 30.0637 4.34244C29.9085 4.18868 29.7243 4.0672 29.5219 3.98501C29.3195 3.90282 29.1028 3.86156 28.8843 3.8636ZM29.6107 28.8845C29.6107 29.0772 29.5342 29.2619 29.398 29.3981C29.2617 29.5343 29.077 29.6109 28.8843 29.6109H5.51708C5.32444 29.6109 5.13969 29.5343 5.00347 29.3981C4.86725 29.2619 4.79072 29.0772 4.79072 28.8845V5.51723C4.79072 5.32459 4.86725 5.13984 5.00347 5.00362C5.13969 4.8674 5.32444 4.79087 5.51708 4.79087H28.8843C29.077 4.79087 29.2617 4.8674 29.398 5.00362C29.5342 5.13984 29.6107 5.32459 29.6107 5.51723V28.8845Z" />
    </symbol>

    <symbol id="footerIcon8" viewBox="0 0 34 34">
        <g clip-path="url(#clip0_963_2627)">
            <rect width="34" height="34" fill="#232323"/>
            <rect width="44" height="44" fill="#232323"/>
            <path d="M11.1818 15.64C10.7994 15.64 10.4256 15.7535 10.1077 15.9661C9.78989 16.1787 9.54229 16.4809 9.39631 16.8344C9.25032 17.1878 9.21252 17.5766 9.28769 17.9516C9.36286 18.3265 9.54762 18.6707 9.81856 18.9406C10.0895 19.2104 10.4344 19.3938 10.8097 19.4675C11.1849 19.5411 11.5736 19.5018 11.9264 19.3544C12.2793 19.207 12.5805 18.9582 12.7918 18.6395C13.0031 18.3208 13.1151 17.9465 13.1136 17.5641C13.1116 17.0531 12.9071 16.5637 12.5451 16.2031C12.183 15.8425 11.6928 15.64 11.1818 15.64ZM10.7723 16.5982V18.5377C10.5809 18.4579 10.4175 18.3232 10.3025 18.1506C10.1876 17.978 10.1263 17.7753 10.1263 17.568C10.1263 17.3606 10.1876 17.1579 10.3025 16.9854C10.4175 16.8128 10.5809 16.6781 10.7723 16.5982ZM11.6377 16.5982C11.8173 16.6819 11.9694 16.815 12.0762 16.9819C12.1829 17.1489 12.2399 17.3428 12.2404 17.5409C12.2395 17.74 12.1824 17.9348 12.0758 18.1029C11.9692 18.271 11.8174 18.4056 11.6377 18.4914V16.5982Z" />
            <path d="M22.9494 15.64C22.567 15.64 22.1932 15.7535 21.8753 15.9661C21.5575 16.1787 21.3099 16.4809 21.1639 16.8344C21.0179 17.1878 20.9801 17.5766 21.0553 17.9516C21.1304 18.3265 21.3152 18.6707 21.5861 18.9406C21.8571 19.2104 22.202 19.3938 22.5773 19.4675C22.9525 19.5411 23.3412 19.5018 23.694 19.3544C24.0469 19.207 24.3481 18.9582 24.5594 18.6395C24.7707 18.3208 24.8827 17.9465 24.8812 17.5641C24.8792 17.0531 24.6747 16.5637 24.3127 16.2031C23.9506 15.8425 23.4604 15.64 22.9494 15.64ZM22.5167 16.6059V18.5223C22.3321 18.4392 22.1755 18.3045 22.0657 18.1345C21.9558 17.9646 21.8974 17.7665 21.8974 17.5641C21.8974 17.3617 21.9558 17.1636 22.0657 16.9937C22.1755 16.8237 22.3321 16.689 22.5167 16.6059ZM23.3898 16.6059C23.5744 16.689 23.731 16.8237 23.8408 16.9937C23.9507 17.1636 24.0091 17.3617 24.0091 17.5641C24.0091 17.7665 23.9507 17.9646 23.8408 18.1345C23.731 18.3045 23.5744 18.4392 23.3898 18.5223V16.6059Z" />
            <path d="M30.6847 15.0837C30.6562 14.6555 30.4697 14.2531 30.1612 13.9547C29.8528 13.6563 29.4445 13.483 29.0156 13.4687H27.3543V11.5909H24.5261V12.5337H26.3729V13.4378H23.282V11.9928H22.3161V13.4378H19.2252V12.5491H21.0875V11.5909H18.2593V13.4455H15.6243V11.5909H12.7961V12.5337H14.6429V13.4378H11.552V11.9928H10.6943V13.4378H7.60335V12.5491H9.46563V11.5909H6.63744V13.4687H5.54016C5.24232 13.4621 4.94894 13.5418 4.69532 13.698C4.4417 13.8543 4.23866 14.0806 4.11063 14.3496C3.94493 14.6997 3.8604 15.0827 3.86336 15.47V21.5591H4.74425H4.837H4.91425V22.8419H7.54155V21.4973H27.0761V22.78H29.7034V21.4973H30.6847V15.5319C30.7002 15.3773 30.7002 15.2459 30.6847 15.0837ZM4.81382 20.4928V17.7959C4.81382 16.9691 4.81382 16.15 4.81382 15.3309C4.79727 15.2073 4.80946 15.0815 4.84943 14.9633C4.8894 14.8452 4.95607 14.7378 5.04428 14.6496C5.13249 14.5614 5.23985 14.4947 5.35802 14.4547C5.47618 14.4148 5.60199 14.4026 5.72563 14.4191H28.8147C28.9377 14.4057 29.0622 14.42 29.179 14.4611C29.2957 14.5021 29.4017 14.5689 29.4893 14.6564C29.5768 14.7439 29.6435 14.8499 29.6846 14.9667C29.7256 15.0834 29.74 15.2079 29.7265 15.3309C29.7265 16.575 29.7265 17.8191 29.7265 19.0709V20.485L4.81382 20.4928ZM6.69154 21.9378H5.76426V21.505H6.69154V21.9378ZM28.8533 21.9378H27.9261V21.505H28.8533V21.9378Z" />
        </g>
        <defs>
            <clipPath id="clip0_963_2627">
                <rect width="34" height="34" fill="white"/>
            </clipPath>
        </defs>
    </symbol>

    <symbol id="gas" viewBox="0 0 20 20">
        <path d="M15.0325 17.8709C15.3496 17.3726 15.5534 16.897 15.712 16.4892C17.1616 12.6841 14.942 9.21857 14.8513 9.10532C14.738 12.5933 12.3597 13.4768 12.2238 13.5221C12.3144 13.4088 14.1492 11.1212 13.9679 6.65912C13.7867 2.35561 9.98157 0.226501 9.55118 0C9.91361 0.226565 10.0721 1.06455 10.0721 1.06455C10.729 4.03167 7.21822 6.81767 7.21822 6.81767C-1.9777 15.4247 6.69731 19.8867 6.90113 20C6.8106 19.8414 4.02453 14.2922 8.78108 11.2118C8.75849 11.3023 8.23744 12.7972 10.4798 15.5153C10.4798 15.5153 11.567 16.9195 11.0914 19.0487C11.1594 19.0033 12.5636 18.12 12.3826 16.0362C12.4731 16.1267 13.9455 18.0521 13.0621 19.9774C13.1752 19.9094 14.5795 18.7316 15.0325 17.8708L15.0325 17.8709Z"/>
    </symbol>

    <symbol id="electric" viewBox="0 0 20 20">
        <g clip-path="url(#clip0_963_2328)">
            <path fill-rule="evenodd" clip-rule="evenodd" d="M16.8517 5.12114V11.6198C16.8517 14.9178 14.3346 17.6555 11.1263 18.0067V19.3014C11.1263 19.6873 10.8135 20.0002 10.4275 20.0002C10.0416 20.0002 9.72876 19.6873 9.72876 19.3014V18.0071C6.51984 17.6572 4 14.918 4 11.6199V5.12119H6.70351V0.667052C6.70351 0.29926 7.00174 0 7.37056 0C7.73835 0 8.03761 0.298235 8.03761 0.667052V5.12119H12.8134V0.667052C12.8134 0.29926 13.1117 0 13.4805 0C13.8493 0 14.1476 0.298235 14.1476 0.667052V5.12119L16.8517 5.12114ZM10.2924 7.55776L10.1828 10.2953H12.8352L10.5595 14.8008L10.6691 12.0633H8.01674L10.2924 7.55776Z"/>
        </g>
        <defs>
            <clipPath id="clip0_963_2328">
                <rect width="20" height="20" fill="white"/>
            </clipPath>
        </defs>
    </symbol>

</svg>
