<svg width="60" height="60" fill="none" xmlns="http://www.w3.org/2000/svg"><path d="M30 37.5a7.5 7.5 0 100-15 7.5 7.5 0 000 15z" stroke="#fff" stroke-width="1.5" stroke-linecap="round" stroke-linejoin="round"/><path d="M49.056 25.988l-2.744-6.626L50 15l-5-5-4.338 3.707-6.768-2.783L32.338 5h-4.886l-1.58 6.003-6.611 2.787L15 10l-5 5 3.633 4.472-2.702 6.644L5 27.5v5l6.003 1.639 2.786 6.61L10 45l5 5 4.478-3.65 6.514 2.68L27.5 55h5l1.511-5.967 6.627-2.744C41.742 47.079 45 50 45 50l5-5-3.71-4.376 2.745-6.629L55 32.443V27.5l-5.944-1.512z" stroke="#fff" stroke-width="1.5" stroke-linecap="round" stroke-linejoin="round"/></svg>