<svg width="40" height="40" fill="none" xmlns="http://www.w3.org/2000/svg"><g clip-path="url(#clip0_1147_3265)"><path d="M0 19.2C0 10.149 0 5.624 2.812 2.812 5.624 0 10.149 0 19.2 0h1.6c9.051 0 13.576 0 16.388 2.812C40 5.624 40 10.149 40 19.2v1.6c0 9.051 0 13.576-2.812 16.388C34.376 40 29.851 40 20.8 40h-1.6c-9.051 0-13.576 0-16.388-2.812C0 34.376 0 29.851 0 20.8v-1.6z" fill="#fff"/><path d="M21.213 28.8C11.92 28.8 6.62 22.494 6.398 12h4.655c.153 7.702 3.585 10.965 6.303 11.637V12h4.384v6.643c2.684-.286 5.504-3.313 6.456-6.643h4.383c-.73 4.103-3.789 7.13-5.963 8.375 2.174 1.009 5.657 3.649 6.982 8.425h-4.825c-1.036-3.195-3.618-5.667-7.033-6.004V28.8h-.527z" fill="#232323"/></g><defs><clipPath id="clip0_1147_3265"><path fill="#fff" d="M0 0h40v40H0z"/></clipPath></defs></svg>